G04 EAGLE Gerber RS-274X export*
G75*
%MOMM*%
%FSLAX34Y34*%
%LPD*%
%INSolderpaste Top*%
%IPPOS*%
%AMOC8*
5,1,8,0,0,1.08239X$1,22.5*%
G01*
%ADD10R,1.000000X1.100000*%
%ADD11R,2.000000X1.200000*%
%ADD12R,1.350000X0.600000*%
%ADD13R,1.100000X1.000000*%
%ADD14C,0.300000*%
%ADD15R,0.500000X0.600000*%
%ADD16R,0.600000X0.500000*%


D10*
X114300Y170570D03*
X114300Y187570D03*
X139700Y170570D03*
X139700Y187570D03*
D11*
X14050Y155000D03*
X14050Y99000D03*
D12*
X50800Y142000D03*
X50800Y132000D03*
X50800Y122000D03*
X50800Y112000D03*
D10*
X177800Y135500D03*
X177800Y118500D03*
D11*
X239950Y99000D03*
X239950Y155000D03*
D12*
X203200Y112000D03*
X203200Y122000D03*
X203200Y132000D03*
X203200Y142000D03*
D10*
X80010Y118500D03*
X80010Y135500D03*
D13*
X98180Y88900D03*
X115180Y88900D03*
X140090Y88900D03*
X157090Y88900D03*
D10*
X30480Y62620D03*
X30480Y79620D03*
D14*
X16200Y75120D02*
X9200Y75120D01*
X9200Y82120D01*
X16200Y82120D01*
X16200Y75120D01*
X16200Y77970D02*
X9200Y77970D01*
X9200Y80820D02*
X16200Y80820D01*
X16200Y57580D02*
X9200Y57580D01*
X9200Y64580D01*
X16200Y64580D01*
X16200Y57580D01*
X16200Y60430D02*
X9200Y60430D01*
X9200Y63280D02*
X16200Y63280D01*
D15*
X111000Y118500D03*
X119000Y118500D03*
X127000Y118500D03*
X135000Y118500D03*
X143000Y118500D03*
D16*
X143500Y127000D03*
D15*
X143000Y135500D03*
X135000Y135500D03*
X127000Y135500D03*
X119000Y135500D03*
X111000Y135500D03*
D16*
X110500Y127000D03*
D10*
X373380Y170570D03*
X373380Y187570D03*
X398780Y170570D03*
X398780Y187570D03*
D11*
X273130Y155000D03*
X273130Y99000D03*
D12*
X309880Y142000D03*
X309880Y132000D03*
X309880Y122000D03*
X309880Y112000D03*
D10*
X436880Y135500D03*
X436880Y118500D03*
D11*
X499030Y99000D03*
X499030Y155000D03*
D12*
X462280Y112000D03*
X462280Y122000D03*
X462280Y132000D03*
X462280Y142000D03*
D10*
X339090Y118500D03*
X339090Y135500D03*
D13*
X357260Y88900D03*
X374260Y88900D03*
X399170Y88900D03*
X416170Y88900D03*
D10*
X289560Y62620D03*
X289560Y79620D03*
D14*
X275280Y75120D02*
X268280Y75120D01*
X268280Y82120D01*
X275280Y82120D01*
X275280Y75120D01*
X275280Y77970D02*
X268280Y77970D01*
X268280Y80820D02*
X275280Y80820D01*
X275280Y57580D02*
X268280Y57580D01*
X268280Y64580D01*
X275280Y64580D01*
X275280Y57580D01*
X275280Y60430D02*
X268280Y60430D01*
X268280Y63280D02*
X275280Y63280D01*
D15*
X370080Y118500D03*
X378080Y118500D03*
X386080Y118500D03*
X394080Y118500D03*
X402080Y118500D03*
D16*
X402580Y127000D03*
D15*
X402080Y135500D03*
X394080Y135500D03*
X386080Y135500D03*
X378080Y135500D03*
X370080Y135500D03*
D16*
X369580Y127000D03*
D10*
X632460Y170570D03*
X632460Y187570D03*
X657860Y170570D03*
X657860Y187570D03*
D11*
X532210Y155000D03*
X532210Y99000D03*
D12*
X568960Y142000D03*
X568960Y132000D03*
X568960Y122000D03*
X568960Y112000D03*
D10*
X695960Y135500D03*
X695960Y118500D03*
D11*
X758110Y99000D03*
X758110Y155000D03*
D12*
X721360Y112000D03*
X721360Y122000D03*
X721360Y132000D03*
X721360Y142000D03*
D10*
X598170Y118500D03*
X598170Y135500D03*
D13*
X616340Y88900D03*
X633340Y88900D03*
X658250Y88900D03*
X675250Y88900D03*
D10*
X548640Y62620D03*
X548640Y79620D03*
D14*
X534360Y75120D02*
X527360Y75120D01*
X527360Y82120D01*
X534360Y82120D01*
X534360Y75120D01*
X534360Y77970D02*
X527360Y77970D01*
X527360Y80820D02*
X534360Y80820D01*
X534360Y57580D02*
X527360Y57580D01*
X527360Y64580D01*
X534360Y64580D01*
X534360Y57580D01*
X534360Y60430D02*
X527360Y60430D01*
X527360Y63280D02*
X534360Y63280D01*
D15*
X629160Y118500D03*
X637160Y118500D03*
X645160Y118500D03*
X653160Y118500D03*
X661160Y118500D03*
D16*
X661660Y127000D03*
D15*
X661160Y135500D03*
X653160Y135500D03*
X645160Y135500D03*
X637160Y135500D03*
X629160Y135500D03*
D16*
X628660Y127000D03*
D10*
X891540Y170570D03*
X891540Y187570D03*
X916940Y170570D03*
X916940Y187570D03*
D11*
X791290Y155000D03*
X791290Y99000D03*
D12*
X828040Y142000D03*
X828040Y132000D03*
X828040Y122000D03*
X828040Y112000D03*
D10*
X955040Y135500D03*
X955040Y118500D03*
D11*
X1017190Y99000D03*
X1017190Y155000D03*
D12*
X980440Y112000D03*
X980440Y122000D03*
X980440Y132000D03*
X980440Y142000D03*
D10*
X857250Y118500D03*
X857250Y135500D03*
D13*
X875420Y88900D03*
X892420Y88900D03*
X917330Y88900D03*
X934330Y88900D03*
D10*
X807720Y62620D03*
X807720Y79620D03*
D14*
X793440Y75120D02*
X786440Y75120D01*
X786440Y82120D01*
X793440Y82120D01*
X793440Y75120D01*
X793440Y77970D02*
X786440Y77970D01*
X786440Y80820D02*
X793440Y80820D01*
X793440Y57580D02*
X786440Y57580D01*
X786440Y64580D01*
X793440Y64580D01*
X793440Y57580D01*
X793440Y60430D02*
X786440Y60430D01*
X786440Y63280D02*
X793440Y63280D01*
D15*
X888240Y118500D03*
X896240Y118500D03*
X904240Y118500D03*
X912240Y118500D03*
X920240Y118500D03*
D16*
X920740Y127000D03*
D15*
X920240Y135500D03*
X912240Y135500D03*
X904240Y135500D03*
X896240Y135500D03*
X888240Y135500D03*
D16*
X887740Y127000D03*
D10*
X1150620Y170570D03*
X1150620Y187570D03*
X1176020Y170570D03*
X1176020Y187570D03*
D11*
X1050370Y155000D03*
X1050370Y99000D03*
D12*
X1087120Y142000D03*
X1087120Y132000D03*
X1087120Y122000D03*
X1087120Y112000D03*
D10*
X1214120Y135500D03*
X1214120Y118500D03*
D11*
X1276270Y99000D03*
X1276270Y155000D03*
D12*
X1239520Y112000D03*
X1239520Y122000D03*
X1239520Y132000D03*
X1239520Y142000D03*
D10*
X1116330Y118500D03*
X1116330Y135500D03*
D13*
X1134500Y88900D03*
X1151500Y88900D03*
X1176410Y88900D03*
X1193410Y88900D03*
D10*
X1066800Y62620D03*
X1066800Y79620D03*
D14*
X1052520Y75120D02*
X1045520Y75120D01*
X1045520Y82120D01*
X1052520Y82120D01*
X1052520Y75120D01*
X1052520Y77970D02*
X1045520Y77970D01*
X1045520Y80820D02*
X1052520Y80820D01*
X1052520Y57580D02*
X1045520Y57580D01*
X1045520Y64580D01*
X1052520Y64580D01*
X1052520Y57580D01*
X1052520Y60430D02*
X1045520Y60430D01*
X1045520Y63280D02*
X1052520Y63280D01*
D15*
X1147320Y118500D03*
X1155320Y118500D03*
X1163320Y118500D03*
X1171320Y118500D03*
X1179320Y118500D03*
D16*
X1179820Y127000D03*
D15*
X1179320Y135500D03*
X1171320Y135500D03*
X1163320Y135500D03*
X1155320Y135500D03*
X1147320Y135500D03*
D16*
X1146820Y127000D03*
D10*
X1409700Y170570D03*
X1409700Y187570D03*
X1435100Y170570D03*
X1435100Y187570D03*
D11*
X1309450Y155000D03*
X1309450Y99000D03*
D12*
X1346200Y142000D03*
X1346200Y132000D03*
X1346200Y122000D03*
X1346200Y112000D03*
D10*
X1473200Y135500D03*
X1473200Y118500D03*
D11*
X1535350Y99000D03*
X1535350Y155000D03*
D12*
X1498600Y112000D03*
X1498600Y122000D03*
X1498600Y132000D03*
X1498600Y142000D03*
D10*
X1375410Y118500D03*
X1375410Y135500D03*
D13*
X1393580Y88900D03*
X1410580Y88900D03*
X1435490Y88900D03*
X1452490Y88900D03*
D10*
X1325880Y62620D03*
X1325880Y79620D03*
D14*
X1311600Y75120D02*
X1304600Y75120D01*
X1304600Y82120D01*
X1311600Y82120D01*
X1311600Y75120D01*
X1311600Y77970D02*
X1304600Y77970D01*
X1304600Y80820D02*
X1311600Y80820D01*
X1311600Y57580D02*
X1304600Y57580D01*
X1304600Y64580D01*
X1311600Y64580D01*
X1311600Y57580D01*
X1311600Y60430D02*
X1304600Y60430D01*
X1304600Y63280D02*
X1311600Y63280D01*
D15*
X1406400Y118500D03*
X1414400Y118500D03*
X1422400Y118500D03*
X1430400Y118500D03*
X1438400Y118500D03*
D16*
X1438900Y127000D03*
D15*
X1438400Y135500D03*
X1430400Y135500D03*
X1422400Y135500D03*
X1414400Y135500D03*
X1406400Y135500D03*
D16*
X1405900Y127000D03*
D10*
X114300Y429650D03*
X114300Y446650D03*
X139700Y429650D03*
X139700Y446650D03*
D11*
X14050Y414080D03*
X14050Y358080D03*
D12*
X50800Y401080D03*
X50800Y391080D03*
X50800Y381080D03*
X50800Y371080D03*
D10*
X177800Y394580D03*
X177800Y377580D03*
D11*
X239950Y358080D03*
X239950Y414080D03*
D12*
X203200Y371080D03*
X203200Y381080D03*
X203200Y391080D03*
X203200Y401080D03*
D10*
X80010Y377580D03*
X80010Y394580D03*
D13*
X98180Y347980D03*
X115180Y347980D03*
X140090Y347980D03*
X157090Y347980D03*
D10*
X30480Y321700D03*
X30480Y338700D03*
D14*
X16200Y334200D02*
X9200Y334200D01*
X9200Y341200D01*
X16200Y341200D01*
X16200Y334200D01*
X16200Y337050D02*
X9200Y337050D01*
X9200Y339900D02*
X16200Y339900D01*
X16200Y316660D02*
X9200Y316660D01*
X9200Y323660D01*
X16200Y323660D01*
X16200Y316660D01*
X16200Y319510D02*
X9200Y319510D01*
X9200Y322360D02*
X16200Y322360D01*
D15*
X111000Y377580D03*
X119000Y377580D03*
X127000Y377580D03*
X135000Y377580D03*
X143000Y377580D03*
D16*
X143500Y386080D03*
D15*
X143000Y394580D03*
X135000Y394580D03*
X127000Y394580D03*
X119000Y394580D03*
X111000Y394580D03*
D16*
X110500Y386080D03*
D10*
X373380Y429650D03*
X373380Y446650D03*
X398780Y429650D03*
X398780Y446650D03*
D11*
X273130Y414080D03*
X273130Y358080D03*
D12*
X309880Y401080D03*
X309880Y391080D03*
X309880Y381080D03*
X309880Y371080D03*
D10*
X436880Y394580D03*
X436880Y377580D03*
D11*
X499030Y358080D03*
X499030Y414080D03*
D12*
X462280Y371080D03*
X462280Y381080D03*
X462280Y391080D03*
X462280Y401080D03*
D10*
X339090Y377580D03*
X339090Y394580D03*
D13*
X357260Y347980D03*
X374260Y347980D03*
X399170Y347980D03*
X416170Y347980D03*
D10*
X289560Y321700D03*
X289560Y338700D03*
D14*
X275280Y334200D02*
X268280Y334200D01*
X268280Y341200D01*
X275280Y341200D01*
X275280Y334200D01*
X275280Y337050D02*
X268280Y337050D01*
X268280Y339900D02*
X275280Y339900D01*
X275280Y316660D02*
X268280Y316660D01*
X268280Y323660D01*
X275280Y323660D01*
X275280Y316660D01*
X275280Y319510D02*
X268280Y319510D01*
X268280Y322360D02*
X275280Y322360D01*
D15*
X370080Y377580D03*
X378080Y377580D03*
X386080Y377580D03*
X394080Y377580D03*
X402080Y377580D03*
D16*
X402580Y386080D03*
D15*
X402080Y394580D03*
X394080Y394580D03*
X386080Y394580D03*
X378080Y394580D03*
X370080Y394580D03*
D16*
X369580Y386080D03*
D10*
X632460Y429650D03*
X632460Y446650D03*
X657860Y429650D03*
X657860Y446650D03*
D11*
X532210Y414080D03*
X532210Y358080D03*
D12*
X568960Y401080D03*
X568960Y391080D03*
X568960Y381080D03*
X568960Y371080D03*
D10*
X695960Y394580D03*
X695960Y377580D03*
D11*
X758110Y358080D03*
X758110Y414080D03*
D12*
X721360Y371080D03*
X721360Y381080D03*
X721360Y391080D03*
X721360Y401080D03*
D10*
X598170Y377580D03*
X598170Y394580D03*
D13*
X616340Y347980D03*
X633340Y347980D03*
X658250Y347980D03*
X675250Y347980D03*
D10*
X548640Y321700D03*
X548640Y338700D03*
D14*
X534360Y334200D02*
X527360Y334200D01*
X527360Y341200D01*
X534360Y341200D01*
X534360Y334200D01*
X534360Y337050D02*
X527360Y337050D01*
X527360Y339900D02*
X534360Y339900D01*
X534360Y316660D02*
X527360Y316660D01*
X527360Y323660D01*
X534360Y323660D01*
X534360Y316660D01*
X534360Y319510D02*
X527360Y319510D01*
X527360Y322360D02*
X534360Y322360D01*
D15*
X629160Y377580D03*
X637160Y377580D03*
X645160Y377580D03*
X653160Y377580D03*
X661160Y377580D03*
D16*
X661660Y386080D03*
D15*
X661160Y394580D03*
X653160Y394580D03*
X645160Y394580D03*
X637160Y394580D03*
X629160Y394580D03*
D16*
X628660Y386080D03*
D10*
X891540Y429650D03*
X891540Y446650D03*
X916940Y429650D03*
X916940Y446650D03*
D11*
X791290Y414080D03*
X791290Y358080D03*
D12*
X828040Y401080D03*
X828040Y391080D03*
X828040Y381080D03*
X828040Y371080D03*
D10*
X955040Y394580D03*
X955040Y377580D03*
D11*
X1017190Y358080D03*
X1017190Y414080D03*
D12*
X980440Y371080D03*
X980440Y381080D03*
X980440Y391080D03*
X980440Y401080D03*
D10*
X857250Y377580D03*
X857250Y394580D03*
D13*
X875420Y347980D03*
X892420Y347980D03*
X917330Y347980D03*
X934330Y347980D03*
D10*
X807720Y321700D03*
X807720Y338700D03*
D14*
X793440Y334200D02*
X786440Y334200D01*
X786440Y341200D01*
X793440Y341200D01*
X793440Y334200D01*
X793440Y337050D02*
X786440Y337050D01*
X786440Y339900D02*
X793440Y339900D01*
X793440Y316660D02*
X786440Y316660D01*
X786440Y323660D01*
X793440Y323660D01*
X793440Y316660D01*
X793440Y319510D02*
X786440Y319510D01*
X786440Y322360D02*
X793440Y322360D01*
D15*
X888240Y377580D03*
X896240Y377580D03*
X904240Y377580D03*
X912240Y377580D03*
X920240Y377580D03*
D16*
X920740Y386080D03*
D15*
X920240Y394580D03*
X912240Y394580D03*
X904240Y394580D03*
X896240Y394580D03*
X888240Y394580D03*
D16*
X887740Y386080D03*
D10*
X1150620Y429650D03*
X1150620Y446650D03*
X1176020Y429650D03*
X1176020Y446650D03*
D11*
X1050370Y414080D03*
X1050370Y358080D03*
D12*
X1087120Y401080D03*
X1087120Y391080D03*
X1087120Y381080D03*
X1087120Y371080D03*
D10*
X1214120Y394580D03*
X1214120Y377580D03*
D11*
X1276270Y358080D03*
X1276270Y414080D03*
D12*
X1239520Y371080D03*
X1239520Y381080D03*
X1239520Y391080D03*
X1239520Y401080D03*
D10*
X1116330Y377580D03*
X1116330Y394580D03*
D13*
X1134500Y347980D03*
X1151500Y347980D03*
X1176410Y347980D03*
X1193410Y347980D03*
D10*
X1066800Y321700D03*
X1066800Y338700D03*
D14*
X1052520Y334200D02*
X1045520Y334200D01*
X1045520Y341200D01*
X1052520Y341200D01*
X1052520Y334200D01*
X1052520Y337050D02*
X1045520Y337050D01*
X1045520Y339900D02*
X1052520Y339900D01*
X1052520Y316660D02*
X1045520Y316660D01*
X1045520Y323660D01*
X1052520Y323660D01*
X1052520Y316660D01*
X1052520Y319510D02*
X1045520Y319510D01*
X1045520Y322360D02*
X1052520Y322360D01*
D15*
X1147320Y377580D03*
X1155320Y377580D03*
X1163320Y377580D03*
X1171320Y377580D03*
X1179320Y377580D03*
D16*
X1179820Y386080D03*
D15*
X1179320Y394580D03*
X1171320Y394580D03*
X1163320Y394580D03*
X1155320Y394580D03*
X1147320Y394580D03*
D16*
X1146820Y386080D03*
D10*
X1409700Y429650D03*
X1409700Y446650D03*
X1435100Y429650D03*
X1435100Y446650D03*
D11*
X1309450Y414080D03*
X1309450Y358080D03*
D12*
X1346200Y401080D03*
X1346200Y391080D03*
X1346200Y381080D03*
X1346200Y371080D03*
D10*
X1473200Y394580D03*
X1473200Y377580D03*
D11*
X1535350Y358080D03*
X1535350Y414080D03*
D12*
X1498600Y371080D03*
X1498600Y381080D03*
X1498600Y391080D03*
X1498600Y401080D03*
D10*
X1375410Y377580D03*
X1375410Y394580D03*
D13*
X1393580Y347980D03*
X1410580Y347980D03*
X1435490Y347980D03*
X1452490Y347980D03*
D10*
X1325880Y321700D03*
X1325880Y338700D03*
D14*
X1311600Y334200D02*
X1304600Y334200D01*
X1304600Y341200D01*
X1311600Y341200D01*
X1311600Y334200D01*
X1311600Y337050D02*
X1304600Y337050D01*
X1304600Y339900D02*
X1311600Y339900D01*
X1311600Y316660D02*
X1304600Y316660D01*
X1304600Y323660D01*
X1311600Y323660D01*
X1311600Y316660D01*
X1311600Y319510D02*
X1304600Y319510D01*
X1304600Y322360D02*
X1311600Y322360D01*
D15*
X1406400Y377580D03*
X1414400Y377580D03*
X1422400Y377580D03*
X1430400Y377580D03*
X1438400Y377580D03*
D16*
X1438900Y386080D03*
D15*
X1438400Y394580D03*
X1430400Y394580D03*
X1422400Y394580D03*
X1414400Y394580D03*
X1406400Y394580D03*
D16*
X1405900Y386080D03*
D10*
X114300Y688730D03*
X114300Y705730D03*
X139700Y688730D03*
X139700Y705730D03*
D11*
X14050Y673160D03*
X14050Y617160D03*
D12*
X50800Y660160D03*
X50800Y650160D03*
X50800Y640160D03*
X50800Y630160D03*
D10*
X177800Y653660D03*
X177800Y636660D03*
D11*
X239950Y617160D03*
X239950Y673160D03*
D12*
X203200Y630160D03*
X203200Y640160D03*
X203200Y650160D03*
X203200Y660160D03*
D10*
X80010Y636660D03*
X80010Y653660D03*
D13*
X98180Y607060D03*
X115180Y607060D03*
X140090Y607060D03*
X157090Y607060D03*
D10*
X30480Y580780D03*
X30480Y597780D03*
D14*
X16200Y593280D02*
X9200Y593280D01*
X9200Y600280D01*
X16200Y600280D01*
X16200Y593280D01*
X16200Y596130D02*
X9200Y596130D01*
X9200Y598980D02*
X16200Y598980D01*
X16200Y575740D02*
X9200Y575740D01*
X9200Y582740D01*
X16200Y582740D01*
X16200Y575740D01*
X16200Y578590D02*
X9200Y578590D01*
X9200Y581440D02*
X16200Y581440D01*
D15*
X111000Y636660D03*
X119000Y636660D03*
X127000Y636660D03*
X135000Y636660D03*
X143000Y636660D03*
D16*
X143500Y645160D03*
D15*
X143000Y653660D03*
X135000Y653660D03*
X127000Y653660D03*
X119000Y653660D03*
X111000Y653660D03*
D16*
X110500Y645160D03*
D10*
X373380Y688730D03*
X373380Y705730D03*
X398780Y688730D03*
X398780Y705730D03*
D11*
X273130Y673160D03*
X273130Y617160D03*
D12*
X309880Y660160D03*
X309880Y650160D03*
X309880Y640160D03*
X309880Y630160D03*
D10*
X436880Y653660D03*
X436880Y636660D03*
D11*
X499030Y617160D03*
X499030Y673160D03*
D12*
X462280Y630160D03*
X462280Y640160D03*
X462280Y650160D03*
X462280Y660160D03*
D10*
X339090Y636660D03*
X339090Y653660D03*
D13*
X357260Y607060D03*
X374260Y607060D03*
X399170Y607060D03*
X416170Y607060D03*
D10*
X289560Y580780D03*
X289560Y597780D03*
D14*
X275280Y593280D02*
X268280Y593280D01*
X268280Y600280D01*
X275280Y600280D01*
X275280Y593280D01*
X275280Y596130D02*
X268280Y596130D01*
X268280Y598980D02*
X275280Y598980D01*
X275280Y575740D02*
X268280Y575740D01*
X268280Y582740D01*
X275280Y582740D01*
X275280Y575740D01*
X275280Y578590D02*
X268280Y578590D01*
X268280Y581440D02*
X275280Y581440D01*
D15*
X370080Y636660D03*
X378080Y636660D03*
X386080Y636660D03*
X394080Y636660D03*
X402080Y636660D03*
D16*
X402580Y645160D03*
D15*
X402080Y653660D03*
X394080Y653660D03*
X386080Y653660D03*
X378080Y653660D03*
X370080Y653660D03*
D16*
X369580Y645160D03*
D10*
X632460Y688730D03*
X632460Y705730D03*
X657860Y688730D03*
X657860Y705730D03*
D11*
X532210Y673160D03*
X532210Y617160D03*
D12*
X568960Y660160D03*
X568960Y650160D03*
X568960Y640160D03*
X568960Y630160D03*
D10*
X695960Y653660D03*
X695960Y636660D03*
D11*
X758110Y617160D03*
X758110Y673160D03*
D12*
X721360Y630160D03*
X721360Y640160D03*
X721360Y650160D03*
X721360Y660160D03*
D10*
X598170Y636660D03*
X598170Y653660D03*
D13*
X616340Y607060D03*
X633340Y607060D03*
X658250Y607060D03*
X675250Y607060D03*
D10*
X548640Y580780D03*
X548640Y597780D03*
D14*
X534360Y593280D02*
X527360Y593280D01*
X527360Y600280D01*
X534360Y600280D01*
X534360Y593280D01*
X534360Y596130D02*
X527360Y596130D01*
X527360Y598980D02*
X534360Y598980D01*
X534360Y575740D02*
X527360Y575740D01*
X527360Y582740D01*
X534360Y582740D01*
X534360Y575740D01*
X534360Y578590D02*
X527360Y578590D01*
X527360Y581440D02*
X534360Y581440D01*
D15*
X629160Y636660D03*
X637160Y636660D03*
X645160Y636660D03*
X653160Y636660D03*
X661160Y636660D03*
D16*
X661660Y645160D03*
D15*
X661160Y653660D03*
X653160Y653660D03*
X645160Y653660D03*
X637160Y653660D03*
X629160Y653660D03*
D16*
X628660Y645160D03*
D10*
X891540Y688730D03*
X891540Y705730D03*
X916940Y688730D03*
X916940Y705730D03*
D11*
X791290Y673160D03*
X791290Y617160D03*
D12*
X828040Y660160D03*
X828040Y650160D03*
X828040Y640160D03*
X828040Y630160D03*
D10*
X955040Y653660D03*
X955040Y636660D03*
D11*
X1017190Y617160D03*
X1017190Y673160D03*
D12*
X980440Y630160D03*
X980440Y640160D03*
X980440Y650160D03*
X980440Y660160D03*
D10*
X857250Y636660D03*
X857250Y653660D03*
D13*
X875420Y607060D03*
X892420Y607060D03*
X917330Y607060D03*
X934330Y607060D03*
D10*
X807720Y580780D03*
X807720Y597780D03*
D14*
X793440Y593280D02*
X786440Y593280D01*
X786440Y600280D01*
X793440Y600280D01*
X793440Y593280D01*
X793440Y596130D02*
X786440Y596130D01*
X786440Y598980D02*
X793440Y598980D01*
X793440Y575740D02*
X786440Y575740D01*
X786440Y582740D01*
X793440Y582740D01*
X793440Y575740D01*
X793440Y578590D02*
X786440Y578590D01*
X786440Y581440D02*
X793440Y581440D01*
D15*
X888240Y636660D03*
X896240Y636660D03*
X904240Y636660D03*
X912240Y636660D03*
X920240Y636660D03*
D16*
X920740Y645160D03*
D15*
X920240Y653660D03*
X912240Y653660D03*
X904240Y653660D03*
X896240Y653660D03*
X888240Y653660D03*
D16*
X887740Y645160D03*
D10*
X1150620Y688730D03*
X1150620Y705730D03*
X1176020Y688730D03*
X1176020Y705730D03*
D11*
X1050370Y673160D03*
X1050370Y617160D03*
D12*
X1087120Y660160D03*
X1087120Y650160D03*
X1087120Y640160D03*
X1087120Y630160D03*
D10*
X1214120Y653660D03*
X1214120Y636660D03*
D11*
X1276270Y617160D03*
X1276270Y673160D03*
D12*
X1239520Y630160D03*
X1239520Y640160D03*
X1239520Y650160D03*
X1239520Y660160D03*
D10*
X1116330Y636660D03*
X1116330Y653660D03*
D13*
X1134500Y607060D03*
X1151500Y607060D03*
X1176410Y607060D03*
X1193410Y607060D03*
D10*
X1066800Y580780D03*
X1066800Y597780D03*
D14*
X1052520Y593280D02*
X1045520Y593280D01*
X1045520Y600280D01*
X1052520Y600280D01*
X1052520Y593280D01*
X1052520Y596130D02*
X1045520Y596130D01*
X1045520Y598980D02*
X1052520Y598980D01*
X1052520Y575740D02*
X1045520Y575740D01*
X1045520Y582740D01*
X1052520Y582740D01*
X1052520Y575740D01*
X1052520Y578590D02*
X1045520Y578590D01*
X1045520Y581440D02*
X1052520Y581440D01*
D15*
X1147320Y636660D03*
X1155320Y636660D03*
X1163320Y636660D03*
X1171320Y636660D03*
X1179320Y636660D03*
D16*
X1179820Y645160D03*
D15*
X1179320Y653660D03*
X1171320Y653660D03*
X1163320Y653660D03*
X1155320Y653660D03*
X1147320Y653660D03*
D16*
X1146820Y645160D03*
D10*
X1409700Y688730D03*
X1409700Y705730D03*
X1435100Y688730D03*
X1435100Y705730D03*
D11*
X1309450Y673160D03*
X1309450Y617160D03*
D12*
X1346200Y660160D03*
X1346200Y650160D03*
X1346200Y640160D03*
X1346200Y630160D03*
D10*
X1473200Y653660D03*
X1473200Y636660D03*
D11*
X1535350Y617160D03*
X1535350Y673160D03*
D12*
X1498600Y630160D03*
X1498600Y640160D03*
X1498600Y650160D03*
X1498600Y660160D03*
D10*
X1375410Y636660D03*
X1375410Y653660D03*
D13*
X1393580Y607060D03*
X1410580Y607060D03*
X1435490Y607060D03*
X1452490Y607060D03*
D10*
X1325880Y580780D03*
X1325880Y597780D03*
D14*
X1311600Y593280D02*
X1304600Y593280D01*
X1304600Y600280D01*
X1311600Y600280D01*
X1311600Y593280D01*
X1311600Y596130D02*
X1304600Y596130D01*
X1304600Y598980D02*
X1311600Y598980D01*
X1311600Y575740D02*
X1304600Y575740D01*
X1304600Y582740D01*
X1311600Y582740D01*
X1311600Y575740D01*
X1311600Y578590D02*
X1304600Y578590D01*
X1304600Y581440D02*
X1311600Y581440D01*
D15*
X1406400Y636660D03*
X1414400Y636660D03*
X1422400Y636660D03*
X1430400Y636660D03*
X1438400Y636660D03*
D16*
X1438900Y645160D03*
D15*
X1438400Y653660D03*
X1430400Y653660D03*
X1422400Y653660D03*
X1414400Y653660D03*
X1406400Y653660D03*
D16*
X1405900Y645160D03*
D10*
X114300Y947810D03*
X114300Y964810D03*
X139700Y947810D03*
X139700Y964810D03*
D11*
X14050Y932240D03*
X14050Y876240D03*
D12*
X50800Y919240D03*
X50800Y909240D03*
X50800Y899240D03*
X50800Y889240D03*
D10*
X177800Y912740D03*
X177800Y895740D03*
D11*
X239950Y876240D03*
X239950Y932240D03*
D12*
X203200Y889240D03*
X203200Y899240D03*
X203200Y909240D03*
X203200Y919240D03*
D10*
X80010Y895740D03*
X80010Y912740D03*
D13*
X98180Y866140D03*
X115180Y866140D03*
X140090Y866140D03*
X157090Y866140D03*
D10*
X30480Y839860D03*
X30480Y856860D03*
D14*
X16200Y852360D02*
X9200Y852360D01*
X9200Y859360D01*
X16200Y859360D01*
X16200Y852360D01*
X16200Y855210D02*
X9200Y855210D01*
X9200Y858060D02*
X16200Y858060D01*
X16200Y834820D02*
X9200Y834820D01*
X9200Y841820D01*
X16200Y841820D01*
X16200Y834820D01*
X16200Y837670D02*
X9200Y837670D01*
X9200Y840520D02*
X16200Y840520D01*
D15*
X111000Y895740D03*
X119000Y895740D03*
X127000Y895740D03*
X135000Y895740D03*
X143000Y895740D03*
D16*
X143500Y904240D03*
D15*
X143000Y912740D03*
X135000Y912740D03*
X127000Y912740D03*
X119000Y912740D03*
X111000Y912740D03*
D16*
X110500Y904240D03*
D10*
X373380Y947810D03*
X373380Y964810D03*
X398780Y947810D03*
X398780Y964810D03*
D11*
X273130Y932240D03*
X273130Y876240D03*
D12*
X309880Y919240D03*
X309880Y909240D03*
X309880Y899240D03*
X309880Y889240D03*
D10*
X436880Y912740D03*
X436880Y895740D03*
D11*
X499030Y876240D03*
X499030Y932240D03*
D12*
X462280Y889240D03*
X462280Y899240D03*
X462280Y909240D03*
X462280Y919240D03*
D10*
X339090Y895740D03*
X339090Y912740D03*
D13*
X357260Y866140D03*
X374260Y866140D03*
X399170Y866140D03*
X416170Y866140D03*
D10*
X289560Y839860D03*
X289560Y856860D03*
D14*
X275280Y852360D02*
X268280Y852360D01*
X268280Y859360D01*
X275280Y859360D01*
X275280Y852360D01*
X275280Y855210D02*
X268280Y855210D01*
X268280Y858060D02*
X275280Y858060D01*
X275280Y834820D02*
X268280Y834820D01*
X268280Y841820D01*
X275280Y841820D01*
X275280Y834820D01*
X275280Y837670D02*
X268280Y837670D01*
X268280Y840520D02*
X275280Y840520D01*
D15*
X370080Y895740D03*
X378080Y895740D03*
X386080Y895740D03*
X394080Y895740D03*
X402080Y895740D03*
D16*
X402580Y904240D03*
D15*
X402080Y912740D03*
X394080Y912740D03*
X386080Y912740D03*
X378080Y912740D03*
X370080Y912740D03*
D16*
X369580Y904240D03*
D10*
X632460Y947810D03*
X632460Y964810D03*
X657860Y947810D03*
X657860Y964810D03*
D11*
X532210Y932240D03*
X532210Y876240D03*
D12*
X568960Y919240D03*
X568960Y909240D03*
X568960Y899240D03*
X568960Y889240D03*
D10*
X695960Y912740D03*
X695960Y895740D03*
D11*
X758110Y876240D03*
X758110Y932240D03*
D12*
X721360Y889240D03*
X721360Y899240D03*
X721360Y909240D03*
X721360Y919240D03*
D10*
X598170Y895740D03*
X598170Y912740D03*
D13*
X616340Y866140D03*
X633340Y866140D03*
X658250Y866140D03*
X675250Y866140D03*
D10*
X548640Y839860D03*
X548640Y856860D03*
D14*
X534360Y852360D02*
X527360Y852360D01*
X527360Y859360D01*
X534360Y859360D01*
X534360Y852360D01*
X534360Y855210D02*
X527360Y855210D01*
X527360Y858060D02*
X534360Y858060D01*
X534360Y834820D02*
X527360Y834820D01*
X527360Y841820D01*
X534360Y841820D01*
X534360Y834820D01*
X534360Y837670D02*
X527360Y837670D01*
X527360Y840520D02*
X534360Y840520D01*
D15*
X629160Y895740D03*
X637160Y895740D03*
X645160Y895740D03*
X653160Y895740D03*
X661160Y895740D03*
D16*
X661660Y904240D03*
D15*
X661160Y912740D03*
X653160Y912740D03*
X645160Y912740D03*
X637160Y912740D03*
X629160Y912740D03*
D16*
X628660Y904240D03*
D10*
X891540Y947810D03*
X891540Y964810D03*
X916940Y947810D03*
X916940Y964810D03*
D11*
X791290Y932240D03*
X791290Y876240D03*
D12*
X828040Y919240D03*
X828040Y909240D03*
X828040Y899240D03*
X828040Y889240D03*
D10*
X955040Y912740D03*
X955040Y895740D03*
D11*
X1017190Y876240D03*
X1017190Y932240D03*
D12*
X980440Y889240D03*
X980440Y899240D03*
X980440Y909240D03*
X980440Y919240D03*
D10*
X857250Y895740D03*
X857250Y912740D03*
D13*
X875420Y866140D03*
X892420Y866140D03*
X917330Y866140D03*
X934330Y866140D03*
D10*
X807720Y839860D03*
X807720Y856860D03*
D14*
X793440Y852360D02*
X786440Y852360D01*
X786440Y859360D01*
X793440Y859360D01*
X793440Y852360D01*
X793440Y855210D02*
X786440Y855210D01*
X786440Y858060D02*
X793440Y858060D01*
X793440Y834820D02*
X786440Y834820D01*
X786440Y841820D01*
X793440Y841820D01*
X793440Y834820D01*
X793440Y837670D02*
X786440Y837670D01*
X786440Y840520D02*
X793440Y840520D01*
D15*
X888240Y895740D03*
X896240Y895740D03*
X904240Y895740D03*
X912240Y895740D03*
X920240Y895740D03*
D16*
X920740Y904240D03*
D15*
X920240Y912740D03*
X912240Y912740D03*
X904240Y912740D03*
X896240Y912740D03*
X888240Y912740D03*
D16*
X887740Y904240D03*
D10*
X1150620Y947810D03*
X1150620Y964810D03*
X1176020Y947810D03*
X1176020Y964810D03*
D11*
X1050370Y932240D03*
X1050370Y876240D03*
D12*
X1087120Y919240D03*
X1087120Y909240D03*
X1087120Y899240D03*
X1087120Y889240D03*
D10*
X1214120Y912740D03*
X1214120Y895740D03*
D11*
X1276270Y876240D03*
X1276270Y932240D03*
D12*
X1239520Y889240D03*
X1239520Y899240D03*
X1239520Y909240D03*
X1239520Y919240D03*
D10*
X1116330Y895740D03*
X1116330Y912740D03*
D13*
X1134500Y866140D03*
X1151500Y866140D03*
X1176410Y866140D03*
X1193410Y866140D03*
D10*
X1066800Y839860D03*
X1066800Y856860D03*
D14*
X1052520Y852360D02*
X1045520Y852360D01*
X1045520Y859360D01*
X1052520Y859360D01*
X1052520Y852360D01*
X1052520Y855210D02*
X1045520Y855210D01*
X1045520Y858060D02*
X1052520Y858060D01*
X1052520Y834820D02*
X1045520Y834820D01*
X1045520Y841820D01*
X1052520Y841820D01*
X1052520Y834820D01*
X1052520Y837670D02*
X1045520Y837670D01*
X1045520Y840520D02*
X1052520Y840520D01*
D15*
X1147320Y895740D03*
X1155320Y895740D03*
X1163320Y895740D03*
X1171320Y895740D03*
X1179320Y895740D03*
D16*
X1179820Y904240D03*
D15*
X1179320Y912740D03*
X1171320Y912740D03*
X1163320Y912740D03*
X1155320Y912740D03*
X1147320Y912740D03*
D16*
X1146820Y904240D03*
D10*
X1409700Y947810D03*
X1409700Y964810D03*
X1435100Y947810D03*
X1435100Y964810D03*
D11*
X1309450Y932240D03*
X1309450Y876240D03*
D12*
X1346200Y919240D03*
X1346200Y909240D03*
X1346200Y899240D03*
X1346200Y889240D03*
D10*
X1473200Y912740D03*
X1473200Y895740D03*
D11*
X1535350Y876240D03*
X1535350Y932240D03*
D12*
X1498600Y889240D03*
X1498600Y899240D03*
X1498600Y909240D03*
X1498600Y919240D03*
D10*
X1375410Y895740D03*
X1375410Y912740D03*
D13*
X1393580Y866140D03*
X1410580Y866140D03*
X1435490Y866140D03*
X1452490Y866140D03*
D10*
X1325880Y839860D03*
X1325880Y856860D03*
D14*
X1311600Y852360D02*
X1304600Y852360D01*
X1304600Y859360D01*
X1311600Y859360D01*
X1311600Y852360D01*
X1311600Y855210D02*
X1304600Y855210D01*
X1304600Y858060D02*
X1311600Y858060D01*
X1311600Y834820D02*
X1304600Y834820D01*
X1304600Y841820D01*
X1311600Y841820D01*
X1311600Y834820D01*
X1311600Y837670D02*
X1304600Y837670D01*
X1304600Y840520D02*
X1311600Y840520D01*
D15*
X1406400Y895740D03*
X1414400Y895740D03*
X1422400Y895740D03*
X1430400Y895740D03*
X1438400Y895740D03*
D16*
X1438900Y904240D03*
D15*
X1438400Y912740D03*
X1430400Y912740D03*
X1422400Y912740D03*
X1414400Y912740D03*
X1406400Y912740D03*
D16*
X1405900Y904240D03*
M02*
