M48
;GenerationSoftware,Autodesk,EAGLE,9.5.1*%
;CreationDate,2021-11-16T16:43:38Z*%
FMAT,2
ICI,OFF
METRIC,TZ,000.000
T3C0.305
T2C1.016
T1C3.302
%
G90
M71
T1
X28448Y48768
X132080Y80264
X2540Y22860
X22860Y22860
X2540Y2540
X22860Y2540
X28448Y22860
X48768Y22860
X28448Y2540
X48768Y2540
X54356Y22860
X74676Y22860
X54356Y2540
X74676Y2540
X80264Y22860
X100584Y22860
X80264Y2540
X100584Y2540
X106172Y22860
X126492Y22860
X106172Y2540
X126492Y2540
X132080Y22860
X152400Y22860
X132080Y2540
X152400Y2540
X2540Y48768
X22860Y48768
X2540Y28448
X22860Y28448
X54356Y54356
X48768Y48768
X28448Y28448
X48768Y28448
X54356Y48768
X74676Y48768
X54356Y28448
X74676Y28448
X80264Y48768
X100584Y48768
X80264Y28448
X100584Y28448
X106172Y48768
X126492Y48768
X106172Y28448
X126492Y28448
X132080Y48768
X152400Y48768
X132080Y28448
X152400Y28448
X2540Y74676
X22860Y74676
X2540Y54356
X22860Y54356
X28448Y74676
X48768Y74676
X28448Y54356
X48768Y54356
X54356Y74676
X74676Y74676
X152400Y80264
X74676Y54356
X80264Y74676
X100584Y74676
X80264Y54356
X100584Y54356
X106172Y74676
X126492Y74676
X106172Y54356
X126492Y54356
X132080Y74676
X152400Y74676
X132080Y54356
X152400Y54356
X2540Y100584
X22860Y100584
X2540Y80264
X22860Y80264
X28448Y100584
X48768Y100584
X28448Y80264
X48768Y80264
X54356Y100584
X74676Y100584
X54356Y80264
X74676Y80264
X80264Y100584
X100584Y100584
X80264Y80264
X100584Y80264
X106172Y100584
X126492Y100584
X106172Y80264
X126492Y80264
X132080Y100584
X152400Y100584
T2
X19050Y1270
X148590Y78994
X6350Y1270
X8890Y1270
X11430Y1270
X13970Y1270
X16510Y1270
X32258Y1270
X34798Y1270
X37338Y1270
X39878Y1270
X42418Y1270
X44958Y1270
X58166Y1270
X60706Y1270
X63246Y1270
X65786Y1270
X68326Y1270
X70866Y1270
X84074Y1270
X86614Y1270
X89154Y1270
X91694Y1270
X94234Y1270
X96774Y1270
X109982Y1270
X112522Y1270
X115062Y1270
X117602Y1270
X120142Y1270
X122682Y1270
X135890Y1270
X138430Y1270
X140970Y1270
X143510Y1270
X146050Y1270
X148590Y1270
X6350Y27178
X8890Y27178
X11430Y27178
X13970Y27178
X16510Y27178
X19050Y27178
X32258Y27178
X34798Y27178
X37338Y27178
X39878Y27178
X42418Y27178
X44958Y27178
X58166Y27178
X60706Y27178
X63246Y27178
X65786Y27178
X68326Y27178
X70866Y27178
X84074Y27178
X86614Y27178
X89154Y27178
X91694Y27178
X94234Y27178
X96774Y27178
X109982Y27178
X112522Y27178
X115062Y27178
X117602Y27178
X120142Y27178
X122682Y27178
X135890Y27178
X138430Y27178
X140970Y27178
X143510Y27178
X146050Y27178
X148590Y27178
X6350Y53086
X8890Y53086
X11430Y53086
X13970Y53086
X16510Y53086
X19050Y53086
X32258Y53086
X34798Y53086
X37338Y53086
X39878Y53086
X42418Y53086
X44958Y53086
X58166Y53086
X60706Y53086
X63246Y53086
X65786Y53086
X68326Y53086
X70866Y53086
X84074Y53086
X86614Y53086
X89154Y53086
X91694Y53086
X94234Y53086
X96774Y53086
X109982Y53086
X112522Y53086
X115062Y53086
X117602Y53086
X120142Y53086
X122682Y53086
X135890Y53086
X138430Y53086
X140970Y53086
X143510Y53086
X146050Y53086
X148590Y53086
X6350Y78994
X8890Y78994
X11430Y78994
X13970Y78994
X16510Y78994
X19050Y78994
X32258Y78994
X34798Y78994
X37338Y78994
X39878Y78994
X42418Y78994
X44958Y78994
X58166Y78994
X60706Y78994
X63246Y78994
X65786Y78994
X68326Y78994
X70866Y78994
X84074Y78994
X86614Y78994
X89154Y78994
X91694Y78994
X94234Y78994
X96774Y78994
X109982Y78994
X112522Y78994
X115062Y78994
X117602Y78994
X120142Y78994
X122682Y78994
X135890Y78994
X138430Y78994
X140970Y78994
X143510Y78994
X146050Y78994
T3
X15621Y42164
X11811Y40513
X21781Y39053
X21844Y40767
X12700Y41529
X12700Y40538
X16510Y32385
X14859Y44704
X10414Y44704
X19050Y33528
X8001Y40513
X1270Y34798
X38608Y34798
X41148Y40640
X28956Y38100
X40208Y36576
X29591Y40132
X37846Y36576
X39243Y36576
X35433Y37846
X41910Y38608
X38227Y42164
X34671Y40386
X27940Y34671
X47244Y41529
X35560Y28956
X33909Y28956
X34290Y32004
X36195Y31242
X43688Y36576
X44958Y37084
X28829Y30861
X49911Y34417
X46101Y28702
X42799Y34798
X43561Y40640
X41529Y42164
X37719Y40513
X47688Y39053
X47752Y40767
X38608Y41529
X38608Y40538
X42418Y32385
X40767Y44704
X36322Y44704
X44958Y33528
X33909Y40513
X27178Y34798
X64516Y34798
X67056Y40640
X54864Y38100
X66116Y36576
X55499Y40132
X63754Y36576
X65151Y36576
X61341Y37846
X67818Y38608
X64135Y42164
X60579Y40386
X53848Y34671
X73152Y41529
X61468Y28956
X59817Y28956
X60198Y32004
X62103Y31242
X69596Y36576
X70866Y37084
X54737Y30861
X75819Y34417
X72009Y28702
X68707Y34798
X69469Y40640
X67437Y42164
X63627Y40513
X73597Y39053
X73660Y40767
X64516Y41529
X64516Y40538
X68326Y32385
X66675Y44704
X62230Y44704
X70866Y33528
X59817Y40513
X53086Y34798
X90424Y34798
X92964Y40640
X80772Y38100
X92024Y36576
X81407Y40132
X89662Y36576
X91059Y36576
X87249Y37846
X93726Y38608
X90043Y42164
X86487Y40386
X79756Y34671
X99060Y41529
X87376Y28956
X85725Y28956
X86106Y32004
X88011Y31242
X95504Y36576
X96774Y37084
X80645Y30861
X101727Y34417
X97917Y28702
X94615Y34798
X95377Y40640
X93345Y42164
X89535Y40513
X99504Y39053
X99568Y40767
X90424Y41529
X90424Y40538
X94234Y32385
X92583Y44704
X88138Y44704
X96774Y33528
X85725Y40513
X78994Y34798
X116332Y34798
X118872Y40640
X106680Y38100
X117932Y36576
X107315Y40132
X115570Y36576
X116967Y36576
X113157Y37846
X119634Y38608
X115951Y42164
X112395Y40386
X105664Y34671
X124968Y41529
X113284Y28956
X111633Y28956
X112014Y32004
X113919Y31242
X121412Y36576
X122682Y37084
X106553Y30861
X127635Y34417
X123825Y28702
X120523Y34798
X121285Y40640
X119253Y42164
X115443Y40513
X125412Y39053
X125476Y40767
X116332Y41529
X116332Y40538
X120142Y32385
X118491Y44704
X114046Y44704
X122682Y33528
X111633Y40513
X104902Y34798
X142240Y34798
X144780Y40640
X132588Y38100
X143840Y36576
X133223Y40132
X141478Y36576
X142875Y36576
X139065Y37846
X145542Y38608
X141859Y42164
X138303Y40386
X131572Y34671
X150876Y41529
X139192Y28956
X137541Y28956
X137922Y32004
X139827Y31242
X147320Y36576
X148590Y37084
X132461Y30861
X153543Y34417
X149733Y28702
X146431Y34798
X147193Y40640
X145161Y42164
X141351Y40513
X151321Y39053
X151384Y40767
X142240Y41529
X142240Y40538
X146050Y32385
X144399Y44704
X139954Y44704
X148590Y33528
X137541Y40513
X130810Y34798
X12700Y60706
X15240Y66548
X3048Y64008
X14300Y62484
X3683Y66040
X11938Y62484
X13335Y62484
X9525Y63754
X16002Y64516
X12319Y68072
X8763Y66294
X2032Y60579
X21336Y67437
X9652Y54864
X8001Y54864
X8382Y57912
X10287Y57150
X17780Y62484
X19050Y62992
X2921Y56769
X24003Y60325
X20193Y54610
X16891Y60706
X17653Y66548
X15621Y68072
X11811Y66421
X21781Y64960
X21844Y66675
X12700Y67437
X12700Y66446
X16510Y58293
X14859Y70612
X10414Y70612
X19050Y59436
X8001Y66421
X1270Y60706
X38608Y60706
X41148Y66548
X28956Y64008
X40208Y62484
X29591Y66040
X37846Y62484
X39243Y62484
X35433Y63754
X41910Y64516
X38227Y68072
X34671Y66294
X27940Y60579
X47244Y67437
X35560Y54864
X33909Y54864
X34290Y57912
X36195Y57150
X43688Y62484
X44958Y62992
X28829Y56769
X49911Y60325
X46101Y54610
X42799Y60706
X43561Y66548
X41529Y68072
X37719Y66421
X47688Y64960
X47752Y66675
X38608Y67437
X38608Y66446
X42418Y58293
X40767Y70612
X36322Y70612
X44958Y59436
X33909Y66421
X27178Y60706
X64516Y60706
X67056Y66548
X54864Y64008
X66116Y62484
X55499Y66040
X63754Y62484
X65151Y62484
X61341Y63754
X67818Y64516
X64135Y68072
X60579Y66294
X53848Y60579
X73152Y67437
X61468Y54864
X59817Y54864
X60198Y57912
X62103Y57150
X69596Y62484
X70866Y62992
X54737Y56769
X75819Y60325
X72009Y54610
X68707Y60706
X69469Y66548
X67437Y68072
X63627Y66421
X73597Y64960
X73660Y66675
X64516Y67437
X64516Y66446
X68326Y58293
X66675Y70612
X62230Y70612
X70866Y59436
X59817Y66421
X53086Y60706
X90424Y60706
X92964Y66548
X80772Y64008
X92024Y62484
X81407Y66040
X89662Y62484
X91059Y62484
X87249Y63754
X93726Y64516
X90043Y68072
X86487Y66294
X79756Y60579
X94234Y6477
X87376Y54864
X85725Y54864
X86106Y57912
X88011Y57150
X95504Y62484
X96774Y62992
X80645Y56769
X101727Y60325
X97917Y54610
X94615Y60706
X95377Y66548
X93345Y68072
X89535Y66421
X99504Y64960
X99568Y66675
X90424Y67437
X90424Y66446
X94234Y58293
X92583Y70612
X88138Y70612
X96774Y59436
X85725Y66421
X78994Y60706
X116332Y60706
X118872Y66548
X106680Y64008
X117932Y62484
X107315Y66040
X115570Y62484
X116967Y62484
X113157Y63754
X119634Y64516
X115951Y68072
X112395Y66294
X105664Y60579
X124968Y67437
X113284Y54864
X111633Y54864
X112014Y57912
X113919Y57150
X121412Y62484
X122682Y62992
X106553Y56769
X127635Y60325
X123825Y54610
X120523Y60706
X121285Y66548
X119253Y68072
X115443Y66421
X125412Y64960
X125476Y66675
X116332Y67437
X116332Y66446
X120142Y58293
X118491Y70612
X114046Y70612
X122682Y59436
X111633Y66421
X104902Y60706
X142240Y60706
X144780Y66548
X132588Y64008
X143840Y62484
X133223Y66040
X141478Y62484
X142875Y62484
X139065Y63754
X145542Y64516
X141859Y68072
X138303Y66294
X131572Y60579
X150876Y67437
X139192Y54864
X137541Y54864
X137922Y57912
X139827Y57150
X147320Y62484
X148590Y62992
X132461Y56769
X153543Y60325
X149733Y54610
X146431Y60706
X147193Y66548
X145161Y68072
X141351Y66421
X151321Y64960
X151384Y66675
X142240Y67437
X142240Y66446
X146050Y58293
X144399Y70612
X139954Y70612
X148590Y59436
X137541Y66421
X130810Y60706
X12700Y86614
X15240Y92456
X3048Y89916
X14300Y88392
X3683Y91948
X11938Y88392
X13335Y88392
X9525Y89662
X16002Y90424
X12319Y93980
X8763Y92202
X2032Y86487
X21336Y93345
X9652Y80772
X8001Y80772
X8382Y83820
X10287Y83058
X17780Y88392
X19050Y88900
X2921Y82677
X24003Y86233
X20193Y80518
X16891Y86614
X17653Y92456
X15621Y93980
X11811Y92329
X21781Y90868
X21844Y92583
X12700Y93345
X12700Y92354
X16510Y84201
X14859Y96520
X10414Y96520
X19050Y85344
X8001Y92329
X1270Y86614
X38608Y86614
X41148Y92456
X28956Y89916
X40208Y88392
X29591Y91948
X37846Y88392
X39243Y88392
X35433Y89662
X41910Y90424
X38227Y93980
X34671Y92202
X27940Y86487
X47244Y93345
X35560Y80772
X33909Y80772
X34290Y83820
X36195Y83058
X43688Y88392
X44958Y88900
X28829Y82677
X49911Y86233
X46101Y80518
X42799Y86614
X43561Y92456
X41529Y93980
X37719Y92329
X47688Y90868
X47752Y92583
X38608Y93345
X38608Y92354
X42418Y84201
X40767Y96520
X36322Y96520
X44958Y85344
X33909Y92329
X27178Y86614
X64516Y86614
X67056Y92456
X54864Y89916
X66116Y88392
X55499Y91948
X63754Y88392
X65151Y88392
X61341Y89662
X67818Y90424
X64135Y93980
X60579Y92202
X53848Y86487
X73152Y93345
X61468Y80772
X59817Y80772
X60198Y83820
X62103Y83058
X69596Y88392
X70866Y88900
X54737Y82677
X75819Y86233
X72009Y80518
X68707Y86614
X69469Y92456
X67437Y93980
X63627Y92329
X73597Y90868
X73660Y92583
X64516Y93345
X64516Y92354
X68326Y84201
X66675Y96520
X62230Y96520
X70866Y85344
X59817Y92329
X53086Y86614
X90424Y86614
X92964Y92456
X80772Y89916
X92024Y88392
X81407Y91948
X89662Y88392
X91059Y88392
X87249Y89662
X93726Y90424
X90043Y93980
X86487Y92202
X79756Y86487
X99060Y93345
X87376Y80772
X85725Y80772
X86106Y83820
X88011Y83058
X95504Y88392
X96774Y88900
X80645Y82677
X101727Y86233
X97917Y80518
X94615Y86614
X95377Y92456
X93345Y93980
X89535Y92329
X99504Y90868
X99568Y92583
X90424Y93345
X90424Y92354
X94234Y84201
X92583Y96520
X88138Y96520
X96774Y85344
X85725Y92329
X78994Y86614
X116332Y86614
X118872Y92456
X106680Y89916
X117932Y88392
X107315Y91948
X115570Y88392
X116967Y88392
X113157Y89662
X119634Y90424
X115951Y93980
X112395Y92202
X105664Y86487
X124968Y93345
X113284Y80772
X111633Y80772
X112014Y83820
X113919Y83058
X121412Y88392
X122682Y88900
X106553Y82677
X127635Y86233
X123825Y80518
X120523Y86614
X121285Y92456
X119253Y93980
X115443Y92329
X125412Y90868
X125476Y92583
X116332Y93345
X116332Y92354
X120142Y84201
X118491Y96520
X114046Y96520
X122682Y85344
X111633Y92329
X12700Y8890
X142240Y86614
X144780Y92456
X132588Y89916
X143840Y88392
X133223Y91948
X141478Y88392
X142875Y88392
X139065Y89662
X145542Y90424
X141859Y93980
X138303Y92202
X131572Y86487
X150876Y93345
X139192Y80772
X137541Y80772
X137922Y83820
X139827Y83058
X147320Y88392
X148590Y88900
X132461Y82677
X153543Y86233
X149733Y80518
X146431Y86614
X147193Y92456
X145161Y93980
X141351Y92329
X151321Y90868
X151384Y92583
X142240Y93345
X142240Y92354
X146050Y84201
X144399Y96520
X139954Y96520
X148590Y85344
X137541Y92329
X130810Y86614
X15240Y14732
X3048Y12192
X14300Y10668
X3683Y14224
X11938Y10668
X13335Y10668
X9525Y11938
X16002Y12700
X12319Y16256
X8763Y14478
X2032Y8763
X21336Y15621
X9652Y3048
X8001Y3048
X8382Y6096
X10287Y5334
X17780Y10668
X19050Y11176
X2921Y4953
X24003Y8509
X20193Y2794
X16891Y8890
X17653Y14732
X15621Y16256
X11811Y14605
X21781Y13144
X21844Y14859
X12700Y15621
X12700Y14630
X16510Y6477
X14859Y18796
X10414Y18796
X19050Y7620
X8001Y14605
X1270Y8890
X38608Y8890
X41148Y14732
X28956Y12192
X40208Y10668
X29591Y14224
X37846Y10668
X39243Y10668
X35433Y11938
X41910Y12700
X38227Y16256
X34671Y14478
X27940Y8763
X47244Y15621
X35560Y3048
X33909Y3048
X34290Y6096
X36195Y5334
X43688Y10668
X44958Y11176
X28829Y4953
X49911Y8509
X46101Y2794
X42799Y8890
X43561Y14732
X41529Y16256
X37719Y14605
X47688Y13144
X47752Y14859
X38608Y15621
X38608Y14630
X42418Y6477
X40767Y18796
X36322Y18796
X44958Y7620
X33909Y14605
X27178Y8890
X64516Y8890
X67056Y14732
X54864Y12192
X66116Y10668
X55499Y14224
X63754Y10668
X65151Y10668
X61341Y11938
X67818Y12700
X64135Y16256
X60579Y14478
X53848Y8763
X73152Y15621
X61468Y3048
X59817Y3048
X60198Y6096
X62103Y5334
X69596Y10668
X70866Y11176
X54737Y4953
X75819Y8509
X72009Y2794
X68707Y8890
X69469Y14732
X67437Y16256
X63627Y14605
X73597Y13144
X73660Y14859
X64516Y15621
X64516Y14630
X99060Y67437
X68326Y6477
X66675Y18796
X62230Y18796
X70866Y7620
X59817Y14605
X53086Y8890
X90424Y8890
X92964Y14732
X80772Y12192
X92024Y10668
X81407Y14224
X89662Y10668
X91059Y10668
X87249Y11938
X93726Y12700
X90043Y16256
X86487Y14478
X79756Y8763
X99060Y15621
X87376Y3048
X85725Y3048
X86106Y6096
X88011Y5334
X95504Y10668
X96774Y11176
X80645Y4953
X101727Y8509
X97917Y2794
X94615Y8890
X95377Y14732
X93345Y16256
X89535Y14605
X99504Y13144
X99568Y14859
X90424Y15621
X90424Y14630
X92583Y18796
X88138Y18796
X96774Y7620
X85725Y14605
X78994Y8890
X116332Y8890
X118872Y14732
X106680Y12192
X117932Y10668
X107315Y14224
X115570Y10668
X116967Y10668
X113157Y11938
X119634Y12700
X115951Y16256
X112395Y14478
X105664Y8763
X124968Y15621
X113284Y3048
X111633Y3048
X112014Y6096
X113919Y5334
X121412Y10668
X122682Y11176
X106553Y4953
X127635Y8509
X123825Y2794
X120523Y8890
X121285Y14732
X119253Y16256
X115443Y14605
X125412Y13144
X125476Y14859
X116332Y15621
X116332Y14630
X120142Y6477
X118491Y18796
X114046Y18796
X122682Y7620
X111633Y14605
X104902Y8890
X142240Y8890
X144780Y14732
X132588Y12192
X143840Y10668
X133223Y14224
X141478Y10668
X142875Y10668
X139065Y11938
X145542Y12700
X141859Y16256
X138303Y14478
X131572Y8763
X150876Y15621
X139192Y3048
X137541Y3048
X137922Y6096
X139827Y5334
X147320Y10668
X148590Y11176
X132461Y4953
X153543Y8509
X149733Y2794
X146431Y8890
X147193Y14732
X145161Y16256
X141351Y14605
X151321Y13144
X151384Y14859
X142240Y15621
X142240Y14630
X146050Y6477
X144399Y18796
X139954Y18796
X148590Y7620
X137541Y14605
X130810Y8890
X12700Y34798
X15240Y40640
X3048Y38100
X14300Y36576
X3683Y40132
X11938Y36576
X13335Y36576
X9525Y37846
X16002Y38608
X12319Y42164
X8763Y40386
X2032Y34671
X21336Y41529
X9652Y28956
X8001Y28956
X8382Y32004
X10287Y31242
X17780Y36576
X19050Y37084
X2921Y30861
X24003Y34417
X20193Y28702
X16891Y34798
X17653Y40640
X104902Y86614
M30