G04 EAGLE Gerber RS-274X export*
G75*
%MOMM*%
%FSLAX34Y34*%
%LPD*%
%INSoldermask Bottom*%
%IPPOS*%
%AMOC8*
5,1,8,0,0,1.08239X$1,22.5*%
G01*
%ADD10C,3.505200*%
%ADD11R,0.863600X1.473200*%
%ADD12C,0.838200*%
%ADD13R,1.473200X0.863600*%
%ADD14C,2.082800*%
%ADD15C,1.203200*%
%ADD16C,1.270000*%
%ADD17C,1.703200*%

G36*
X81345Y901712D02*
X81345Y901712D01*
X81411Y901714D01*
X81454Y901732D01*
X81501Y901740D01*
X81558Y901774D01*
X81618Y901799D01*
X81653Y901830D01*
X81694Y901855D01*
X81736Y901906D01*
X81784Y901950D01*
X81806Y901992D01*
X81835Y902029D01*
X81856Y902091D01*
X81887Y902150D01*
X81895Y902204D01*
X81907Y902241D01*
X81906Y902281D01*
X81914Y902335D01*
X81914Y906145D01*
X81903Y906210D01*
X81901Y906276D01*
X81883Y906319D01*
X81875Y906366D01*
X81841Y906423D01*
X81816Y906483D01*
X81785Y906518D01*
X81760Y906559D01*
X81709Y906601D01*
X81665Y906649D01*
X81623Y906671D01*
X81586Y906700D01*
X81524Y906721D01*
X81465Y906752D01*
X81411Y906760D01*
X81374Y906772D01*
X81334Y906771D01*
X81280Y906779D01*
X78740Y906779D01*
X78675Y906768D01*
X78609Y906766D01*
X78566Y906748D01*
X78519Y906740D01*
X78462Y906706D01*
X78402Y906681D01*
X78367Y906650D01*
X78326Y906625D01*
X78285Y906574D01*
X78236Y906530D01*
X78214Y906488D01*
X78185Y906451D01*
X78164Y906389D01*
X78133Y906330D01*
X78125Y906276D01*
X78113Y906239D01*
X78113Y906235D01*
X78113Y906234D01*
X78114Y906199D01*
X78106Y906145D01*
X78106Y902335D01*
X78117Y902270D01*
X78119Y902204D01*
X78137Y902161D01*
X78145Y902114D01*
X78179Y902057D01*
X78204Y901997D01*
X78235Y901962D01*
X78260Y901921D01*
X78311Y901880D01*
X78355Y901831D01*
X78397Y901809D01*
X78434Y901780D01*
X78496Y901759D01*
X78555Y901728D01*
X78609Y901720D01*
X78646Y901708D01*
X78686Y901709D01*
X78740Y901701D01*
X81280Y901701D01*
X81345Y901712D01*
G37*
G36*
X599505Y124472D02*
X599505Y124472D01*
X599571Y124474D01*
X599614Y124492D01*
X599661Y124500D01*
X599718Y124534D01*
X599778Y124559D01*
X599813Y124590D01*
X599854Y124615D01*
X599896Y124666D01*
X599944Y124710D01*
X599966Y124752D01*
X599995Y124789D01*
X600016Y124851D01*
X600047Y124910D01*
X600055Y124964D01*
X600067Y125001D01*
X600066Y125041D01*
X600074Y125095D01*
X600074Y128905D01*
X600063Y128970D01*
X600061Y129036D01*
X600043Y129079D01*
X600035Y129126D01*
X600001Y129183D01*
X599976Y129243D01*
X599945Y129278D01*
X599920Y129319D01*
X599869Y129361D01*
X599825Y129409D01*
X599783Y129431D01*
X599746Y129460D01*
X599684Y129481D01*
X599625Y129512D01*
X599571Y129520D01*
X599534Y129532D01*
X599494Y129531D01*
X599440Y129539D01*
X596900Y129539D01*
X596835Y129528D01*
X596769Y129526D01*
X596726Y129508D01*
X596679Y129500D01*
X596622Y129466D01*
X596562Y129441D01*
X596527Y129410D01*
X596486Y129385D01*
X596445Y129334D01*
X596396Y129290D01*
X596374Y129248D01*
X596345Y129211D01*
X596324Y129149D01*
X596293Y129090D01*
X596285Y129036D01*
X596273Y128999D01*
X596273Y128995D01*
X596273Y128994D01*
X596274Y128959D01*
X596266Y128905D01*
X596266Y125095D01*
X596277Y125030D01*
X596279Y124964D01*
X596297Y124921D01*
X596305Y124874D01*
X596339Y124817D01*
X596364Y124757D01*
X596395Y124722D01*
X596420Y124681D01*
X596471Y124640D01*
X596515Y124591D01*
X596557Y124569D01*
X596594Y124540D01*
X596656Y124519D01*
X596715Y124488D01*
X596769Y124480D01*
X596806Y124468D01*
X596846Y124469D01*
X596900Y124461D01*
X599440Y124461D01*
X599505Y124472D01*
G37*
G36*
X340425Y642632D02*
X340425Y642632D01*
X340491Y642634D01*
X340534Y642652D01*
X340581Y642660D01*
X340638Y642694D01*
X340698Y642719D01*
X340733Y642750D01*
X340774Y642775D01*
X340816Y642826D01*
X340864Y642870D01*
X340886Y642912D01*
X340915Y642949D01*
X340936Y643011D01*
X340967Y643070D01*
X340975Y643124D01*
X340987Y643161D01*
X340986Y643201D01*
X340994Y643255D01*
X340994Y647065D01*
X340983Y647130D01*
X340981Y647196D01*
X340963Y647239D01*
X340955Y647286D01*
X340921Y647343D01*
X340896Y647403D01*
X340865Y647438D01*
X340840Y647479D01*
X340789Y647521D01*
X340745Y647569D01*
X340703Y647591D01*
X340666Y647620D01*
X340604Y647641D01*
X340545Y647672D01*
X340491Y647680D01*
X340454Y647692D01*
X340414Y647691D01*
X340360Y647699D01*
X337820Y647699D01*
X337755Y647688D01*
X337689Y647686D01*
X337646Y647668D01*
X337599Y647660D01*
X337542Y647626D01*
X337482Y647601D01*
X337447Y647570D01*
X337406Y647545D01*
X337365Y647494D01*
X337316Y647450D01*
X337294Y647408D01*
X337265Y647371D01*
X337244Y647309D01*
X337213Y647250D01*
X337205Y647196D01*
X337193Y647159D01*
X337193Y647155D01*
X337193Y647154D01*
X337194Y647119D01*
X337186Y647065D01*
X337186Y643255D01*
X337197Y643190D01*
X337199Y643124D01*
X337217Y643081D01*
X337225Y643034D01*
X337259Y642977D01*
X337284Y642917D01*
X337315Y642882D01*
X337340Y642841D01*
X337391Y642800D01*
X337435Y642751D01*
X337477Y642729D01*
X337514Y642700D01*
X337576Y642679D01*
X337635Y642648D01*
X337689Y642640D01*
X337726Y642628D01*
X337766Y642629D01*
X337820Y642621D01*
X340360Y642621D01*
X340425Y642632D01*
G37*
G36*
X81345Y642632D02*
X81345Y642632D01*
X81411Y642634D01*
X81454Y642652D01*
X81501Y642660D01*
X81558Y642694D01*
X81618Y642719D01*
X81653Y642750D01*
X81694Y642775D01*
X81736Y642826D01*
X81784Y642870D01*
X81806Y642912D01*
X81835Y642949D01*
X81856Y643011D01*
X81887Y643070D01*
X81895Y643124D01*
X81907Y643161D01*
X81906Y643201D01*
X81914Y643255D01*
X81914Y647065D01*
X81903Y647130D01*
X81901Y647196D01*
X81883Y647239D01*
X81875Y647286D01*
X81841Y647343D01*
X81816Y647403D01*
X81785Y647438D01*
X81760Y647479D01*
X81709Y647521D01*
X81665Y647569D01*
X81623Y647591D01*
X81586Y647620D01*
X81524Y647641D01*
X81465Y647672D01*
X81411Y647680D01*
X81374Y647692D01*
X81334Y647691D01*
X81280Y647699D01*
X78740Y647699D01*
X78675Y647688D01*
X78609Y647686D01*
X78566Y647668D01*
X78519Y647660D01*
X78462Y647626D01*
X78402Y647601D01*
X78367Y647570D01*
X78326Y647545D01*
X78285Y647494D01*
X78236Y647450D01*
X78214Y647408D01*
X78185Y647371D01*
X78164Y647309D01*
X78133Y647250D01*
X78125Y647196D01*
X78113Y647159D01*
X78113Y647155D01*
X78113Y647154D01*
X78114Y647119D01*
X78106Y647065D01*
X78106Y643255D01*
X78117Y643190D01*
X78119Y643124D01*
X78137Y643081D01*
X78145Y643034D01*
X78179Y642977D01*
X78204Y642917D01*
X78235Y642882D01*
X78260Y642841D01*
X78311Y642800D01*
X78355Y642751D01*
X78397Y642729D01*
X78434Y642700D01*
X78496Y642679D01*
X78555Y642648D01*
X78609Y642640D01*
X78646Y642628D01*
X78686Y642629D01*
X78740Y642621D01*
X81280Y642621D01*
X81345Y642632D01*
G37*
G36*
X1376745Y642632D02*
X1376745Y642632D01*
X1376811Y642634D01*
X1376854Y642652D01*
X1376901Y642660D01*
X1376958Y642694D01*
X1377018Y642719D01*
X1377053Y642750D01*
X1377094Y642775D01*
X1377136Y642826D01*
X1377184Y642870D01*
X1377206Y642912D01*
X1377235Y642949D01*
X1377256Y643011D01*
X1377287Y643070D01*
X1377295Y643124D01*
X1377307Y643161D01*
X1377306Y643201D01*
X1377314Y643255D01*
X1377314Y647065D01*
X1377303Y647130D01*
X1377301Y647196D01*
X1377283Y647239D01*
X1377275Y647286D01*
X1377241Y647343D01*
X1377216Y647403D01*
X1377185Y647438D01*
X1377160Y647479D01*
X1377109Y647521D01*
X1377065Y647569D01*
X1377023Y647591D01*
X1376986Y647620D01*
X1376924Y647641D01*
X1376865Y647672D01*
X1376811Y647680D01*
X1376774Y647692D01*
X1376734Y647691D01*
X1376680Y647699D01*
X1374140Y647699D01*
X1374075Y647688D01*
X1374009Y647686D01*
X1373966Y647668D01*
X1373919Y647660D01*
X1373862Y647626D01*
X1373802Y647601D01*
X1373767Y647570D01*
X1373726Y647545D01*
X1373685Y647494D01*
X1373636Y647450D01*
X1373614Y647408D01*
X1373585Y647371D01*
X1373564Y647309D01*
X1373533Y647250D01*
X1373525Y647196D01*
X1373513Y647159D01*
X1373513Y647155D01*
X1373513Y647154D01*
X1373514Y647119D01*
X1373506Y647065D01*
X1373506Y643255D01*
X1373517Y643190D01*
X1373519Y643124D01*
X1373537Y643081D01*
X1373545Y643034D01*
X1373579Y642977D01*
X1373604Y642917D01*
X1373635Y642882D01*
X1373660Y642841D01*
X1373711Y642800D01*
X1373755Y642751D01*
X1373797Y642729D01*
X1373834Y642700D01*
X1373896Y642679D01*
X1373955Y642648D01*
X1374009Y642640D01*
X1374046Y642628D01*
X1374086Y642629D01*
X1374140Y642621D01*
X1376680Y642621D01*
X1376745Y642632D01*
G37*
G36*
X1117665Y642632D02*
X1117665Y642632D01*
X1117731Y642634D01*
X1117774Y642652D01*
X1117821Y642660D01*
X1117878Y642694D01*
X1117938Y642719D01*
X1117973Y642750D01*
X1118014Y642775D01*
X1118056Y642826D01*
X1118104Y642870D01*
X1118126Y642912D01*
X1118155Y642949D01*
X1118176Y643011D01*
X1118207Y643070D01*
X1118215Y643124D01*
X1118227Y643161D01*
X1118226Y643201D01*
X1118234Y643255D01*
X1118234Y647065D01*
X1118223Y647130D01*
X1118221Y647196D01*
X1118203Y647239D01*
X1118195Y647286D01*
X1118161Y647343D01*
X1118136Y647403D01*
X1118105Y647438D01*
X1118080Y647479D01*
X1118029Y647521D01*
X1117985Y647569D01*
X1117943Y647591D01*
X1117906Y647620D01*
X1117844Y647641D01*
X1117785Y647672D01*
X1117731Y647680D01*
X1117694Y647692D01*
X1117654Y647691D01*
X1117600Y647699D01*
X1115060Y647699D01*
X1114995Y647688D01*
X1114929Y647686D01*
X1114886Y647668D01*
X1114839Y647660D01*
X1114782Y647626D01*
X1114722Y647601D01*
X1114687Y647570D01*
X1114646Y647545D01*
X1114605Y647494D01*
X1114556Y647450D01*
X1114534Y647408D01*
X1114505Y647371D01*
X1114484Y647309D01*
X1114453Y647250D01*
X1114445Y647196D01*
X1114433Y647159D01*
X1114433Y647155D01*
X1114433Y647154D01*
X1114434Y647119D01*
X1114426Y647065D01*
X1114426Y643255D01*
X1114437Y643190D01*
X1114439Y643124D01*
X1114457Y643081D01*
X1114465Y643034D01*
X1114499Y642977D01*
X1114524Y642917D01*
X1114555Y642882D01*
X1114580Y642841D01*
X1114631Y642800D01*
X1114675Y642751D01*
X1114717Y642729D01*
X1114754Y642700D01*
X1114816Y642679D01*
X1114875Y642648D01*
X1114929Y642640D01*
X1114966Y642628D01*
X1115006Y642629D01*
X1115060Y642621D01*
X1117600Y642621D01*
X1117665Y642632D01*
G37*
G36*
X599505Y642632D02*
X599505Y642632D01*
X599571Y642634D01*
X599614Y642652D01*
X599661Y642660D01*
X599718Y642694D01*
X599778Y642719D01*
X599813Y642750D01*
X599854Y642775D01*
X599896Y642826D01*
X599944Y642870D01*
X599966Y642912D01*
X599995Y642949D01*
X600016Y643011D01*
X600047Y643070D01*
X600055Y643124D01*
X600067Y643161D01*
X600066Y643201D01*
X600074Y643255D01*
X600074Y647065D01*
X600063Y647130D01*
X600061Y647196D01*
X600043Y647239D01*
X600035Y647286D01*
X600001Y647343D01*
X599976Y647403D01*
X599945Y647438D01*
X599920Y647479D01*
X599869Y647521D01*
X599825Y647569D01*
X599783Y647591D01*
X599746Y647620D01*
X599684Y647641D01*
X599625Y647672D01*
X599571Y647680D01*
X599534Y647692D01*
X599494Y647691D01*
X599440Y647699D01*
X596900Y647699D01*
X596835Y647688D01*
X596769Y647686D01*
X596726Y647668D01*
X596679Y647660D01*
X596622Y647626D01*
X596562Y647601D01*
X596527Y647570D01*
X596486Y647545D01*
X596445Y647494D01*
X596396Y647450D01*
X596374Y647408D01*
X596345Y647371D01*
X596324Y647309D01*
X596293Y647250D01*
X596285Y647196D01*
X596273Y647159D01*
X596273Y647155D01*
X596273Y647154D01*
X596274Y647119D01*
X596266Y647065D01*
X596266Y643255D01*
X596277Y643190D01*
X596279Y643124D01*
X596297Y643081D01*
X596305Y643034D01*
X596339Y642977D01*
X596364Y642917D01*
X596395Y642882D01*
X596420Y642841D01*
X596471Y642800D01*
X596515Y642751D01*
X596557Y642729D01*
X596594Y642700D01*
X596656Y642679D01*
X596715Y642648D01*
X596769Y642640D01*
X596806Y642628D01*
X596846Y642629D01*
X596900Y642621D01*
X599440Y642621D01*
X599505Y642632D01*
G37*
G36*
X81345Y124472D02*
X81345Y124472D01*
X81411Y124474D01*
X81454Y124492D01*
X81501Y124500D01*
X81558Y124534D01*
X81618Y124559D01*
X81653Y124590D01*
X81694Y124615D01*
X81736Y124666D01*
X81784Y124710D01*
X81806Y124752D01*
X81835Y124789D01*
X81856Y124851D01*
X81887Y124910D01*
X81895Y124964D01*
X81907Y125001D01*
X81906Y125041D01*
X81914Y125095D01*
X81914Y128905D01*
X81903Y128970D01*
X81901Y129036D01*
X81883Y129079D01*
X81875Y129126D01*
X81841Y129183D01*
X81816Y129243D01*
X81785Y129278D01*
X81760Y129319D01*
X81709Y129361D01*
X81665Y129409D01*
X81623Y129431D01*
X81586Y129460D01*
X81524Y129481D01*
X81465Y129512D01*
X81411Y129520D01*
X81374Y129532D01*
X81334Y129531D01*
X81280Y129539D01*
X78740Y129539D01*
X78675Y129528D01*
X78609Y129526D01*
X78566Y129508D01*
X78519Y129500D01*
X78462Y129466D01*
X78402Y129441D01*
X78367Y129410D01*
X78326Y129385D01*
X78285Y129334D01*
X78236Y129290D01*
X78214Y129248D01*
X78185Y129211D01*
X78164Y129149D01*
X78133Y129090D01*
X78125Y129036D01*
X78113Y128999D01*
X78113Y128995D01*
X78113Y128994D01*
X78114Y128959D01*
X78106Y128905D01*
X78106Y125095D01*
X78117Y125030D01*
X78119Y124964D01*
X78137Y124921D01*
X78145Y124874D01*
X78179Y124817D01*
X78204Y124757D01*
X78235Y124722D01*
X78260Y124681D01*
X78311Y124640D01*
X78355Y124591D01*
X78397Y124569D01*
X78434Y124540D01*
X78496Y124519D01*
X78555Y124488D01*
X78609Y124480D01*
X78646Y124468D01*
X78686Y124469D01*
X78740Y124461D01*
X81280Y124461D01*
X81345Y124472D01*
G37*
G36*
X599505Y383552D02*
X599505Y383552D01*
X599571Y383554D01*
X599614Y383572D01*
X599661Y383580D01*
X599718Y383614D01*
X599778Y383639D01*
X599813Y383670D01*
X599854Y383695D01*
X599896Y383746D01*
X599944Y383790D01*
X599966Y383832D01*
X599995Y383869D01*
X600016Y383931D01*
X600047Y383990D01*
X600055Y384044D01*
X600067Y384081D01*
X600066Y384121D01*
X600074Y384175D01*
X600074Y387985D01*
X600063Y388050D01*
X600061Y388116D01*
X600043Y388159D01*
X600035Y388206D01*
X600001Y388263D01*
X599976Y388323D01*
X599945Y388358D01*
X599920Y388399D01*
X599869Y388441D01*
X599825Y388489D01*
X599783Y388511D01*
X599746Y388540D01*
X599684Y388561D01*
X599625Y388592D01*
X599571Y388600D01*
X599534Y388612D01*
X599494Y388611D01*
X599440Y388619D01*
X596900Y388619D01*
X596835Y388608D01*
X596769Y388606D01*
X596726Y388588D01*
X596679Y388580D01*
X596622Y388546D01*
X596562Y388521D01*
X596527Y388490D01*
X596486Y388465D01*
X596445Y388414D01*
X596396Y388370D01*
X596374Y388328D01*
X596345Y388291D01*
X596324Y388229D01*
X596293Y388170D01*
X596285Y388116D01*
X596273Y388079D01*
X596273Y388075D01*
X596273Y388074D01*
X596274Y388039D01*
X596266Y387985D01*
X596266Y384175D01*
X596277Y384110D01*
X596279Y384044D01*
X596297Y384001D01*
X596305Y383954D01*
X596339Y383897D01*
X596364Y383837D01*
X596395Y383802D01*
X596420Y383761D01*
X596471Y383720D01*
X596515Y383671D01*
X596557Y383649D01*
X596594Y383620D01*
X596656Y383599D01*
X596715Y383568D01*
X596769Y383560D01*
X596806Y383548D01*
X596846Y383549D01*
X596900Y383541D01*
X599440Y383541D01*
X599505Y383552D01*
G37*
G36*
X340425Y383552D02*
X340425Y383552D01*
X340491Y383554D01*
X340534Y383572D01*
X340581Y383580D01*
X340638Y383614D01*
X340698Y383639D01*
X340733Y383670D01*
X340774Y383695D01*
X340816Y383746D01*
X340864Y383790D01*
X340886Y383832D01*
X340915Y383869D01*
X340936Y383931D01*
X340967Y383990D01*
X340975Y384044D01*
X340987Y384081D01*
X340986Y384121D01*
X340994Y384175D01*
X340994Y387985D01*
X340983Y388050D01*
X340981Y388116D01*
X340963Y388159D01*
X340955Y388206D01*
X340921Y388263D01*
X340896Y388323D01*
X340865Y388358D01*
X340840Y388399D01*
X340789Y388441D01*
X340745Y388489D01*
X340703Y388511D01*
X340666Y388540D01*
X340604Y388561D01*
X340545Y388592D01*
X340491Y388600D01*
X340454Y388612D01*
X340414Y388611D01*
X340360Y388619D01*
X337820Y388619D01*
X337755Y388608D01*
X337689Y388606D01*
X337646Y388588D01*
X337599Y388580D01*
X337542Y388546D01*
X337482Y388521D01*
X337447Y388490D01*
X337406Y388465D01*
X337365Y388414D01*
X337316Y388370D01*
X337294Y388328D01*
X337265Y388291D01*
X337244Y388229D01*
X337213Y388170D01*
X337205Y388116D01*
X337193Y388079D01*
X337193Y388075D01*
X337193Y388074D01*
X337194Y388039D01*
X337186Y387985D01*
X337186Y384175D01*
X337197Y384110D01*
X337199Y384044D01*
X337217Y384001D01*
X337225Y383954D01*
X337259Y383897D01*
X337284Y383837D01*
X337315Y383802D01*
X337340Y383761D01*
X337391Y383720D01*
X337435Y383671D01*
X337477Y383649D01*
X337514Y383620D01*
X337576Y383599D01*
X337635Y383568D01*
X337689Y383560D01*
X337726Y383548D01*
X337766Y383549D01*
X337820Y383541D01*
X340360Y383541D01*
X340425Y383552D01*
G37*
G36*
X1376745Y383552D02*
X1376745Y383552D01*
X1376811Y383554D01*
X1376854Y383572D01*
X1376901Y383580D01*
X1376958Y383614D01*
X1377018Y383639D01*
X1377053Y383670D01*
X1377094Y383695D01*
X1377136Y383746D01*
X1377184Y383790D01*
X1377206Y383832D01*
X1377235Y383869D01*
X1377256Y383931D01*
X1377287Y383990D01*
X1377295Y384044D01*
X1377307Y384081D01*
X1377306Y384121D01*
X1377314Y384175D01*
X1377314Y387985D01*
X1377303Y388050D01*
X1377301Y388116D01*
X1377283Y388159D01*
X1377275Y388206D01*
X1377241Y388263D01*
X1377216Y388323D01*
X1377185Y388358D01*
X1377160Y388399D01*
X1377109Y388441D01*
X1377065Y388489D01*
X1377023Y388511D01*
X1376986Y388540D01*
X1376924Y388561D01*
X1376865Y388592D01*
X1376811Y388600D01*
X1376774Y388612D01*
X1376734Y388611D01*
X1376680Y388619D01*
X1374140Y388619D01*
X1374075Y388608D01*
X1374009Y388606D01*
X1373966Y388588D01*
X1373919Y388580D01*
X1373862Y388546D01*
X1373802Y388521D01*
X1373767Y388490D01*
X1373726Y388465D01*
X1373685Y388414D01*
X1373636Y388370D01*
X1373614Y388328D01*
X1373585Y388291D01*
X1373564Y388229D01*
X1373533Y388170D01*
X1373525Y388116D01*
X1373513Y388079D01*
X1373513Y388075D01*
X1373513Y388074D01*
X1373514Y388039D01*
X1373506Y387985D01*
X1373506Y384175D01*
X1373517Y384110D01*
X1373519Y384044D01*
X1373537Y384001D01*
X1373545Y383954D01*
X1373579Y383897D01*
X1373604Y383837D01*
X1373635Y383802D01*
X1373660Y383761D01*
X1373711Y383720D01*
X1373755Y383671D01*
X1373797Y383649D01*
X1373834Y383620D01*
X1373896Y383599D01*
X1373955Y383568D01*
X1374009Y383560D01*
X1374046Y383548D01*
X1374086Y383549D01*
X1374140Y383541D01*
X1376680Y383541D01*
X1376745Y383552D01*
G37*
G36*
X1117665Y383552D02*
X1117665Y383552D01*
X1117731Y383554D01*
X1117774Y383572D01*
X1117821Y383580D01*
X1117878Y383614D01*
X1117938Y383639D01*
X1117973Y383670D01*
X1118014Y383695D01*
X1118056Y383746D01*
X1118104Y383790D01*
X1118126Y383832D01*
X1118155Y383869D01*
X1118176Y383931D01*
X1118207Y383990D01*
X1118215Y384044D01*
X1118227Y384081D01*
X1118226Y384121D01*
X1118234Y384175D01*
X1118234Y387985D01*
X1118223Y388050D01*
X1118221Y388116D01*
X1118203Y388159D01*
X1118195Y388206D01*
X1118161Y388263D01*
X1118136Y388323D01*
X1118105Y388358D01*
X1118080Y388399D01*
X1118029Y388441D01*
X1117985Y388489D01*
X1117943Y388511D01*
X1117906Y388540D01*
X1117844Y388561D01*
X1117785Y388592D01*
X1117731Y388600D01*
X1117694Y388612D01*
X1117654Y388611D01*
X1117600Y388619D01*
X1115060Y388619D01*
X1114995Y388608D01*
X1114929Y388606D01*
X1114886Y388588D01*
X1114839Y388580D01*
X1114782Y388546D01*
X1114722Y388521D01*
X1114687Y388490D01*
X1114646Y388465D01*
X1114605Y388414D01*
X1114556Y388370D01*
X1114534Y388328D01*
X1114505Y388291D01*
X1114484Y388229D01*
X1114453Y388170D01*
X1114445Y388116D01*
X1114433Y388079D01*
X1114433Y388075D01*
X1114433Y388074D01*
X1114434Y388039D01*
X1114426Y387985D01*
X1114426Y384175D01*
X1114437Y384110D01*
X1114439Y384044D01*
X1114457Y384001D01*
X1114465Y383954D01*
X1114499Y383897D01*
X1114524Y383837D01*
X1114555Y383802D01*
X1114580Y383761D01*
X1114631Y383720D01*
X1114675Y383671D01*
X1114717Y383649D01*
X1114754Y383620D01*
X1114816Y383599D01*
X1114875Y383568D01*
X1114929Y383560D01*
X1114966Y383548D01*
X1115006Y383549D01*
X1115060Y383541D01*
X1117600Y383541D01*
X1117665Y383552D01*
G37*
G36*
X81345Y383552D02*
X81345Y383552D01*
X81411Y383554D01*
X81454Y383572D01*
X81501Y383580D01*
X81558Y383614D01*
X81618Y383639D01*
X81653Y383670D01*
X81694Y383695D01*
X81736Y383746D01*
X81784Y383790D01*
X81806Y383832D01*
X81835Y383869D01*
X81856Y383931D01*
X81887Y383990D01*
X81895Y384044D01*
X81907Y384081D01*
X81906Y384121D01*
X81914Y384175D01*
X81914Y387985D01*
X81903Y388050D01*
X81901Y388116D01*
X81883Y388159D01*
X81875Y388206D01*
X81841Y388263D01*
X81816Y388323D01*
X81785Y388358D01*
X81760Y388399D01*
X81709Y388441D01*
X81665Y388489D01*
X81623Y388511D01*
X81586Y388540D01*
X81524Y388561D01*
X81465Y388592D01*
X81411Y388600D01*
X81374Y388612D01*
X81334Y388611D01*
X81280Y388619D01*
X78740Y388619D01*
X78675Y388608D01*
X78609Y388606D01*
X78566Y388588D01*
X78519Y388580D01*
X78462Y388546D01*
X78402Y388521D01*
X78367Y388490D01*
X78326Y388465D01*
X78285Y388414D01*
X78236Y388370D01*
X78214Y388328D01*
X78185Y388291D01*
X78164Y388229D01*
X78133Y388170D01*
X78125Y388116D01*
X78113Y388079D01*
X78113Y388075D01*
X78113Y388074D01*
X78114Y388039D01*
X78106Y387985D01*
X78106Y384175D01*
X78117Y384110D01*
X78119Y384044D01*
X78137Y384001D01*
X78145Y383954D01*
X78179Y383897D01*
X78204Y383837D01*
X78235Y383802D01*
X78260Y383761D01*
X78311Y383720D01*
X78355Y383671D01*
X78397Y383649D01*
X78434Y383620D01*
X78496Y383599D01*
X78555Y383568D01*
X78609Y383560D01*
X78646Y383548D01*
X78686Y383549D01*
X78740Y383541D01*
X81280Y383541D01*
X81345Y383552D01*
G37*
G36*
X858585Y901712D02*
X858585Y901712D01*
X858651Y901714D01*
X858694Y901732D01*
X858741Y901740D01*
X858798Y901774D01*
X858858Y901799D01*
X858893Y901830D01*
X858934Y901855D01*
X858976Y901906D01*
X859024Y901950D01*
X859046Y901992D01*
X859075Y902029D01*
X859096Y902091D01*
X859127Y902150D01*
X859135Y902204D01*
X859147Y902241D01*
X859146Y902281D01*
X859154Y902335D01*
X859154Y906145D01*
X859143Y906210D01*
X859141Y906276D01*
X859123Y906319D01*
X859115Y906366D01*
X859081Y906423D01*
X859056Y906483D01*
X859025Y906518D01*
X859000Y906559D01*
X858949Y906601D01*
X858905Y906649D01*
X858863Y906671D01*
X858826Y906700D01*
X858764Y906721D01*
X858705Y906752D01*
X858651Y906760D01*
X858614Y906772D01*
X858574Y906771D01*
X858520Y906779D01*
X855980Y906779D01*
X855915Y906768D01*
X855849Y906766D01*
X855806Y906748D01*
X855759Y906740D01*
X855702Y906706D01*
X855642Y906681D01*
X855607Y906650D01*
X855566Y906625D01*
X855525Y906574D01*
X855476Y906530D01*
X855454Y906488D01*
X855425Y906451D01*
X855404Y906389D01*
X855373Y906330D01*
X855365Y906276D01*
X855353Y906239D01*
X855353Y906235D01*
X855353Y906234D01*
X855354Y906199D01*
X855346Y906145D01*
X855346Y902335D01*
X855357Y902270D01*
X855359Y902204D01*
X855377Y902161D01*
X855385Y902114D01*
X855419Y902057D01*
X855444Y901997D01*
X855475Y901962D01*
X855500Y901921D01*
X855551Y901880D01*
X855595Y901831D01*
X855637Y901809D01*
X855674Y901780D01*
X855736Y901759D01*
X855795Y901728D01*
X855849Y901720D01*
X855886Y901708D01*
X855926Y901709D01*
X855980Y901701D01*
X858520Y901701D01*
X858585Y901712D01*
G37*
G36*
X1376745Y901712D02*
X1376745Y901712D01*
X1376811Y901714D01*
X1376854Y901732D01*
X1376901Y901740D01*
X1376958Y901774D01*
X1377018Y901799D01*
X1377053Y901830D01*
X1377094Y901855D01*
X1377136Y901906D01*
X1377184Y901950D01*
X1377206Y901992D01*
X1377235Y902029D01*
X1377256Y902091D01*
X1377287Y902150D01*
X1377295Y902204D01*
X1377307Y902241D01*
X1377306Y902281D01*
X1377314Y902335D01*
X1377314Y906145D01*
X1377303Y906210D01*
X1377301Y906276D01*
X1377283Y906319D01*
X1377275Y906366D01*
X1377241Y906423D01*
X1377216Y906483D01*
X1377185Y906518D01*
X1377160Y906559D01*
X1377109Y906601D01*
X1377065Y906649D01*
X1377023Y906671D01*
X1376986Y906700D01*
X1376924Y906721D01*
X1376865Y906752D01*
X1376811Y906760D01*
X1376774Y906772D01*
X1376734Y906771D01*
X1376680Y906779D01*
X1374140Y906779D01*
X1374075Y906768D01*
X1374009Y906766D01*
X1373966Y906748D01*
X1373919Y906740D01*
X1373862Y906706D01*
X1373802Y906681D01*
X1373767Y906650D01*
X1373726Y906625D01*
X1373685Y906574D01*
X1373636Y906530D01*
X1373614Y906488D01*
X1373585Y906451D01*
X1373564Y906389D01*
X1373533Y906330D01*
X1373525Y906276D01*
X1373513Y906239D01*
X1373513Y906235D01*
X1373513Y906234D01*
X1373514Y906199D01*
X1373506Y906145D01*
X1373506Y902335D01*
X1373517Y902270D01*
X1373519Y902204D01*
X1373537Y902161D01*
X1373545Y902114D01*
X1373579Y902057D01*
X1373604Y901997D01*
X1373635Y901962D01*
X1373660Y901921D01*
X1373711Y901880D01*
X1373755Y901831D01*
X1373797Y901809D01*
X1373834Y901780D01*
X1373896Y901759D01*
X1373955Y901728D01*
X1374009Y901720D01*
X1374046Y901708D01*
X1374086Y901709D01*
X1374140Y901701D01*
X1376680Y901701D01*
X1376745Y901712D01*
G37*
G36*
X340425Y901712D02*
X340425Y901712D01*
X340491Y901714D01*
X340534Y901732D01*
X340581Y901740D01*
X340638Y901774D01*
X340698Y901799D01*
X340733Y901830D01*
X340774Y901855D01*
X340816Y901906D01*
X340864Y901950D01*
X340886Y901992D01*
X340915Y902029D01*
X340936Y902091D01*
X340967Y902150D01*
X340975Y902204D01*
X340987Y902241D01*
X340986Y902281D01*
X340994Y902335D01*
X340994Y906145D01*
X340983Y906210D01*
X340981Y906276D01*
X340963Y906319D01*
X340955Y906366D01*
X340921Y906423D01*
X340896Y906483D01*
X340865Y906518D01*
X340840Y906559D01*
X340789Y906601D01*
X340745Y906649D01*
X340703Y906671D01*
X340666Y906700D01*
X340604Y906721D01*
X340545Y906752D01*
X340491Y906760D01*
X340454Y906772D01*
X340414Y906771D01*
X340360Y906779D01*
X337820Y906779D01*
X337755Y906768D01*
X337689Y906766D01*
X337646Y906748D01*
X337599Y906740D01*
X337542Y906706D01*
X337482Y906681D01*
X337447Y906650D01*
X337406Y906625D01*
X337365Y906574D01*
X337316Y906530D01*
X337294Y906488D01*
X337265Y906451D01*
X337244Y906389D01*
X337213Y906330D01*
X337205Y906276D01*
X337193Y906239D01*
X337193Y906235D01*
X337193Y906234D01*
X337194Y906199D01*
X337186Y906145D01*
X337186Y902335D01*
X337197Y902270D01*
X337199Y902204D01*
X337217Y902161D01*
X337225Y902114D01*
X337259Y902057D01*
X337284Y901997D01*
X337315Y901962D01*
X337340Y901921D01*
X337391Y901880D01*
X337435Y901831D01*
X337477Y901809D01*
X337514Y901780D01*
X337576Y901759D01*
X337635Y901728D01*
X337689Y901720D01*
X337726Y901708D01*
X337766Y901709D01*
X337820Y901701D01*
X340360Y901701D01*
X340425Y901712D01*
G37*
G36*
X1117665Y901712D02*
X1117665Y901712D01*
X1117731Y901714D01*
X1117774Y901732D01*
X1117821Y901740D01*
X1117878Y901774D01*
X1117938Y901799D01*
X1117973Y901830D01*
X1118014Y901855D01*
X1118056Y901906D01*
X1118104Y901950D01*
X1118126Y901992D01*
X1118155Y902029D01*
X1118176Y902091D01*
X1118207Y902150D01*
X1118215Y902204D01*
X1118227Y902241D01*
X1118226Y902281D01*
X1118234Y902335D01*
X1118234Y906145D01*
X1118223Y906210D01*
X1118221Y906276D01*
X1118203Y906319D01*
X1118195Y906366D01*
X1118161Y906423D01*
X1118136Y906483D01*
X1118105Y906518D01*
X1118080Y906559D01*
X1118029Y906601D01*
X1117985Y906649D01*
X1117943Y906671D01*
X1117906Y906700D01*
X1117844Y906721D01*
X1117785Y906752D01*
X1117731Y906760D01*
X1117694Y906772D01*
X1117654Y906771D01*
X1117600Y906779D01*
X1115060Y906779D01*
X1114995Y906768D01*
X1114929Y906766D01*
X1114886Y906748D01*
X1114839Y906740D01*
X1114782Y906706D01*
X1114722Y906681D01*
X1114687Y906650D01*
X1114646Y906625D01*
X1114605Y906574D01*
X1114556Y906530D01*
X1114534Y906488D01*
X1114505Y906451D01*
X1114484Y906389D01*
X1114453Y906330D01*
X1114445Y906276D01*
X1114433Y906239D01*
X1114433Y906235D01*
X1114433Y906234D01*
X1114434Y906199D01*
X1114426Y906145D01*
X1114426Y902335D01*
X1114437Y902270D01*
X1114439Y902204D01*
X1114457Y902161D01*
X1114465Y902114D01*
X1114499Y902057D01*
X1114524Y901997D01*
X1114555Y901962D01*
X1114580Y901921D01*
X1114631Y901880D01*
X1114675Y901831D01*
X1114717Y901809D01*
X1114754Y901780D01*
X1114816Y901759D01*
X1114875Y901728D01*
X1114929Y901720D01*
X1114966Y901708D01*
X1115006Y901709D01*
X1115060Y901701D01*
X1117600Y901701D01*
X1117665Y901712D01*
G37*
G36*
X599505Y901712D02*
X599505Y901712D01*
X599571Y901714D01*
X599614Y901732D01*
X599661Y901740D01*
X599718Y901774D01*
X599778Y901799D01*
X599813Y901830D01*
X599854Y901855D01*
X599896Y901906D01*
X599944Y901950D01*
X599966Y901992D01*
X599995Y902029D01*
X600016Y902091D01*
X600047Y902150D01*
X600055Y902204D01*
X600067Y902241D01*
X600066Y902281D01*
X600074Y902335D01*
X600074Y906145D01*
X600063Y906210D01*
X600061Y906276D01*
X600043Y906319D01*
X600035Y906366D01*
X600001Y906423D01*
X599976Y906483D01*
X599945Y906518D01*
X599920Y906559D01*
X599869Y906601D01*
X599825Y906649D01*
X599783Y906671D01*
X599746Y906700D01*
X599684Y906721D01*
X599625Y906752D01*
X599571Y906760D01*
X599534Y906772D01*
X599494Y906771D01*
X599440Y906779D01*
X596900Y906779D01*
X596835Y906768D01*
X596769Y906766D01*
X596726Y906748D01*
X596679Y906740D01*
X596622Y906706D01*
X596562Y906681D01*
X596527Y906650D01*
X596486Y906625D01*
X596445Y906574D01*
X596396Y906530D01*
X596374Y906488D01*
X596345Y906451D01*
X596324Y906389D01*
X596293Y906330D01*
X596285Y906276D01*
X596273Y906239D01*
X596273Y906235D01*
X596273Y906234D01*
X596274Y906199D01*
X596266Y906145D01*
X596266Y902335D01*
X596277Y902270D01*
X596279Y902204D01*
X596297Y902161D01*
X596305Y902114D01*
X596339Y902057D01*
X596364Y901997D01*
X596395Y901962D01*
X596420Y901921D01*
X596471Y901880D01*
X596515Y901831D01*
X596557Y901809D01*
X596594Y901780D01*
X596656Y901759D01*
X596715Y901728D01*
X596769Y901720D01*
X596806Y901708D01*
X596846Y901709D01*
X596900Y901701D01*
X599440Y901701D01*
X599505Y901712D01*
G37*
G36*
X858585Y383552D02*
X858585Y383552D01*
X858651Y383554D01*
X858694Y383572D01*
X858741Y383580D01*
X858798Y383614D01*
X858858Y383639D01*
X858893Y383670D01*
X858934Y383695D01*
X858976Y383746D01*
X859024Y383790D01*
X859046Y383832D01*
X859075Y383869D01*
X859096Y383931D01*
X859127Y383990D01*
X859135Y384044D01*
X859147Y384081D01*
X859146Y384121D01*
X859154Y384175D01*
X859154Y387985D01*
X859143Y388050D01*
X859141Y388116D01*
X859123Y388159D01*
X859115Y388206D01*
X859081Y388263D01*
X859056Y388323D01*
X859025Y388358D01*
X859000Y388399D01*
X858949Y388441D01*
X858905Y388489D01*
X858863Y388511D01*
X858826Y388540D01*
X858764Y388561D01*
X858705Y388592D01*
X858651Y388600D01*
X858614Y388612D01*
X858574Y388611D01*
X858520Y388619D01*
X855980Y388619D01*
X855915Y388608D01*
X855849Y388606D01*
X855806Y388588D01*
X855759Y388580D01*
X855702Y388546D01*
X855642Y388521D01*
X855607Y388490D01*
X855566Y388465D01*
X855525Y388414D01*
X855476Y388370D01*
X855454Y388328D01*
X855425Y388291D01*
X855404Y388229D01*
X855373Y388170D01*
X855365Y388116D01*
X855353Y388079D01*
X855353Y388075D01*
X855353Y388074D01*
X855354Y388039D01*
X855346Y387985D01*
X855346Y384175D01*
X855357Y384110D01*
X855359Y384044D01*
X855377Y384001D01*
X855385Y383954D01*
X855419Y383897D01*
X855444Y383837D01*
X855475Y383802D01*
X855500Y383761D01*
X855551Y383720D01*
X855595Y383671D01*
X855637Y383649D01*
X855674Y383620D01*
X855736Y383599D01*
X855795Y383568D01*
X855849Y383560D01*
X855886Y383548D01*
X855926Y383549D01*
X855980Y383541D01*
X858520Y383541D01*
X858585Y383552D01*
G37*
G36*
X858585Y642632D02*
X858585Y642632D01*
X858651Y642634D01*
X858694Y642652D01*
X858741Y642660D01*
X858798Y642694D01*
X858858Y642719D01*
X858893Y642750D01*
X858934Y642775D01*
X858976Y642826D01*
X859024Y642870D01*
X859046Y642912D01*
X859075Y642949D01*
X859096Y643011D01*
X859127Y643070D01*
X859135Y643124D01*
X859147Y643161D01*
X859146Y643201D01*
X859154Y643255D01*
X859154Y647065D01*
X859143Y647130D01*
X859141Y647196D01*
X859123Y647239D01*
X859115Y647286D01*
X859081Y647343D01*
X859056Y647403D01*
X859025Y647438D01*
X859000Y647479D01*
X858949Y647521D01*
X858905Y647569D01*
X858863Y647591D01*
X858826Y647620D01*
X858764Y647641D01*
X858705Y647672D01*
X858651Y647680D01*
X858614Y647692D01*
X858574Y647691D01*
X858520Y647699D01*
X855980Y647699D01*
X855915Y647688D01*
X855849Y647686D01*
X855806Y647668D01*
X855759Y647660D01*
X855702Y647626D01*
X855642Y647601D01*
X855607Y647570D01*
X855566Y647545D01*
X855525Y647494D01*
X855476Y647450D01*
X855454Y647408D01*
X855425Y647371D01*
X855404Y647309D01*
X855373Y647250D01*
X855365Y647196D01*
X855353Y647159D01*
X855353Y647155D01*
X855353Y647154D01*
X855354Y647119D01*
X855346Y647065D01*
X855346Y643255D01*
X855357Y643190D01*
X855359Y643124D01*
X855377Y643081D01*
X855385Y643034D01*
X855419Y642977D01*
X855444Y642917D01*
X855475Y642882D01*
X855500Y642841D01*
X855551Y642800D01*
X855595Y642751D01*
X855637Y642729D01*
X855674Y642700D01*
X855736Y642679D01*
X855795Y642648D01*
X855849Y642640D01*
X855886Y642628D01*
X855926Y642629D01*
X855980Y642621D01*
X858520Y642621D01*
X858585Y642632D01*
G37*
G36*
X858585Y124472D02*
X858585Y124472D01*
X858651Y124474D01*
X858694Y124492D01*
X858741Y124500D01*
X858798Y124534D01*
X858858Y124559D01*
X858893Y124590D01*
X858934Y124615D01*
X858976Y124666D01*
X859024Y124710D01*
X859046Y124752D01*
X859075Y124789D01*
X859096Y124851D01*
X859127Y124910D01*
X859135Y124964D01*
X859147Y125001D01*
X859146Y125041D01*
X859154Y125095D01*
X859154Y128905D01*
X859143Y128970D01*
X859141Y129036D01*
X859123Y129079D01*
X859115Y129126D01*
X859081Y129183D01*
X859056Y129243D01*
X859025Y129278D01*
X859000Y129319D01*
X858949Y129361D01*
X858905Y129409D01*
X858863Y129431D01*
X858826Y129460D01*
X858764Y129481D01*
X858705Y129512D01*
X858651Y129520D01*
X858614Y129532D01*
X858574Y129531D01*
X858520Y129539D01*
X855980Y129539D01*
X855915Y129528D01*
X855849Y129526D01*
X855806Y129508D01*
X855759Y129500D01*
X855702Y129466D01*
X855642Y129441D01*
X855607Y129410D01*
X855566Y129385D01*
X855525Y129334D01*
X855476Y129290D01*
X855454Y129248D01*
X855425Y129211D01*
X855404Y129149D01*
X855373Y129090D01*
X855365Y129036D01*
X855353Y128999D01*
X855353Y128995D01*
X855353Y128994D01*
X855354Y128959D01*
X855346Y128905D01*
X855346Y125095D01*
X855357Y125030D01*
X855359Y124964D01*
X855377Y124921D01*
X855385Y124874D01*
X855419Y124817D01*
X855444Y124757D01*
X855475Y124722D01*
X855500Y124681D01*
X855551Y124640D01*
X855595Y124591D01*
X855637Y124569D01*
X855674Y124540D01*
X855736Y124519D01*
X855795Y124488D01*
X855849Y124480D01*
X855886Y124468D01*
X855926Y124469D01*
X855980Y124461D01*
X858520Y124461D01*
X858585Y124472D01*
G37*
G36*
X340425Y124472D02*
X340425Y124472D01*
X340491Y124474D01*
X340534Y124492D01*
X340581Y124500D01*
X340638Y124534D01*
X340698Y124559D01*
X340733Y124590D01*
X340774Y124615D01*
X340816Y124666D01*
X340864Y124710D01*
X340886Y124752D01*
X340915Y124789D01*
X340936Y124851D01*
X340967Y124910D01*
X340975Y124964D01*
X340987Y125001D01*
X340986Y125041D01*
X340994Y125095D01*
X340994Y128905D01*
X340983Y128970D01*
X340981Y129036D01*
X340963Y129079D01*
X340955Y129126D01*
X340921Y129183D01*
X340896Y129243D01*
X340865Y129278D01*
X340840Y129319D01*
X340789Y129361D01*
X340745Y129409D01*
X340703Y129431D01*
X340666Y129460D01*
X340604Y129481D01*
X340545Y129512D01*
X340491Y129520D01*
X340454Y129532D01*
X340414Y129531D01*
X340360Y129539D01*
X337820Y129539D01*
X337755Y129528D01*
X337689Y129526D01*
X337646Y129508D01*
X337599Y129500D01*
X337542Y129466D01*
X337482Y129441D01*
X337447Y129410D01*
X337406Y129385D01*
X337365Y129334D01*
X337316Y129290D01*
X337294Y129248D01*
X337265Y129211D01*
X337244Y129149D01*
X337213Y129090D01*
X337205Y129036D01*
X337193Y128999D01*
X337193Y128995D01*
X337193Y128994D01*
X337194Y128959D01*
X337186Y128905D01*
X337186Y125095D01*
X337197Y125030D01*
X337199Y124964D01*
X337217Y124921D01*
X337225Y124874D01*
X337259Y124817D01*
X337284Y124757D01*
X337315Y124722D01*
X337340Y124681D01*
X337391Y124640D01*
X337435Y124591D01*
X337477Y124569D01*
X337514Y124540D01*
X337576Y124519D01*
X337635Y124488D01*
X337689Y124480D01*
X337726Y124468D01*
X337766Y124469D01*
X337820Y124461D01*
X340360Y124461D01*
X340425Y124472D01*
G37*
G36*
X1376745Y124472D02*
X1376745Y124472D01*
X1376811Y124474D01*
X1376854Y124492D01*
X1376901Y124500D01*
X1376958Y124534D01*
X1377018Y124559D01*
X1377053Y124590D01*
X1377094Y124615D01*
X1377136Y124666D01*
X1377184Y124710D01*
X1377206Y124752D01*
X1377235Y124789D01*
X1377256Y124851D01*
X1377287Y124910D01*
X1377295Y124964D01*
X1377307Y125001D01*
X1377306Y125041D01*
X1377314Y125095D01*
X1377314Y128905D01*
X1377303Y128970D01*
X1377301Y129036D01*
X1377283Y129079D01*
X1377275Y129126D01*
X1377241Y129183D01*
X1377216Y129243D01*
X1377185Y129278D01*
X1377160Y129319D01*
X1377109Y129361D01*
X1377065Y129409D01*
X1377023Y129431D01*
X1376986Y129460D01*
X1376924Y129481D01*
X1376865Y129512D01*
X1376811Y129520D01*
X1376774Y129532D01*
X1376734Y129531D01*
X1376680Y129539D01*
X1374140Y129539D01*
X1374075Y129528D01*
X1374009Y129526D01*
X1373966Y129508D01*
X1373919Y129500D01*
X1373862Y129466D01*
X1373802Y129441D01*
X1373767Y129410D01*
X1373726Y129385D01*
X1373685Y129334D01*
X1373636Y129290D01*
X1373614Y129248D01*
X1373585Y129211D01*
X1373564Y129149D01*
X1373533Y129090D01*
X1373525Y129036D01*
X1373513Y128999D01*
X1373513Y128995D01*
X1373513Y128994D01*
X1373514Y128959D01*
X1373506Y128905D01*
X1373506Y125095D01*
X1373517Y125030D01*
X1373519Y124964D01*
X1373537Y124921D01*
X1373545Y124874D01*
X1373579Y124817D01*
X1373604Y124757D01*
X1373635Y124722D01*
X1373660Y124681D01*
X1373711Y124640D01*
X1373755Y124591D01*
X1373797Y124569D01*
X1373834Y124540D01*
X1373896Y124519D01*
X1373955Y124488D01*
X1374009Y124480D01*
X1374046Y124468D01*
X1374086Y124469D01*
X1374140Y124461D01*
X1376680Y124461D01*
X1376745Y124472D01*
G37*
G36*
X1117665Y124472D02*
X1117665Y124472D01*
X1117731Y124474D01*
X1117774Y124492D01*
X1117821Y124500D01*
X1117878Y124534D01*
X1117938Y124559D01*
X1117973Y124590D01*
X1118014Y124615D01*
X1118056Y124666D01*
X1118104Y124710D01*
X1118126Y124752D01*
X1118155Y124789D01*
X1118176Y124851D01*
X1118207Y124910D01*
X1118215Y124964D01*
X1118227Y125001D01*
X1118226Y125041D01*
X1118234Y125095D01*
X1118234Y128905D01*
X1118223Y128970D01*
X1118221Y129036D01*
X1118203Y129079D01*
X1118195Y129126D01*
X1118161Y129183D01*
X1118136Y129243D01*
X1118105Y129278D01*
X1118080Y129319D01*
X1118029Y129361D01*
X1117985Y129409D01*
X1117943Y129431D01*
X1117906Y129460D01*
X1117844Y129481D01*
X1117785Y129512D01*
X1117731Y129520D01*
X1117694Y129532D01*
X1117654Y129531D01*
X1117600Y129539D01*
X1115060Y129539D01*
X1114995Y129528D01*
X1114929Y129526D01*
X1114886Y129508D01*
X1114839Y129500D01*
X1114782Y129466D01*
X1114722Y129441D01*
X1114687Y129410D01*
X1114646Y129385D01*
X1114605Y129334D01*
X1114556Y129290D01*
X1114534Y129248D01*
X1114505Y129211D01*
X1114484Y129149D01*
X1114453Y129090D01*
X1114445Y129036D01*
X1114433Y128999D01*
X1114433Y128995D01*
X1114433Y128994D01*
X1114434Y128959D01*
X1114426Y128905D01*
X1114426Y125095D01*
X1114437Y125030D01*
X1114439Y124964D01*
X1114457Y124921D01*
X1114465Y124874D01*
X1114499Y124817D01*
X1114524Y124757D01*
X1114555Y124722D01*
X1114580Y124681D01*
X1114631Y124640D01*
X1114675Y124591D01*
X1114717Y124569D01*
X1114754Y124540D01*
X1114816Y124519D01*
X1114875Y124488D01*
X1114929Y124480D01*
X1114966Y124468D01*
X1115006Y124469D01*
X1115060Y124461D01*
X1117600Y124461D01*
X1117665Y124472D01*
G37*
G36*
X1429450Y694067D02*
X1429450Y694067D01*
X1429516Y694069D01*
X1429559Y694087D01*
X1429606Y694095D01*
X1429663Y694129D01*
X1429723Y694154D01*
X1429758Y694185D01*
X1429799Y694210D01*
X1429841Y694261D01*
X1429889Y694305D01*
X1429911Y694347D01*
X1429940Y694384D01*
X1429961Y694446D01*
X1429992Y694505D01*
X1430000Y694559D01*
X1430012Y694596D01*
X1430011Y694636D01*
X1430019Y694690D01*
X1430019Y697230D01*
X1430008Y697295D01*
X1430006Y697361D01*
X1429988Y697404D01*
X1429980Y697451D01*
X1429946Y697508D01*
X1429921Y697568D01*
X1429890Y697603D01*
X1429865Y697644D01*
X1429814Y697686D01*
X1429770Y697734D01*
X1429728Y697756D01*
X1429691Y697785D01*
X1429629Y697806D01*
X1429570Y697837D01*
X1429516Y697845D01*
X1429479Y697857D01*
X1429439Y697856D01*
X1429385Y697864D01*
X1425575Y697864D01*
X1425510Y697853D01*
X1425444Y697851D01*
X1425401Y697833D01*
X1425354Y697825D01*
X1425297Y697791D01*
X1425237Y697766D01*
X1425202Y697735D01*
X1425161Y697710D01*
X1425120Y697659D01*
X1425071Y697615D01*
X1425049Y697573D01*
X1425020Y697536D01*
X1424999Y697474D01*
X1424968Y697415D01*
X1424960Y697361D01*
X1424948Y697324D01*
X1424948Y697321D01*
X1424949Y697284D01*
X1424941Y697230D01*
X1424941Y694690D01*
X1424952Y694625D01*
X1424954Y694559D01*
X1424972Y694516D01*
X1424980Y694469D01*
X1425014Y694412D01*
X1425039Y694352D01*
X1425070Y694317D01*
X1425095Y694276D01*
X1425146Y694235D01*
X1425190Y694186D01*
X1425232Y694164D01*
X1425269Y694135D01*
X1425331Y694114D01*
X1425390Y694083D01*
X1425444Y694075D01*
X1425481Y694063D01*
X1425521Y694064D01*
X1425575Y694056D01*
X1429385Y694056D01*
X1429450Y694067D01*
G37*
G36*
X901130Y694067D02*
X901130Y694067D01*
X901196Y694069D01*
X901239Y694087D01*
X901286Y694095D01*
X901343Y694129D01*
X901403Y694154D01*
X901438Y694185D01*
X901479Y694210D01*
X901521Y694261D01*
X901569Y694305D01*
X901591Y694347D01*
X901620Y694384D01*
X901641Y694446D01*
X901672Y694505D01*
X901680Y694559D01*
X901692Y694596D01*
X901691Y694636D01*
X901699Y694690D01*
X901699Y697230D01*
X901688Y697295D01*
X901686Y697361D01*
X901668Y697404D01*
X901660Y697451D01*
X901626Y697508D01*
X901601Y697568D01*
X901570Y697603D01*
X901545Y697644D01*
X901494Y697686D01*
X901450Y697734D01*
X901408Y697756D01*
X901371Y697785D01*
X901309Y697806D01*
X901250Y697837D01*
X901196Y697845D01*
X901159Y697857D01*
X901119Y697856D01*
X901065Y697864D01*
X897255Y697864D01*
X897190Y697853D01*
X897124Y697851D01*
X897081Y697833D01*
X897034Y697825D01*
X896977Y697791D01*
X896917Y697766D01*
X896882Y697735D01*
X896841Y697710D01*
X896800Y697659D01*
X896751Y697615D01*
X896729Y697573D01*
X896700Y697536D01*
X896679Y697474D01*
X896648Y697415D01*
X896640Y697361D01*
X896628Y697324D01*
X896628Y697321D01*
X896629Y697284D01*
X896621Y697230D01*
X896621Y694690D01*
X896632Y694625D01*
X896634Y694559D01*
X896652Y694516D01*
X896660Y694469D01*
X896694Y694412D01*
X896719Y694352D01*
X896750Y694317D01*
X896775Y694276D01*
X896826Y694235D01*
X896870Y694186D01*
X896912Y694164D01*
X896949Y694135D01*
X897011Y694114D01*
X897070Y694083D01*
X897124Y694075D01*
X897161Y694063D01*
X897201Y694064D01*
X897255Y694056D01*
X901065Y694056D01*
X901130Y694067D01*
G37*
G36*
X393130Y694067D02*
X393130Y694067D01*
X393196Y694069D01*
X393239Y694087D01*
X393286Y694095D01*
X393343Y694129D01*
X393403Y694154D01*
X393438Y694185D01*
X393479Y694210D01*
X393521Y694261D01*
X393569Y694305D01*
X393591Y694347D01*
X393620Y694384D01*
X393641Y694446D01*
X393672Y694505D01*
X393680Y694559D01*
X393692Y694596D01*
X393691Y694636D01*
X393699Y694690D01*
X393699Y697230D01*
X393688Y697295D01*
X393686Y697361D01*
X393668Y697404D01*
X393660Y697451D01*
X393626Y697508D01*
X393601Y697568D01*
X393570Y697603D01*
X393545Y697644D01*
X393494Y697686D01*
X393450Y697734D01*
X393408Y697756D01*
X393371Y697785D01*
X393309Y697806D01*
X393250Y697837D01*
X393196Y697845D01*
X393159Y697857D01*
X393119Y697856D01*
X393065Y697864D01*
X389255Y697864D01*
X389190Y697853D01*
X389124Y697851D01*
X389081Y697833D01*
X389034Y697825D01*
X388977Y697791D01*
X388917Y697766D01*
X388882Y697735D01*
X388841Y697710D01*
X388800Y697659D01*
X388751Y697615D01*
X388729Y697573D01*
X388700Y697536D01*
X388679Y697474D01*
X388648Y697415D01*
X388640Y697361D01*
X388628Y697324D01*
X388628Y697321D01*
X388629Y697284D01*
X388621Y697230D01*
X388621Y694690D01*
X388632Y694625D01*
X388634Y694559D01*
X388652Y694516D01*
X388660Y694469D01*
X388694Y694412D01*
X388719Y694352D01*
X388750Y694317D01*
X388775Y694276D01*
X388826Y694235D01*
X388870Y694186D01*
X388912Y694164D01*
X388949Y694135D01*
X389011Y694114D01*
X389070Y694083D01*
X389124Y694075D01*
X389161Y694063D01*
X389201Y694064D01*
X389255Y694056D01*
X393065Y694056D01*
X393130Y694067D01*
G37*
G36*
X382970Y694067D02*
X382970Y694067D01*
X383036Y694069D01*
X383079Y694087D01*
X383126Y694095D01*
X383183Y694129D01*
X383243Y694154D01*
X383278Y694185D01*
X383319Y694210D01*
X383361Y694261D01*
X383409Y694305D01*
X383431Y694347D01*
X383460Y694384D01*
X383481Y694446D01*
X383512Y694505D01*
X383520Y694559D01*
X383532Y694596D01*
X383531Y694636D01*
X383539Y694690D01*
X383539Y697230D01*
X383528Y697295D01*
X383526Y697361D01*
X383508Y697404D01*
X383500Y697451D01*
X383466Y697508D01*
X383441Y697568D01*
X383410Y697603D01*
X383385Y697644D01*
X383334Y697686D01*
X383290Y697734D01*
X383248Y697756D01*
X383211Y697785D01*
X383149Y697806D01*
X383090Y697837D01*
X383036Y697845D01*
X382999Y697857D01*
X382959Y697856D01*
X382905Y697864D01*
X379095Y697864D01*
X379030Y697853D01*
X378964Y697851D01*
X378921Y697833D01*
X378874Y697825D01*
X378817Y697791D01*
X378757Y697766D01*
X378722Y697735D01*
X378681Y697710D01*
X378640Y697659D01*
X378591Y697615D01*
X378569Y697573D01*
X378540Y697536D01*
X378519Y697474D01*
X378488Y697415D01*
X378480Y697361D01*
X378468Y697324D01*
X378468Y697321D01*
X378469Y697284D01*
X378461Y697230D01*
X378461Y694690D01*
X378472Y694625D01*
X378474Y694559D01*
X378492Y694516D01*
X378500Y694469D01*
X378534Y694412D01*
X378559Y694352D01*
X378590Y694317D01*
X378615Y694276D01*
X378666Y694235D01*
X378710Y694186D01*
X378752Y694164D01*
X378789Y694135D01*
X378851Y694114D01*
X378910Y694083D01*
X378964Y694075D01*
X379001Y694063D01*
X379041Y694064D01*
X379095Y694056D01*
X382905Y694056D01*
X382970Y694067D01*
G37*
G36*
X134050Y694067D02*
X134050Y694067D01*
X134116Y694069D01*
X134159Y694087D01*
X134206Y694095D01*
X134263Y694129D01*
X134323Y694154D01*
X134358Y694185D01*
X134399Y694210D01*
X134441Y694261D01*
X134489Y694305D01*
X134511Y694347D01*
X134540Y694384D01*
X134561Y694446D01*
X134592Y694505D01*
X134600Y694559D01*
X134612Y694596D01*
X134611Y694636D01*
X134619Y694690D01*
X134619Y697230D01*
X134608Y697295D01*
X134606Y697361D01*
X134588Y697404D01*
X134580Y697451D01*
X134546Y697508D01*
X134521Y697568D01*
X134490Y697603D01*
X134465Y697644D01*
X134414Y697686D01*
X134370Y697734D01*
X134328Y697756D01*
X134291Y697785D01*
X134229Y697806D01*
X134170Y697837D01*
X134116Y697845D01*
X134079Y697857D01*
X134039Y697856D01*
X133985Y697864D01*
X130175Y697864D01*
X130110Y697853D01*
X130044Y697851D01*
X130001Y697833D01*
X129954Y697825D01*
X129897Y697791D01*
X129837Y697766D01*
X129802Y697735D01*
X129761Y697710D01*
X129720Y697659D01*
X129671Y697615D01*
X129649Y697573D01*
X129620Y697536D01*
X129599Y697474D01*
X129568Y697415D01*
X129560Y697361D01*
X129548Y697324D01*
X129548Y697321D01*
X129549Y697284D01*
X129541Y697230D01*
X129541Y694690D01*
X129552Y694625D01*
X129554Y694559D01*
X129572Y694516D01*
X129580Y694469D01*
X129614Y694412D01*
X129639Y694352D01*
X129670Y694317D01*
X129695Y694276D01*
X129746Y694235D01*
X129790Y694186D01*
X129832Y694164D01*
X129869Y694135D01*
X129931Y694114D01*
X129990Y694083D01*
X130044Y694075D01*
X130081Y694063D01*
X130121Y694064D01*
X130175Y694056D01*
X133985Y694056D01*
X134050Y694067D01*
G37*
G36*
X123890Y694067D02*
X123890Y694067D01*
X123956Y694069D01*
X123999Y694087D01*
X124046Y694095D01*
X124103Y694129D01*
X124163Y694154D01*
X124198Y694185D01*
X124239Y694210D01*
X124281Y694261D01*
X124329Y694305D01*
X124351Y694347D01*
X124380Y694384D01*
X124401Y694446D01*
X124432Y694505D01*
X124440Y694559D01*
X124452Y694596D01*
X124451Y694636D01*
X124459Y694690D01*
X124459Y697230D01*
X124448Y697295D01*
X124446Y697361D01*
X124428Y697404D01*
X124420Y697451D01*
X124386Y697508D01*
X124361Y697568D01*
X124330Y697603D01*
X124305Y697644D01*
X124254Y697686D01*
X124210Y697734D01*
X124168Y697756D01*
X124131Y697785D01*
X124069Y697806D01*
X124010Y697837D01*
X123956Y697845D01*
X123919Y697857D01*
X123879Y697856D01*
X123825Y697864D01*
X120015Y697864D01*
X119950Y697853D01*
X119884Y697851D01*
X119841Y697833D01*
X119794Y697825D01*
X119737Y697791D01*
X119677Y697766D01*
X119642Y697735D01*
X119601Y697710D01*
X119560Y697659D01*
X119511Y697615D01*
X119489Y697573D01*
X119460Y697536D01*
X119439Y697474D01*
X119408Y697415D01*
X119400Y697361D01*
X119388Y697324D01*
X119388Y697321D01*
X119389Y697284D01*
X119381Y697230D01*
X119381Y694690D01*
X119392Y694625D01*
X119394Y694559D01*
X119412Y694516D01*
X119420Y694469D01*
X119454Y694412D01*
X119479Y694352D01*
X119510Y694317D01*
X119535Y694276D01*
X119586Y694235D01*
X119630Y694186D01*
X119672Y694164D01*
X119709Y694135D01*
X119771Y694114D01*
X119830Y694083D01*
X119884Y694075D01*
X119921Y694063D01*
X119961Y694064D01*
X120015Y694056D01*
X123825Y694056D01*
X123890Y694067D01*
G37*
G36*
X1160210Y694067D02*
X1160210Y694067D01*
X1160276Y694069D01*
X1160319Y694087D01*
X1160366Y694095D01*
X1160423Y694129D01*
X1160483Y694154D01*
X1160518Y694185D01*
X1160559Y694210D01*
X1160601Y694261D01*
X1160649Y694305D01*
X1160671Y694347D01*
X1160700Y694384D01*
X1160721Y694446D01*
X1160752Y694505D01*
X1160760Y694559D01*
X1160772Y694596D01*
X1160771Y694636D01*
X1160779Y694690D01*
X1160779Y697230D01*
X1160768Y697295D01*
X1160766Y697361D01*
X1160748Y697404D01*
X1160740Y697451D01*
X1160706Y697508D01*
X1160681Y697568D01*
X1160650Y697603D01*
X1160625Y697644D01*
X1160574Y697686D01*
X1160530Y697734D01*
X1160488Y697756D01*
X1160451Y697785D01*
X1160389Y697806D01*
X1160330Y697837D01*
X1160276Y697845D01*
X1160239Y697857D01*
X1160199Y697856D01*
X1160145Y697864D01*
X1156335Y697864D01*
X1156270Y697853D01*
X1156204Y697851D01*
X1156161Y697833D01*
X1156114Y697825D01*
X1156057Y697791D01*
X1155997Y697766D01*
X1155962Y697735D01*
X1155921Y697710D01*
X1155880Y697659D01*
X1155831Y697615D01*
X1155809Y697573D01*
X1155780Y697536D01*
X1155759Y697474D01*
X1155728Y697415D01*
X1155720Y697361D01*
X1155708Y697324D01*
X1155708Y697321D01*
X1155709Y697284D01*
X1155701Y697230D01*
X1155701Y694690D01*
X1155712Y694625D01*
X1155714Y694559D01*
X1155732Y694516D01*
X1155740Y694469D01*
X1155774Y694412D01*
X1155799Y694352D01*
X1155830Y694317D01*
X1155855Y694276D01*
X1155906Y694235D01*
X1155950Y694186D01*
X1155992Y694164D01*
X1156029Y694135D01*
X1156091Y694114D01*
X1156150Y694083D01*
X1156204Y694075D01*
X1156241Y694063D01*
X1156281Y694064D01*
X1156335Y694056D01*
X1160145Y694056D01*
X1160210Y694067D01*
G37*
G36*
X642050Y694067D02*
X642050Y694067D01*
X642116Y694069D01*
X642159Y694087D01*
X642206Y694095D01*
X642263Y694129D01*
X642323Y694154D01*
X642358Y694185D01*
X642399Y694210D01*
X642441Y694261D01*
X642489Y694305D01*
X642511Y694347D01*
X642540Y694384D01*
X642561Y694446D01*
X642592Y694505D01*
X642600Y694559D01*
X642612Y694596D01*
X642611Y694636D01*
X642619Y694690D01*
X642619Y697230D01*
X642608Y697295D01*
X642606Y697361D01*
X642588Y697404D01*
X642580Y697451D01*
X642546Y697508D01*
X642521Y697568D01*
X642490Y697603D01*
X642465Y697644D01*
X642414Y697686D01*
X642370Y697734D01*
X642328Y697756D01*
X642291Y697785D01*
X642229Y697806D01*
X642170Y697837D01*
X642116Y697845D01*
X642079Y697857D01*
X642039Y697856D01*
X641985Y697864D01*
X638175Y697864D01*
X638110Y697853D01*
X638044Y697851D01*
X638001Y697833D01*
X637954Y697825D01*
X637897Y697791D01*
X637837Y697766D01*
X637802Y697735D01*
X637761Y697710D01*
X637720Y697659D01*
X637671Y697615D01*
X637649Y697573D01*
X637620Y697536D01*
X637599Y697474D01*
X637568Y697415D01*
X637560Y697361D01*
X637548Y697324D01*
X637548Y697321D01*
X637549Y697284D01*
X637541Y697230D01*
X637541Y694690D01*
X637552Y694625D01*
X637554Y694559D01*
X637572Y694516D01*
X637580Y694469D01*
X637614Y694412D01*
X637639Y694352D01*
X637670Y694317D01*
X637695Y694276D01*
X637746Y694235D01*
X637790Y694186D01*
X637832Y694164D01*
X637869Y694135D01*
X637931Y694114D01*
X637990Y694083D01*
X638044Y694075D01*
X638081Y694063D01*
X638121Y694064D01*
X638175Y694056D01*
X641985Y694056D01*
X642050Y694067D01*
G37*
G36*
X1170370Y694067D02*
X1170370Y694067D01*
X1170436Y694069D01*
X1170479Y694087D01*
X1170526Y694095D01*
X1170583Y694129D01*
X1170643Y694154D01*
X1170678Y694185D01*
X1170719Y694210D01*
X1170761Y694261D01*
X1170809Y694305D01*
X1170831Y694347D01*
X1170860Y694384D01*
X1170881Y694446D01*
X1170912Y694505D01*
X1170920Y694559D01*
X1170932Y694596D01*
X1170931Y694636D01*
X1170939Y694690D01*
X1170939Y697230D01*
X1170928Y697295D01*
X1170926Y697361D01*
X1170908Y697404D01*
X1170900Y697451D01*
X1170866Y697508D01*
X1170841Y697568D01*
X1170810Y697603D01*
X1170785Y697644D01*
X1170734Y697686D01*
X1170690Y697734D01*
X1170648Y697756D01*
X1170611Y697785D01*
X1170549Y697806D01*
X1170490Y697837D01*
X1170436Y697845D01*
X1170399Y697857D01*
X1170359Y697856D01*
X1170305Y697864D01*
X1166495Y697864D01*
X1166430Y697853D01*
X1166364Y697851D01*
X1166321Y697833D01*
X1166274Y697825D01*
X1166217Y697791D01*
X1166157Y697766D01*
X1166122Y697735D01*
X1166081Y697710D01*
X1166040Y697659D01*
X1165991Y697615D01*
X1165969Y697573D01*
X1165940Y697536D01*
X1165919Y697474D01*
X1165888Y697415D01*
X1165880Y697361D01*
X1165868Y697324D01*
X1165868Y697321D01*
X1165869Y697284D01*
X1165861Y697230D01*
X1165861Y694690D01*
X1165872Y694625D01*
X1165874Y694559D01*
X1165892Y694516D01*
X1165900Y694469D01*
X1165934Y694412D01*
X1165959Y694352D01*
X1165990Y694317D01*
X1166015Y694276D01*
X1166066Y694235D01*
X1166110Y694186D01*
X1166152Y694164D01*
X1166189Y694135D01*
X1166251Y694114D01*
X1166310Y694083D01*
X1166364Y694075D01*
X1166401Y694063D01*
X1166441Y694064D01*
X1166495Y694056D01*
X1170305Y694056D01*
X1170370Y694067D01*
G37*
G36*
X911290Y694067D02*
X911290Y694067D01*
X911356Y694069D01*
X911399Y694087D01*
X911446Y694095D01*
X911503Y694129D01*
X911563Y694154D01*
X911598Y694185D01*
X911639Y694210D01*
X911681Y694261D01*
X911729Y694305D01*
X911751Y694347D01*
X911780Y694384D01*
X911801Y694446D01*
X911832Y694505D01*
X911840Y694559D01*
X911852Y694596D01*
X911851Y694636D01*
X911859Y694690D01*
X911859Y697230D01*
X911848Y697295D01*
X911846Y697361D01*
X911828Y697404D01*
X911820Y697451D01*
X911786Y697508D01*
X911761Y697568D01*
X911730Y697603D01*
X911705Y697644D01*
X911654Y697686D01*
X911610Y697734D01*
X911568Y697756D01*
X911531Y697785D01*
X911469Y697806D01*
X911410Y697837D01*
X911356Y697845D01*
X911319Y697857D01*
X911279Y697856D01*
X911225Y697864D01*
X907415Y697864D01*
X907350Y697853D01*
X907284Y697851D01*
X907241Y697833D01*
X907194Y697825D01*
X907137Y697791D01*
X907077Y697766D01*
X907042Y697735D01*
X907001Y697710D01*
X906960Y697659D01*
X906911Y697615D01*
X906889Y697573D01*
X906860Y697536D01*
X906839Y697474D01*
X906808Y697415D01*
X906800Y697361D01*
X906788Y697324D01*
X906788Y697321D01*
X906789Y697284D01*
X906781Y697230D01*
X906781Y694690D01*
X906792Y694625D01*
X906794Y694559D01*
X906812Y694516D01*
X906820Y694469D01*
X906854Y694412D01*
X906879Y694352D01*
X906910Y694317D01*
X906935Y694276D01*
X906986Y694235D01*
X907030Y694186D01*
X907072Y694164D01*
X907109Y694135D01*
X907171Y694114D01*
X907230Y694083D01*
X907284Y694075D01*
X907321Y694063D01*
X907361Y694064D01*
X907415Y694056D01*
X911225Y694056D01*
X911290Y694067D01*
G37*
G36*
X1419290Y694067D02*
X1419290Y694067D01*
X1419356Y694069D01*
X1419399Y694087D01*
X1419446Y694095D01*
X1419503Y694129D01*
X1419563Y694154D01*
X1419598Y694185D01*
X1419639Y694210D01*
X1419681Y694261D01*
X1419729Y694305D01*
X1419751Y694347D01*
X1419780Y694384D01*
X1419801Y694446D01*
X1419832Y694505D01*
X1419840Y694559D01*
X1419852Y694596D01*
X1419851Y694636D01*
X1419859Y694690D01*
X1419859Y697230D01*
X1419848Y697295D01*
X1419846Y697361D01*
X1419828Y697404D01*
X1419820Y697451D01*
X1419786Y697508D01*
X1419761Y697568D01*
X1419730Y697603D01*
X1419705Y697644D01*
X1419654Y697686D01*
X1419610Y697734D01*
X1419568Y697756D01*
X1419531Y697785D01*
X1419469Y697806D01*
X1419410Y697837D01*
X1419356Y697845D01*
X1419319Y697857D01*
X1419279Y697856D01*
X1419225Y697864D01*
X1415415Y697864D01*
X1415350Y697853D01*
X1415284Y697851D01*
X1415241Y697833D01*
X1415194Y697825D01*
X1415137Y697791D01*
X1415077Y697766D01*
X1415042Y697735D01*
X1415001Y697710D01*
X1414960Y697659D01*
X1414911Y697615D01*
X1414889Y697573D01*
X1414860Y697536D01*
X1414839Y697474D01*
X1414808Y697415D01*
X1414800Y697361D01*
X1414788Y697324D01*
X1414788Y697321D01*
X1414789Y697284D01*
X1414781Y697230D01*
X1414781Y694690D01*
X1414792Y694625D01*
X1414794Y694559D01*
X1414812Y694516D01*
X1414820Y694469D01*
X1414854Y694412D01*
X1414879Y694352D01*
X1414910Y694317D01*
X1414935Y694276D01*
X1414986Y694235D01*
X1415030Y694186D01*
X1415072Y694164D01*
X1415109Y694135D01*
X1415171Y694114D01*
X1415230Y694083D01*
X1415284Y694075D01*
X1415321Y694063D01*
X1415361Y694064D01*
X1415415Y694056D01*
X1419225Y694056D01*
X1419290Y694067D01*
G37*
G36*
X652210Y694067D02*
X652210Y694067D01*
X652276Y694069D01*
X652319Y694087D01*
X652366Y694095D01*
X652423Y694129D01*
X652483Y694154D01*
X652518Y694185D01*
X652559Y694210D01*
X652601Y694261D01*
X652649Y694305D01*
X652671Y694347D01*
X652700Y694384D01*
X652721Y694446D01*
X652752Y694505D01*
X652760Y694559D01*
X652772Y694596D01*
X652771Y694636D01*
X652779Y694690D01*
X652779Y697230D01*
X652768Y697295D01*
X652766Y697361D01*
X652748Y697404D01*
X652740Y697451D01*
X652706Y697508D01*
X652681Y697568D01*
X652650Y697603D01*
X652625Y697644D01*
X652574Y697686D01*
X652530Y697734D01*
X652488Y697756D01*
X652451Y697785D01*
X652389Y697806D01*
X652330Y697837D01*
X652276Y697845D01*
X652239Y697857D01*
X652199Y697856D01*
X652145Y697864D01*
X648335Y697864D01*
X648270Y697853D01*
X648204Y697851D01*
X648161Y697833D01*
X648114Y697825D01*
X648057Y697791D01*
X647997Y697766D01*
X647962Y697735D01*
X647921Y697710D01*
X647880Y697659D01*
X647831Y697615D01*
X647809Y697573D01*
X647780Y697536D01*
X647759Y697474D01*
X647728Y697415D01*
X647720Y697361D01*
X647708Y697324D01*
X647708Y697321D01*
X647709Y697284D01*
X647701Y697230D01*
X647701Y694690D01*
X647712Y694625D01*
X647714Y694559D01*
X647732Y694516D01*
X647740Y694469D01*
X647774Y694412D01*
X647799Y694352D01*
X647830Y694317D01*
X647855Y694276D01*
X647906Y694235D01*
X647950Y694186D01*
X647992Y694164D01*
X648029Y694135D01*
X648091Y694114D01*
X648150Y694083D01*
X648204Y694075D01*
X648241Y694063D01*
X648281Y694064D01*
X648335Y694056D01*
X652145Y694056D01*
X652210Y694067D01*
G37*
G36*
X642050Y953147D02*
X642050Y953147D01*
X642116Y953149D01*
X642159Y953167D01*
X642206Y953175D01*
X642263Y953209D01*
X642323Y953234D01*
X642358Y953265D01*
X642399Y953290D01*
X642441Y953341D01*
X642489Y953385D01*
X642511Y953427D01*
X642540Y953464D01*
X642561Y953526D01*
X642592Y953585D01*
X642600Y953639D01*
X642612Y953676D01*
X642611Y953716D01*
X642619Y953770D01*
X642619Y956310D01*
X642608Y956375D01*
X642606Y956441D01*
X642588Y956484D01*
X642580Y956531D01*
X642546Y956588D01*
X642521Y956648D01*
X642490Y956683D01*
X642465Y956724D01*
X642414Y956766D01*
X642370Y956814D01*
X642328Y956836D01*
X642291Y956865D01*
X642229Y956886D01*
X642170Y956917D01*
X642116Y956925D01*
X642079Y956937D01*
X642039Y956936D01*
X641985Y956944D01*
X638175Y956944D01*
X638110Y956933D01*
X638044Y956931D01*
X638001Y956913D01*
X637954Y956905D01*
X637897Y956871D01*
X637837Y956846D01*
X637802Y956815D01*
X637761Y956790D01*
X637720Y956739D01*
X637671Y956695D01*
X637649Y956653D01*
X637620Y956616D01*
X637599Y956554D01*
X637568Y956495D01*
X637560Y956441D01*
X637548Y956404D01*
X637548Y956401D01*
X637549Y956364D01*
X637541Y956310D01*
X637541Y953770D01*
X637552Y953705D01*
X637554Y953639D01*
X637572Y953596D01*
X637580Y953549D01*
X637614Y953492D01*
X637639Y953432D01*
X637670Y953397D01*
X637695Y953356D01*
X637746Y953315D01*
X637790Y953266D01*
X637832Y953244D01*
X637869Y953215D01*
X637931Y953194D01*
X637990Y953163D01*
X638044Y953155D01*
X638081Y953143D01*
X638121Y953144D01*
X638175Y953136D01*
X641985Y953136D01*
X642050Y953147D01*
G37*
G36*
X1419290Y953147D02*
X1419290Y953147D01*
X1419356Y953149D01*
X1419399Y953167D01*
X1419446Y953175D01*
X1419503Y953209D01*
X1419563Y953234D01*
X1419598Y953265D01*
X1419639Y953290D01*
X1419681Y953341D01*
X1419729Y953385D01*
X1419751Y953427D01*
X1419780Y953464D01*
X1419801Y953526D01*
X1419832Y953585D01*
X1419840Y953639D01*
X1419852Y953676D01*
X1419851Y953716D01*
X1419859Y953770D01*
X1419859Y956310D01*
X1419848Y956375D01*
X1419846Y956441D01*
X1419828Y956484D01*
X1419820Y956531D01*
X1419786Y956588D01*
X1419761Y956648D01*
X1419730Y956683D01*
X1419705Y956724D01*
X1419654Y956766D01*
X1419610Y956814D01*
X1419568Y956836D01*
X1419531Y956865D01*
X1419469Y956886D01*
X1419410Y956917D01*
X1419356Y956925D01*
X1419319Y956937D01*
X1419279Y956936D01*
X1419225Y956944D01*
X1415415Y956944D01*
X1415350Y956933D01*
X1415284Y956931D01*
X1415241Y956913D01*
X1415194Y956905D01*
X1415137Y956871D01*
X1415077Y956846D01*
X1415042Y956815D01*
X1415001Y956790D01*
X1414960Y956739D01*
X1414911Y956695D01*
X1414889Y956653D01*
X1414860Y956616D01*
X1414839Y956554D01*
X1414808Y956495D01*
X1414800Y956441D01*
X1414788Y956404D01*
X1414788Y956401D01*
X1414789Y956364D01*
X1414781Y956310D01*
X1414781Y953770D01*
X1414792Y953705D01*
X1414794Y953639D01*
X1414812Y953596D01*
X1414820Y953549D01*
X1414854Y953492D01*
X1414879Y953432D01*
X1414910Y953397D01*
X1414935Y953356D01*
X1414986Y953315D01*
X1415030Y953266D01*
X1415072Y953244D01*
X1415109Y953215D01*
X1415171Y953194D01*
X1415230Y953163D01*
X1415284Y953155D01*
X1415321Y953143D01*
X1415361Y953144D01*
X1415415Y953136D01*
X1419225Y953136D01*
X1419290Y953147D01*
G37*
G36*
X1429450Y953147D02*
X1429450Y953147D01*
X1429516Y953149D01*
X1429559Y953167D01*
X1429606Y953175D01*
X1429663Y953209D01*
X1429723Y953234D01*
X1429758Y953265D01*
X1429799Y953290D01*
X1429841Y953341D01*
X1429889Y953385D01*
X1429911Y953427D01*
X1429940Y953464D01*
X1429961Y953526D01*
X1429992Y953585D01*
X1430000Y953639D01*
X1430012Y953676D01*
X1430011Y953716D01*
X1430019Y953770D01*
X1430019Y956310D01*
X1430008Y956375D01*
X1430006Y956441D01*
X1429988Y956484D01*
X1429980Y956531D01*
X1429946Y956588D01*
X1429921Y956648D01*
X1429890Y956683D01*
X1429865Y956724D01*
X1429814Y956766D01*
X1429770Y956814D01*
X1429728Y956836D01*
X1429691Y956865D01*
X1429629Y956886D01*
X1429570Y956917D01*
X1429516Y956925D01*
X1429479Y956937D01*
X1429439Y956936D01*
X1429385Y956944D01*
X1425575Y956944D01*
X1425510Y956933D01*
X1425444Y956931D01*
X1425401Y956913D01*
X1425354Y956905D01*
X1425297Y956871D01*
X1425237Y956846D01*
X1425202Y956815D01*
X1425161Y956790D01*
X1425120Y956739D01*
X1425071Y956695D01*
X1425049Y956653D01*
X1425020Y956616D01*
X1424999Y956554D01*
X1424968Y956495D01*
X1424960Y956441D01*
X1424948Y956404D01*
X1424948Y956401D01*
X1424949Y956364D01*
X1424941Y956310D01*
X1424941Y953770D01*
X1424952Y953705D01*
X1424954Y953639D01*
X1424972Y953596D01*
X1424980Y953549D01*
X1425014Y953492D01*
X1425039Y953432D01*
X1425070Y953397D01*
X1425095Y953356D01*
X1425146Y953315D01*
X1425190Y953266D01*
X1425232Y953244D01*
X1425269Y953215D01*
X1425331Y953194D01*
X1425390Y953163D01*
X1425444Y953155D01*
X1425481Y953143D01*
X1425521Y953144D01*
X1425575Y953136D01*
X1429385Y953136D01*
X1429450Y953147D01*
G37*
G36*
X1160210Y953147D02*
X1160210Y953147D01*
X1160276Y953149D01*
X1160319Y953167D01*
X1160366Y953175D01*
X1160423Y953209D01*
X1160483Y953234D01*
X1160518Y953265D01*
X1160559Y953290D01*
X1160601Y953341D01*
X1160649Y953385D01*
X1160671Y953427D01*
X1160700Y953464D01*
X1160721Y953526D01*
X1160752Y953585D01*
X1160760Y953639D01*
X1160772Y953676D01*
X1160771Y953716D01*
X1160779Y953770D01*
X1160779Y956310D01*
X1160768Y956375D01*
X1160766Y956441D01*
X1160748Y956484D01*
X1160740Y956531D01*
X1160706Y956588D01*
X1160681Y956648D01*
X1160650Y956683D01*
X1160625Y956724D01*
X1160574Y956766D01*
X1160530Y956814D01*
X1160488Y956836D01*
X1160451Y956865D01*
X1160389Y956886D01*
X1160330Y956917D01*
X1160276Y956925D01*
X1160239Y956937D01*
X1160199Y956936D01*
X1160145Y956944D01*
X1156335Y956944D01*
X1156270Y956933D01*
X1156204Y956931D01*
X1156161Y956913D01*
X1156114Y956905D01*
X1156057Y956871D01*
X1155997Y956846D01*
X1155962Y956815D01*
X1155921Y956790D01*
X1155880Y956739D01*
X1155831Y956695D01*
X1155809Y956653D01*
X1155780Y956616D01*
X1155759Y956554D01*
X1155728Y956495D01*
X1155720Y956441D01*
X1155708Y956404D01*
X1155708Y956401D01*
X1155709Y956364D01*
X1155701Y956310D01*
X1155701Y953770D01*
X1155712Y953705D01*
X1155714Y953639D01*
X1155732Y953596D01*
X1155740Y953549D01*
X1155774Y953492D01*
X1155799Y953432D01*
X1155830Y953397D01*
X1155855Y953356D01*
X1155906Y953315D01*
X1155950Y953266D01*
X1155992Y953244D01*
X1156029Y953215D01*
X1156091Y953194D01*
X1156150Y953163D01*
X1156204Y953155D01*
X1156241Y953143D01*
X1156281Y953144D01*
X1156335Y953136D01*
X1160145Y953136D01*
X1160210Y953147D01*
G37*
G36*
X1170370Y953147D02*
X1170370Y953147D01*
X1170436Y953149D01*
X1170479Y953167D01*
X1170526Y953175D01*
X1170583Y953209D01*
X1170643Y953234D01*
X1170678Y953265D01*
X1170719Y953290D01*
X1170761Y953341D01*
X1170809Y953385D01*
X1170831Y953427D01*
X1170860Y953464D01*
X1170881Y953526D01*
X1170912Y953585D01*
X1170920Y953639D01*
X1170932Y953676D01*
X1170931Y953716D01*
X1170939Y953770D01*
X1170939Y956310D01*
X1170928Y956375D01*
X1170926Y956441D01*
X1170908Y956484D01*
X1170900Y956531D01*
X1170866Y956588D01*
X1170841Y956648D01*
X1170810Y956683D01*
X1170785Y956724D01*
X1170734Y956766D01*
X1170690Y956814D01*
X1170648Y956836D01*
X1170611Y956865D01*
X1170549Y956886D01*
X1170490Y956917D01*
X1170436Y956925D01*
X1170399Y956937D01*
X1170359Y956936D01*
X1170305Y956944D01*
X1166495Y956944D01*
X1166430Y956933D01*
X1166364Y956931D01*
X1166321Y956913D01*
X1166274Y956905D01*
X1166217Y956871D01*
X1166157Y956846D01*
X1166122Y956815D01*
X1166081Y956790D01*
X1166040Y956739D01*
X1165991Y956695D01*
X1165969Y956653D01*
X1165940Y956616D01*
X1165919Y956554D01*
X1165888Y956495D01*
X1165880Y956441D01*
X1165868Y956404D01*
X1165868Y956401D01*
X1165869Y956364D01*
X1165861Y956310D01*
X1165861Y953770D01*
X1165872Y953705D01*
X1165874Y953639D01*
X1165892Y953596D01*
X1165900Y953549D01*
X1165934Y953492D01*
X1165959Y953432D01*
X1165990Y953397D01*
X1166015Y953356D01*
X1166066Y953315D01*
X1166110Y953266D01*
X1166152Y953244D01*
X1166189Y953215D01*
X1166251Y953194D01*
X1166310Y953163D01*
X1166364Y953155D01*
X1166401Y953143D01*
X1166441Y953144D01*
X1166495Y953136D01*
X1170305Y953136D01*
X1170370Y953147D01*
G37*
G36*
X123890Y953147D02*
X123890Y953147D01*
X123956Y953149D01*
X123999Y953167D01*
X124046Y953175D01*
X124103Y953209D01*
X124163Y953234D01*
X124198Y953265D01*
X124239Y953290D01*
X124281Y953341D01*
X124329Y953385D01*
X124351Y953427D01*
X124380Y953464D01*
X124401Y953526D01*
X124432Y953585D01*
X124440Y953639D01*
X124452Y953676D01*
X124451Y953716D01*
X124459Y953770D01*
X124459Y956310D01*
X124448Y956375D01*
X124446Y956441D01*
X124428Y956484D01*
X124420Y956531D01*
X124386Y956588D01*
X124361Y956648D01*
X124330Y956683D01*
X124305Y956724D01*
X124254Y956766D01*
X124210Y956814D01*
X124168Y956836D01*
X124131Y956865D01*
X124069Y956886D01*
X124010Y956917D01*
X123956Y956925D01*
X123919Y956937D01*
X123879Y956936D01*
X123825Y956944D01*
X120015Y956944D01*
X119950Y956933D01*
X119884Y956931D01*
X119841Y956913D01*
X119794Y956905D01*
X119737Y956871D01*
X119677Y956846D01*
X119642Y956815D01*
X119601Y956790D01*
X119560Y956739D01*
X119511Y956695D01*
X119489Y956653D01*
X119460Y956616D01*
X119439Y956554D01*
X119408Y956495D01*
X119400Y956441D01*
X119388Y956404D01*
X119388Y956401D01*
X119389Y956364D01*
X119381Y956310D01*
X119381Y953770D01*
X119392Y953705D01*
X119394Y953639D01*
X119412Y953596D01*
X119420Y953549D01*
X119454Y953492D01*
X119479Y953432D01*
X119510Y953397D01*
X119535Y953356D01*
X119586Y953315D01*
X119630Y953266D01*
X119672Y953244D01*
X119709Y953215D01*
X119771Y953194D01*
X119830Y953163D01*
X119884Y953155D01*
X119921Y953143D01*
X119961Y953144D01*
X120015Y953136D01*
X123825Y953136D01*
X123890Y953147D01*
G37*
G36*
X382970Y953147D02*
X382970Y953147D01*
X383036Y953149D01*
X383079Y953167D01*
X383126Y953175D01*
X383183Y953209D01*
X383243Y953234D01*
X383278Y953265D01*
X383319Y953290D01*
X383361Y953341D01*
X383409Y953385D01*
X383431Y953427D01*
X383460Y953464D01*
X383481Y953526D01*
X383512Y953585D01*
X383520Y953639D01*
X383532Y953676D01*
X383531Y953716D01*
X383539Y953770D01*
X383539Y956310D01*
X383528Y956375D01*
X383526Y956441D01*
X383508Y956484D01*
X383500Y956531D01*
X383466Y956588D01*
X383441Y956648D01*
X383410Y956683D01*
X383385Y956724D01*
X383334Y956766D01*
X383290Y956814D01*
X383248Y956836D01*
X383211Y956865D01*
X383149Y956886D01*
X383090Y956917D01*
X383036Y956925D01*
X382999Y956937D01*
X382959Y956936D01*
X382905Y956944D01*
X379095Y956944D01*
X379030Y956933D01*
X378964Y956931D01*
X378921Y956913D01*
X378874Y956905D01*
X378817Y956871D01*
X378757Y956846D01*
X378722Y956815D01*
X378681Y956790D01*
X378640Y956739D01*
X378591Y956695D01*
X378569Y956653D01*
X378540Y956616D01*
X378519Y956554D01*
X378488Y956495D01*
X378480Y956441D01*
X378468Y956404D01*
X378468Y956401D01*
X378469Y956364D01*
X378461Y956310D01*
X378461Y953770D01*
X378472Y953705D01*
X378474Y953639D01*
X378492Y953596D01*
X378500Y953549D01*
X378534Y953492D01*
X378559Y953432D01*
X378590Y953397D01*
X378615Y953356D01*
X378666Y953315D01*
X378710Y953266D01*
X378752Y953244D01*
X378789Y953215D01*
X378851Y953194D01*
X378910Y953163D01*
X378964Y953155D01*
X379001Y953143D01*
X379041Y953144D01*
X379095Y953136D01*
X382905Y953136D01*
X382970Y953147D01*
G37*
G36*
X652210Y953147D02*
X652210Y953147D01*
X652276Y953149D01*
X652319Y953167D01*
X652366Y953175D01*
X652423Y953209D01*
X652483Y953234D01*
X652518Y953265D01*
X652559Y953290D01*
X652601Y953341D01*
X652649Y953385D01*
X652671Y953427D01*
X652700Y953464D01*
X652721Y953526D01*
X652752Y953585D01*
X652760Y953639D01*
X652772Y953676D01*
X652771Y953716D01*
X652779Y953770D01*
X652779Y956310D01*
X652768Y956375D01*
X652766Y956441D01*
X652748Y956484D01*
X652740Y956531D01*
X652706Y956588D01*
X652681Y956648D01*
X652650Y956683D01*
X652625Y956724D01*
X652574Y956766D01*
X652530Y956814D01*
X652488Y956836D01*
X652451Y956865D01*
X652389Y956886D01*
X652330Y956917D01*
X652276Y956925D01*
X652239Y956937D01*
X652199Y956936D01*
X652145Y956944D01*
X648335Y956944D01*
X648270Y956933D01*
X648204Y956931D01*
X648161Y956913D01*
X648114Y956905D01*
X648057Y956871D01*
X647997Y956846D01*
X647962Y956815D01*
X647921Y956790D01*
X647880Y956739D01*
X647831Y956695D01*
X647809Y956653D01*
X647780Y956616D01*
X647759Y956554D01*
X647728Y956495D01*
X647720Y956441D01*
X647708Y956404D01*
X647708Y956401D01*
X647709Y956364D01*
X647701Y956310D01*
X647701Y953770D01*
X647712Y953705D01*
X647714Y953639D01*
X647732Y953596D01*
X647740Y953549D01*
X647774Y953492D01*
X647799Y953432D01*
X647830Y953397D01*
X647855Y953356D01*
X647906Y953315D01*
X647950Y953266D01*
X647992Y953244D01*
X648029Y953215D01*
X648091Y953194D01*
X648150Y953163D01*
X648204Y953155D01*
X648241Y953143D01*
X648281Y953144D01*
X648335Y953136D01*
X652145Y953136D01*
X652210Y953147D01*
G37*
G36*
X911290Y953147D02*
X911290Y953147D01*
X911356Y953149D01*
X911399Y953167D01*
X911446Y953175D01*
X911503Y953209D01*
X911563Y953234D01*
X911598Y953265D01*
X911639Y953290D01*
X911681Y953341D01*
X911729Y953385D01*
X911751Y953427D01*
X911780Y953464D01*
X911801Y953526D01*
X911832Y953585D01*
X911840Y953639D01*
X911852Y953676D01*
X911851Y953716D01*
X911859Y953770D01*
X911859Y956310D01*
X911848Y956375D01*
X911846Y956441D01*
X911828Y956484D01*
X911820Y956531D01*
X911786Y956588D01*
X911761Y956648D01*
X911730Y956683D01*
X911705Y956724D01*
X911654Y956766D01*
X911610Y956814D01*
X911568Y956836D01*
X911531Y956865D01*
X911469Y956886D01*
X911410Y956917D01*
X911356Y956925D01*
X911319Y956937D01*
X911279Y956936D01*
X911225Y956944D01*
X907415Y956944D01*
X907350Y956933D01*
X907284Y956931D01*
X907241Y956913D01*
X907194Y956905D01*
X907137Y956871D01*
X907077Y956846D01*
X907042Y956815D01*
X907001Y956790D01*
X906960Y956739D01*
X906911Y956695D01*
X906889Y956653D01*
X906860Y956616D01*
X906839Y956554D01*
X906808Y956495D01*
X906800Y956441D01*
X906788Y956404D01*
X906788Y956401D01*
X906789Y956364D01*
X906781Y956310D01*
X906781Y953770D01*
X906792Y953705D01*
X906794Y953639D01*
X906812Y953596D01*
X906820Y953549D01*
X906854Y953492D01*
X906879Y953432D01*
X906910Y953397D01*
X906935Y953356D01*
X906986Y953315D01*
X907030Y953266D01*
X907072Y953244D01*
X907109Y953215D01*
X907171Y953194D01*
X907230Y953163D01*
X907284Y953155D01*
X907321Y953143D01*
X907361Y953144D01*
X907415Y953136D01*
X911225Y953136D01*
X911290Y953147D01*
G37*
G36*
X901130Y953147D02*
X901130Y953147D01*
X901196Y953149D01*
X901239Y953167D01*
X901286Y953175D01*
X901343Y953209D01*
X901403Y953234D01*
X901438Y953265D01*
X901479Y953290D01*
X901521Y953341D01*
X901569Y953385D01*
X901591Y953427D01*
X901620Y953464D01*
X901641Y953526D01*
X901672Y953585D01*
X901680Y953639D01*
X901692Y953676D01*
X901691Y953716D01*
X901699Y953770D01*
X901699Y956310D01*
X901688Y956375D01*
X901686Y956441D01*
X901668Y956484D01*
X901660Y956531D01*
X901626Y956588D01*
X901601Y956648D01*
X901570Y956683D01*
X901545Y956724D01*
X901494Y956766D01*
X901450Y956814D01*
X901408Y956836D01*
X901371Y956865D01*
X901309Y956886D01*
X901250Y956917D01*
X901196Y956925D01*
X901159Y956937D01*
X901119Y956936D01*
X901065Y956944D01*
X897255Y956944D01*
X897190Y956933D01*
X897124Y956931D01*
X897081Y956913D01*
X897034Y956905D01*
X896977Y956871D01*
X896917Y956846D01*
X896882Y956815D01*
X896841Y956790D01*
X896800Y956739D01*
X896751Y956695D01*
X896729Y956653D01*
X896700Y956616D01*
X896679Y956554D01*
X896648Y956495D01*
X896640Y956441D01*
X896628Y956404D01*
X896628Y956401D01*
X896629Y956364D01*
X896621Y956310D01*
X896621Y953770D01*
X896632Y953705D01*
X896634Y953639D01*
X896652Y953596D01*
X896660Y953549D01*
X896694Y953492D01*
X896719Y953432D01*
X896750Y953397D01*
X896775Y953356D01*
X896826Y953315D01*
X896870Y953266D01*
X896912Y953244D01*
X896949Y953215D01*
X897011Y953194D01*
X897070Y953163D01*
X897124Y953155D01*
X897161Y953143D01*
X897201Y953144D01*
X897255Y953136D01*
X901065Y953136D01*
X901130Y953147D01*
G37*
G36*
X393130Y953147D02*
X393130Y953147D01*
X393196Y953149D01*
X393239Y953167D01*
X393286Y953175D01*
X393343Y953209D01*
X393403Y953234D01*
X393438Y953265D01*
X393479Y953290D01*
X393521Y953341D01*
X393569Y953385D01*
X393591Y953427D01*
X393620Y953464D01*
X393641Y953526D01*
X393672Y953585D01*
X393680Y953639D01*
X393692Y953676D01*
X393691Y953716D01*
X393699Y953770D01*
X393699Y956310D01*
X393688Y956375D01*
X393686Y956441D01*
X393668Y956484D01*
X393660Y956531D01*
X393626Y956588D01*
X393601Y956648D01*
X393570Y956683D01*
X393545Y956724D01*
X393494Y956766D01*
X393450Y956814D01*
X393408Y956836D01*
X393371Y956865D01*
X393309Y956886D01*
X393250Y956917D01*
X393196Y956925D01*
X393159Y956937D01*
X393119Y956936D01*
X393065Y956944D01*
X389255Y956944D01*
X389190Y956933D01*
X389124Y956931D01*
X389081Y956913D01*
X389034Y956905D01*
X388977Y956871D01*
X388917Y956846D01*
X388882Y956815D01*
X388841Y956790D01*
X388800Y956739D01*
X388751Y956695D01*
X388729Y956653D01*
X388700Y956616D01*
X388679Y956554D01*
X388648Y956495D01*
X388640Y956441D01*
X388628Y956404D01*
X388628Y956401D01*
X388629Y956364D01*
X388621Y956310D01*
X388621Y953770D01*
X388632Y953705D01*
X388634Y953639D01*
X388652Y953596D01*
X388660Y953549D01*
X388694Y953492D01*
X388719Y953432D01*
X388750Y953397D01*
X388775Y953356D01*
X388826Y953315D01*
X388870Y953266D01*
X388912Y953244D01*
X388949Y953215D01*
X389011Y953194D01*
X389070Y953163D01*
X389124Y953155D01*
X389161Y953143D01*
X389201Y953144D01*
X389255Y953136D01*
X393065Y953136D01*
X393130Y953147D01*
G37*
G36*
X799530Y845197D02*
X799530Y845197D01*
X799596Y845199D01*
X799639Y845217D01*
X799686Y845225D01*
X799743Y845259D01*
X799803Y845284D01*
X799838Y845315D01*
X799879Y845340D01*
X799921Y845391D01*
X799969Y845435D01*
X799991Y845477D01*
X800020Y845514D01*
X800041Y845576D01*
X800072Y845635D01*
X800080Y845689D01*
X800092Y845726D01*
X800091Y845766D01*
X800099Y845820D01*
X800099Y848360D01*
X800088Y848425D01*
X800086Y848491D01*
X800068Y848534D01*
X800060Y848581D01*
X800026Y848638D01*
X800001Y848698D01*
X799970Y848733D01*
X799945Y848774D01*
X799894Y848816D01*
X799850Y848864D01*
X799808Y848886D01*
X799771Y848915D01*
X799709Y848936D01*
X799650Y848967D01*
X799596Y848975D01*
X799559Y848987D01*
X799519Y848986D01*
X799465Y848994D01*
X795655Y848994D01*
X795590Y848983D01*
X795524Y848981D01*
X795481Y848963D01*
X795434Y848955D01*
X795377Y848921D01*
X795317Y848896D01*
X795282Y848865D01*
X795241Y848840D01*
X795200Y848789D01*
X795151Y848745D01*
X795129Y848703D01*
X795100Y848666D01*
X795079Y848604D01*
X795048Y848545D01*
X795040Y848491D01*
X795028Y848454D01*
X795028Y848451D01*
X795029Y848414D01*
X795021Y848360D01*
X795021Y845820D01*
X795032Y845755D01*
X795034Y845689D01*
X795052Y845646D01*
X795060Y845599D01*
X795094Y845542D01*
X795119Y845482D01*
X795150Y845447D01*
X795175Y845406D01*
X795226Y845365D01*
X795270Y845316D01*
X795312Y845294D01*
X795349Y845265D01*
X795411Y845244D01*
X795470Y845213D01*
X795524Y845205D01*
X795561Y845193D01*
X795601Y845194D01*
X795655Y845186D01*
X799465Y845186D01*
X799530Y845197D01*
G37*
G36*
X1317690Y845197D02*
X1317690Y845197D01*
X1317756Y845199D01*
X1317799Y845217D01*
X1317846Y845225D01*
X1317903Y845259D01*
X1317963Y845284D01*
X1317998Y845315D01*
X1318039Y845340D01*
X1318081Y845391D01*
X1318129Y845435D01*
X1318151Y845477D01*
X1318180Y845514D01*
X1318201Y845576D01*
X1318232Y845635D01*
X1318240Y845689D01*
X1318252Y845726D01*
X1318251Y845766D01*
X1318259Y845820D01*
X1318259Y848360D01*
X1318248Y848425D01*
X1318246Y848491D01*
X1318228Y848534D01*
X1318220Y848581D01*
X1318186Y848638D01*
X1318161Y848698D01*
X1318130Y848733D01*
X1318105Y848774D01*
X1318054Y848816D01*
X1318010Y848864D01*
X1317968Y848886D01*
X1317931Y848915D01*
X1317869Y848936D01*
X1317810Y848967D01*
X1317756Y848975D01*
X1317719Y848987D01*
X1317679Y848986D01*
X1317625Y848994D01*
X1313815Y848994D01*
X1313750Y848983D01*
X1313684Y848981D01*
X1313641Y848963D01*
X1313594Y848955D01*
X1313537Y848921D01*
X1313477Y848896D01*
X1313442Y848865D01*
X1313401Y848840D01*
X1313360Y848789D01*
X1313311Y848745D01*
X1313289Y848703D01*
X1313260Y848666D01*
X1313239Y848604D01*
X1313208Y848545D01*
X1313200Y848491D01*
X1313188Y848454D01*
X1313188Y848451D01*
X1313189Y848414D01*
X1313181Y848360D01*
X1313181Y845820D01*
X1313192Y845755D01*
X1313194Y845689D01*
X1313212Y845646D01*
X1313220Y845599D01*
X1313254Y845542D01*
X1313279Y845482D01*
X1313310Y845447D01*
X1313335Y845406D01*
X1313386Y845365D01*
X1313430Y845316D01*
X1313472Y845294D01*
X1313509Y845265D01*
X1313571Y845244D01*
X1313630Y845213D01*
X1313684Y845205D01*
X1313721Y845193D01*
X1313761Y845194D01*
X1313815Y845186D01*
X1317625Y845186D01*
X1317690Y845197D01*
G37*
G36*
X1419290Y434987D02*
X1419290Y434987D01*
X1419356Y434989D01*
X1419399Y435007D01*
X1419446Y435015D01*
X1419503Y435049D01*
X1419563Y435074D01*
X1419598Y435105D01*
X1419639Y435130D01*
X1419681Y435181D01*
X1419729Y435225D01*
X1419751Y435267D01*
X1419780Y435304D01*
X1419801Y435366D01*
X1419832Y435425D01*
X1419840Y435479D01*
X1419852Y435516D01*
X1419851Y435556D01*
X1419859Y435610D01*
X1419859Y438150D01*
X1419848Y438215D01*
X1419846Y438281D01*
X1419828Y438324D01*
X1419820Y438371D01*
X1419786Y438428D01*
X1419761Y438488D01*
X1419730Y438523D01*
X1419705Y438564D01*
X1419654Y438606D01*
X1419610Y438654D01*
X1419568Y438676D01*
X1419531Y438705D01*
X1419469Y438726D01*
X1419410Y438757D01*
X1419356Y438765D01*
X1419319Y438777D01*
X1419279Y438776D01*
X1419225Y438784D01*
X1415415Y438784D01*
X1415350Y438773D01*
X1415284Y438771D01*
X1415241Y438753D01*
X1415194Y438745D01*
X1415137Y438711D01*
X1415077Y438686D01*
X1415042Y438655D01*
X1415001Y438630D01*
X1414960Y438579D01*
X1414911Y438535D01*
X1414889Y438493D01*
X1414860Y438456D01*
X1414839Y438394D01*
X1414808Y438335D01*
X1414800Y438281D01*
X1414788Y438244D01*
X1414788Y438241D01*
X1414789Y438204D01*
X1414781Y438150D01*
X1414781Y435610D01*
X1414792Y435545D01*
X1414794Y435479D01*
X1414812Y435436D01*
X1414820Y435389D01*
X1414854Y435332D01*
X1414879Y435272D01*
X1414910Y435237D01*
X1414935Y435196D01*
X1414986Y435155D01*
X1415030Y435106D01*
X1415072Y435084D01*
X1415109Y435055D01*
X1415171Y435034D01*
X1415230Y435003D01*
X1415284Y434995D01*
X1415321Y434983D01*
X1415361Y434984D01*
X1415415Y434976D01*
X1419225Y434976D01*
X1419290Y434987D01*
G37*
G36*
X911290Y434987D02*
X911290Y434987D01*
X911356Y434989D01*
X911399Y435007D01*
X911446Y435015D01*
X911503Y435049D01*
X911563Y435074D01*
X911598Y435105D01*
X911639Y435130D01*
X911681Y435181D01*
X911729Y435225D01*
X911751Y435267D01*
X911780Y435304D01*
X911801Y435366D01*
X911832Y435425D01*
X911840Y435479D01*
X911852Y435516D01*
X911851Y435556D01*
X911859Y435610D01*
X911859Y438150D01*
X911848Y438215D01*
X911846Y438281D01*
X911828Y438324D01*
X911820Y438371D01*
X911786Y438428D01*
X911761Y438488D01*
X911730Y438523D01*
X911705Y438564D01*
X911654Y438606D01*
X911610Y438654D01*
X911568Y438676D01*
X911531Y438705D01*
X911469Y438726D01*
X911410Y438757D01*
X911356Y438765D01*
X911319Y438777D01*
X911279Y438776D01*
X911225Y438784D01*
X907415Y438784D01*
X907350Y438773D01*
X907284Y438771D01*
X907241Y438753D01*
X907194Y438745D01*
X907137Y438711D01*
X907077Y438686D01*
X907042Y438655D01*
X907001Y438630D01*
X906960Y438579D01*
X906911Y438535D01*
X906889Y438493D01*
X906860Y438456D01*
X906839Y438394D01*
X906808Y438335D01*
X906800Y438281D01*
X906788Y438244D01*
X906788Y438241D01*
X906789Y438204D01*
X906781Y438150D01*
X906781Y435610D01*
X906792Y435545D01*
X906794Y435479D01*
X906812Y435436D01*
X906820Y435389D01*
X906854Y435332D01*
X906879Y435272D01*
X906910Y435237D01*
X906935Y435196D01*
X906986Y435155D01*
X907030Y435106D01*
X907072Y435084D01*
X907109Y435055D01*
X907171Y435034D01*
X907230Y435003D01*
X907284Y434995D01*
X907321Y434983D01*
X907361Y434984D01*
X907415Y434976D01*
X911225Y434976D01*
X911290Y434987D01*
G37*
G36*
X901130Y434987D02*
X901130Y434987D01*
X901196Y434989D01*
X901239Y435007D01*
X901286Y435015D01*
X901343Y435049D01*
X901403Y435074D01*
X901438Y435105D01*
X901479Y435130D01*
X901521Y435181D01*
X901569Y435225D01*
X901591Y435267D01*
X901620Y435304D01*
X901641Y435366D01*
X901672Y435425D01*
X901680Y435479D01*
X901692Y435516D01*
X901691Y435556D01*
X901699Y435610D01*
X901699Y438150D01*
X901688Y438215D01*
X901686Y438281D01*
X901668Y438324D01*
X901660Y438371D01*
X901626Y438428D01*
X901601Y438488D01*
X901570Y438523D01*
X901545Y438564D01*
X901494Y438606D01*
X901450Y438654D01*
X901408Y438676D01*
X901371Y438705D01*
X901309Y438726D01*
X901250Y438757D01*
X901196Y438765D01*
X901159Y438777D01*
X901119Y438776D01*
X901065Y438784D01*
X897255Y438784D01*
X897190Y438773D01*
X897124Y438771D01*
X897081Y438753D01*
X897034Y438745D01*
X896977Y438711D01*
X896917Y438686D01*
X896882Y438655D01*
X896841Y438630D01*
X896800Y438579D01*
X896751Y438535D01*
X896729Y438493D01*
X896700Y438456D01*
X896679Y438394D01*
X896648Y438335D01*
X896640Y438281D01*
X896628Y438244D01*
X896628Y438241D01*
X896629Y438204D01*
X896621Y438150D01*
X896621Y435610D01*
X896632Y435545D01*
X896634Y435479D01*
X896652Y435436D01*
X896660Y435389D01*
X896694Y435332D01*
X896719Y435272D01*
X896750Y435237D01*
X896775Y435196D01*
X896826Y435155D01*
X896870Y435106D01*
X896912Y435084D01*
X896949Y435055D01*
X897011Y435034D01*
X897070Y435003D01*
X897124Y434995D01*
X897161Y434983D01*
X897201Y434984D01*
X897255Y434976D01*
X901065Y434976D01*
X901130Y434987D01*
G37*
G36*
X1170370Y434987D02*
X1170370Y434987D01*
X1170436Y434989D01*
X1170479Y435007D01*
X1170526Y435015D01*
X1170583Y435049D01*
X1170643Y435074D01*
X1170678Y435105D01*
X1170719Y435130D01*
X1170761Y435181D01*
X1170809Y435225D01*
X1170831Y435267D01*
X1170860Y435304D01*
X1170881Y435366D01*
X1170912Y435425D01*
X1170920Y435479D01*
X1170932Y435516D01*
X1170931Y435556D01*
X1170939Y435610D01*
X1170939Y438150D01*
X1170928Y438215D01*
X1170926Y438281D01*
X1170908Y438324D01*
X1170900Y438371D01*
X1170866Y438428D01*
X1170841Y438488D01*
X1170810Y438523D01*
X1170785Y438564D01*
X1170734Y438606D01*
X1170690Y438654D01*
X1170648Y438676D01*
X1170611Y438705D01*
X1170549Y438726D01*
X1170490Y438757D01*
X1170436Y438765D01*
X1170399Y438777D01*
X1170359Y438776D01*
X1170305Y438784D01*
X1166495Y438784D01*
X1166430Y438773D01*
X1166364Y438771D01*
X1166321Y438753D01*
X1166274Y438745D01*
X1166217Y438711D01*
X1166157Y438686D01*
X1166122Y438655D01*
X1166081Y438630D01*
X1166040Y438579D01*
X1165991Y438535D01*
X1165969Y438493D01*
X1165940Y438456D01*
X1165919Y438394D01*
X1165888Y438335D01*
X1165880Y438281D01*
X1165868Y438244D01*
X1165868Y438241D01*
X1165869Y438204D01*
X1165861Y438150D01*
X1165861Y435610D01*
X1165872Y435545D01*
X1165874Y435479D01*
X1165892Y435436D01*
X1165900Y435389D01*
X1165934Y435332D01*
X1165959Y435272D01*
X1165990Y435237D01*
X1166015Y435196D01*
X1166066Y435155D01*
X1166110Y435106D01*
X1166152Y435084D01*
X1166189Y435055D01*
X1166251Y435034D01*
X1166310Y435003D01*
X1166364Y434995D01*
X1166401Y434983D01*
X1166441Y434984D01*
X1166495Y434976D01*
X1170305Y434976D01*
X1170370Y434987D01*
G37*
G36*
X1160210Y434987D02*
X1160210Y434987D01*
X1160276Y434989D01*
X1160319Y435007D01*
X1160366Y435015D01*
X1160423Y435049D01*
X1160483Y435074D01*
X1160518Y435105D01*
X1160559Y435130D01*
X1160601Y435181D01*
X1160649Y435225D01*
X1160671Y435267D01*
X1160700Y435304D01*
X1160721Y435366D01*
X1160752Y435425D01*
X1160760Y435479D01*
X1160772Y435516D01*
X1160771Y435556D01*
X1160779Y435610D01*
X1160779Y438150D01*
X1160768Y438215D01*
X1160766Y438281D01*
X1160748Y438324D01*
X1160740Y438371D01*
X1160706Y438428D01*
X1160681Y438488D01*
X1160650Y438523D01*
X1160625Y438564D01*
X1160574Y438606D01*
X1160530Y438654D01*
X1160488Y438676D01*
X1160451Y438705D01*
X1160389Y438726D01*
X1160330Y438757D01*
X1160276Y438765D01*
X1160239Y438777D01*
X1160199Y438776D01*
X1160145Y438784D01*
X1156335Y438784D01*
X1156270Y438773D01*
X1156204Y438771D01*
X1156161Y438753D01*
X1156114Y438745D01*
X1156057Y438711D01*
X1155997Y438686D01*
X1155962Y438655D01*
X1155921Y438630D01*
X1155880Y438579D01*
X1155831Y438535D01*
X1155809Y438493D01*
X1155780Y438456D01*
X1155759Y438394D01*
X1155728Y438335D01*
X1155720Y438281D01*
X1155708Y438244D01*
X1155708Y438241D01*
X1155709Y438204D01*
X1155701Y438150D01*
X1155701Y435610D01*
X1155712Y435545D01*
X1155714Y435479D01*
X1155732Y435436D01*
X1155740Y435389D01*
X1155774Y435332D01*
X1155799Y435272D01*
X1155830Y435237D01*
X1155855Y435196D01*
X1155906Y435155D01*
X1155950Y435106D01*
X1155992Y435084D01*
X1156029Y435055D01*
X1156091Y435034D01*
X1156150Y435003D01*
X1156204Y434995D01*
X1156241Y434983D01*
X1156281Y434984D01*
X1156335Y434976D01*
X1160145Y434976D01*
X1160210Y434987D01*
G37*
G36*
X134050Y434987D02*
X134050Y434987D01*
X134116Y434989D01*
X134159Y435007D01*
X134206Y435015D01*
X134263Y435049D01*
X134323Y435074D01*
X134358Y435105D01*
X134399Y435130D01*
X134441Y435181D01*
X134489Y435225D01*
X134511Y435267D01*
X134540Y435304D01*
X134561Y435366D01*
X134592Y435425D01*
X134600Y435479D01*
X134612Y435516D01*
X134611Y435556D01*
X134619Y435610D01*
X134619Y438150D01*
X134608Y438215D01*
X134606Y438281D01*
X134588Y438324D01*
X134580Y438371D01*
X134546Y438428D01*
X134521Y438488D01*
X134490Y438523D01*
X134465Y438564D01*
X134414Y438606D01*
X134370Y438654D01*
X134328Y438676D01*
X134291Y438705D01*
X134229Y438726D01*
X134170Y438757D01*
X134116Y438765D01*
X134079Y438777D01*
X134039Y438776D01*
X133985Y438784D01*
X130175Y438784D01*
X130110Y438773D01*
X130044Y438771D01*
X130001Y438753D01*
X129954Y438745D01*
X129897Y438711D01*
X129837Y438686D01*
X129802Y438655D01*
X129761Y438630D01*
X129720Y438579D01*
X129671Y438535D01*
X129649Y438493D01*
X129620Y438456D01*
X129599Y438394D01*
X129568Y438335D01*
X129560Y438281D01*
X129548Y438244D01*
X129548Y438241D01*
X129549Y438204D01*
X129541Y438150D01*
X129541Y435610D01*
X129552Y435545D01*
X129554Y435479D01*
X129572Y435436D01*
X129580Y435389D01*
X129614Y435332D01*
X129639Y435272D01*
X129670Y435237D01*
X129695Y435196D01*
X129746Y435155D01*
X129790Y435106D01*
X129832Y435084D01*
X129869Y435055D01*
X129931Y435034D01*
X129990Y435003D01*
X130044Y434995D01*
X130081Y434983D01*
X130121Y434984D01*
X130175Y434976D01*
X133985Y434976D01*
X134050Y434987D01*
G37*
G36*
X123890Y434987D02*
X123890Y434987D01*
X123956Y434989D01*
X123999Y435007D01*
X124046Y435015D01*
X124103Y435049D01*
X124163Y435074D01*
X124198Y435105D01*
X124239Y435130D01*
X124281Y435181D01*
X124329Y435225D01*
X124351Y435267D01*
X124380Y435304D01*
X124401Y435366D01*
X124432Y435425D01*
X124440Y435479D01*
X124452Y435516D01*
X124451Y435556D01*
X124459Y435610D01*
X124459Y438150D01*
X124448Y438215D01*
X124446Y438281D01*
X124428Y438324D01*
X124420Y438371D01*
X124386Y438428D01*
X124361Y438488D01*
X124330Y438523D01*
X124305Y438564D01*
X124254Y438606D01*
X124210Y438654D01*
X124168Y438676D01*
X124131Y438705D01*
X124069Y438726D01*
X124010Y438757D01*
X123956Y438765D01*
X123919Y438777D01*
X123879Y438776D01*
X123825Y438784D01*
X120015Y438784D01*
X119950Y438773D01*
X119884Y438771D01*
X119841Y438753D01*
X119794Y438745D01*
X119737Y438711D01*
X119677Y438686D01*
X119642Y438655D01*
X119601Y438630D01*
X119560Y438579D01*
X119511Y438535D01*
X119489Y438493D01*
X119460Y438456D01*
X119439Y438394D01*
X119408Y438335D01*
X119400Y438281D01*
X119388Y438244D01*
X119388Y438241D01*
X119389Y438204D01*
X119381Y438150D01*
X119381Y435610D01*
X119392Y435545D01*
X119394Y435479D01*
X119412Y435436D01*
X119420Y435389D01*
X119454Y435332D01*
X119479Y435272D01*
X119510Y435237D01*
X119535Y435196D01*
X119586Y435155D01*
X119630Y435106D01*
X119672Y435084D01*
X119709Y435055D01*
X119771Y435034D01*
X119830Y435003D01*
X119884Y434995D01*
X119921Y434983D01*
X119961Y434984D01*
X120015Y434976D01*
X123825Y434976D01*
X123890Y434987D01*
G37*
G36*
X393130Y434987D02*
X393130Y434987D01*
X393196Y434989D01*
X393239Y435007D01*
X393286Y435015D01*
X393343Y435049D01*
X393403Y435074D01*
X393438Y435105D01*
X393479Y435130D01*
X393521Y435181D01*
X393569Y435225D01*
X393591Y435267D01*
X393620Y435304D01*
X393641Y435366D01*
X393672Y435425D01*
X393680Y435479D01*
X393692Y435516D01*
X393691Y435556D01*
X393699Y435610D01*
X393699Y438150D01*
X393688Y438215D01*
X393686Y438281D01*
X393668Y438324D01*
X393660Y438371D01*
X393626Y438428D01*
X393601Y438488D01*
X393570Y438523D01*
X393545Y438564D01*
X393494Y438606D01*
X393450Y438654D01*
X393408Y438676D01*
X393371Y438705D01*
X393309Y438726D01*
X393250Y438757D01*
X393196Y438765D01*
X393159Y438777D01*
X393119Y438776D01*
X393065Y438784D01*
X389255Y438784D01*
X389190Y438773D01*
X389124Y438771D01*
X389081Y438753D01*
X389034Y438745D01*
X388977Y438711D01*
X388917Y438686D01*
X388882Y438655D01*
X388841Y438630D01*
X388800Y438579D01*
X388751Y438535D01*
X388729Y438493D01*
X388700Y438456D01*
X388679Y438394D01*
X388648Y438335D01*
X388640Y438281D01*
X388628Y438244D01*
X388628Y438241D01*
X388629Y438204D01*
X388621Y438150D01*
X388621Y435610D01*
X388632Y435545D01*
X388634Y435479D01*
X388652Y435436D01*
X388660Y435389D01*
X388694Y435332D01*
X388719Y435272D01*
X388750Y435237D01*
X388775Y435196D01*
X388826Y435155D01*
X388870Y435106D01*
X388912Y435084D01*
X388949Y435055D01*
X389011Y435034D01*
X389070Y435003D01*
X389124Y434995D01*
X389161Y434983D01*
X389201Y434984D01*
X389255Y434976D01*
X393065Y434976D01*
X393130Y434987D01*
G37*
G36*
X382970Y434987D02*
X382970Y434987D01*
X383036Y434989D01*
X383079Y435007D01*
X383126Y435015D01*
X383183Y435049D01*
X383243Y435074D01*
X383278Y435105D01*
X383319Y435130D01*
X383361Y435181D01*
X383409Y435225D01*
X383431Y435267D01*
X383460Y435304D01*
X383481Y435366D01*
X383512Y435425D01*
X383520Y435479D01*
X383532Y435516D01*
X383531Y435556D01*
X383539Y435610D01*
X383539Y438150D01*
X383528Y438215D01*
X383526Y438281D01*
X383508Y438324D01*
X383500Y438371D01*
X383466Y438428D01*
X383441Y438488D01*
X383410Y438523D01*
X383385Y438564D01*
X383334Y438606D01*
X383290Y438654D01*
X383248Y438676D01*
X383211Y438705D01*
X383149Y438726D01*
X383090Y438757D01*
X383036Y438765D01*
X382999Y438777D01*
X382959Y438776D01*
X382905Y438784D01*
X379095Y438784D01*
X379030Y438773D01*
X378964Y438771D01*
X378921Y438753D01*
X378874Y438745D01*
X378817Y438711D01*
X378757Y438686D01*
X378722Y438655D01*
X378681Y438630D01*
X378640Y438579D01*
X378591Y438535D01*
X378569Y438493D01*
X378540Y438456D01*
X378519Y438394D01*
X378488Y438335D01*
X378480Y438281D01*
X378468Y438244D01*
X378468Y438241D01*
X378469Y438204D01*
X378461Y438150D01*
X378461Y435610D01*
X378472Y435545D01*
X378474Y435479D01*
X378492Y435436D01*
X378500Y435389D01*
X378534Y435332D01*
X378559Y435272D01*
X378590Y435237D01*
X378615Y435196D01*
X378666Y435155D01*
X378710Y435106D01*
X378752Y435084D01*
X378789Y435055D01*
X378851Y435034D01*
X378910Y435003D01*
X378964Y434995D01*
X379001Y434983D01*
X379041Y434984D01*
X379095Y434976D01*
X382905Y434976D01*
X382970Y434987D01*
G37*
G36*
X642050Y434987D02*
X642050Y434987D01*
X642116Y434989D01*
X642159Y435007D01*
X642206Y435015D01*
X642263Y435049D01*
X642323Y435074D01*
X642358Y435105D01*
X642399Y435130D01*
X642441Y435181D01*
X642489Y435225D01*
X642511Y435267D01*
X642540Y435304D01*
X642561Y435366D01*
X642592Y435425D01*
X642600Y435479D01*
X642612Y435516D01*
X642611Y435556D01*
X642619Y435610D01*
X642619Y438150D01*
X642608Y438215D01*
X642606Y438281D01*
X642588Y438324D01*
X642580Y438371D01*
X642546Y438428D01*
X642521Y438488D01*
X642490Y438523D01*
X642465Y438564D01*
X642414Y438606D01*
X642370Y438654D01*
X642328Y438676D01*
X642291Y438705D01*
X642229Y438726D01*
X642170Y438757D01*
X642116Y438765D01*
X642079Y438777D01*
X642039Y438776D01*
X641985Y438784D01*
X638175Y438784D01*
X638110Y438773D01*
X638044Y438771D01*
X638001Y438753D01*
X637954Y438745D01*
X637897Y438711D01*
X637837Y438686D01*
X637802Y438655D01*
X637761Y438630D01*
X637720Y438579D01*
X637671Y438535D01*
X637649Y438493D01*
X637620Y438456D01*
X637599Y438394D01*
X637568Y438335D01*
X637560Y438281D01*
X637548Y438244D01*
X637548Y438241D01*
X637549Y438204D01*
X637541Y438150D01*
X637541Y435610D01*
X637552Y435545D01*
X637554Y435479D01*
X637572Y435436D01*
X637580Y435389D01*
X637614Y435332D01*
X637639Y435272D01*
X637670Y435237D01*
X637695Y435196D01*
X637746Y435155D01*
X637790Y435106D01*
X637832Y435084D01*
X637869Y435055D01*
X637931Y435034D01*
X637990Y435003D01*
X638044Y434995D01*
X638081Y434983D01*
X638121Y434984D01*
X638175Y434976D01*
X641985Y434976D01*
X642050Y434987D01*
G37*
G36*
X1429450Y434987D02*
X1429450Y434987D01*
X1429516Y434989D01*
X1429559Y435007D01*
X1429606Y435015D01*
X1429663Y435049D01*
X1429723Y435074D01*
X1429758Y435105D01*
X1429799Y435130D01*
X1429841Y435181D01*
X1429889Y435225D01*
X1429911Y435267D01*
X1429940Y435304D01*
X1429961Y435366D01*
X1429992Y435425D01*
X1430000Y435479D01*
X1430012Y435516D01*
X1430011Y435556D01*
X1430019Y435610D01*
X1430019Y438150D01*
X1430008Y438215D01*
X1430006Y438281D01*
X1429988Y438324D01*
X1429980Y438371D01*
X1429946Y438428D01*
X1429921Y438488D01*
X1429890Y438523D01*
X1429865Y438564D01*
X1429814Y438606D01*
X1429770Y438654D01*
X1429728Y438676D01*
X1429691Y438705D01*
X1429629Y438726D01*
X1429570Y438757D01*
X1429516Y438765D01*
X1429479Y438777D01*
X1429439Y438776D01*
X1429385Y438784D01*
X1425575Y438784D01*
X1425510Y438773D01*
X1425444Y438771D01*
X1425401Y438753D01*
X1425354Y438745D01*
X1425297Y438711D01*
X1425237Y438686D01*
X1425202Y438655D01*
X1425161Y438630D01*
X1425120Y438579D01*
X1425071Y438535D01*
X1425049Y438493D01*
X1425020Y438456D01*
X1424999Y438394D01*
X1424968Y438335D01*
X1424960Y438281D01*
X1424948Y438244D01*
X1424948Y438241D01*
X1424949Y438204D01*
X1424941Y438150D01*
X1424941Y435610D01*
X1424952Y435545D01*
X1424954Y435479D01*
X1424972Y435436D01*
X1424980Y435389D01*
X1425014Y435332D01*
X1425039Y435272D01*
X1425070Y435237D01*
X1425095Y435196D01*
X1425146Y435155D01*
X1425190Y435106D01*
X1425232Y435084D01*
X1425269Y435055D01*
X1425331Y435034D01*
X1425390Y435003D01*
X1425444Y434995D01*
X1425481Y434983D01*
X1425521Y434984D01*
X1425575Y434976D01*
X1429385Y434976D01*
X1429450Y434987D01*
G37*
G36*
X652210Y434987D02*
X652210Y434987D01*
X652276Y434989D01*
X652319Y435007D01*
X652366Y435015D01*
X652423Y435049D01*
X652483Y435074D01*
X652518Y435105D01*
X652559Y435130D01*
X652601Y435181D01*
X652649Y435225D01*
X652671Y435267D01*
X652700Y435304D01*
X652721Y435366D01*
X652752Y435425D01*
X652760Y435479D01*
X652772Y435516D01*
X652771Y435556D01*
X652779Y435610D01*
X652779Y438150D01*
X652768Y438215D01*
X652766Y438281D01*
X652748Y438324D01*
X652740Y438371D01*
X652706Y438428D01*
X652681Y438488D01*
X652650Y438523D01*
X652625Y438564D01*
X652574Y438606D01*
X652530Y438654D01*
X652488Y438676D01*
X652451Y438705D01*
X652389Y438726D01*
X652330Y438757D01*
X652276Y438765D01*
X652239Y438777D01*
X652199Y438776D01*
X652145Y438784D01*
X648335Y438784D01*
X648270Y438773D01*
X648204Y438771D01*
X648161Y438753D01*
X648114Y438745D01*
X648057Y438711D01*
X647997Y438686D01*
X647962Y438655D01*
X647921Y438630D01*
X647880Y438579D01*
X647831Y438535D01*
X647809Y438493D01*
X647780Y438456D01*
X647759Y438394D01*
X647728Y438335D01*
X647720Y438281D01*
X647708Y438244D01*
X647708Y438241D01*
X647709Y438204D01*
X647701Y438150D01*
X647701Y435610D01*
X647712Y435545D01*
X647714Y435479D01*
X647732Y435436D01*
X647740Y435389D01*
X647774Y435332D01*
X647799Y435272D01*
X647830Y435237D01*
X647855Y435196D01*
X647906Y435155D01*
X647950Y435106D01*
X647992Y435084D01*
X648029Y435055D01*
X648091Y435034D01*
X648150Y435003D01*
X648204Y434995D01*
X648241Y434983D01*
X648281Y434984D01*
X648335Y434976D01*
X652145Y434976D01*
X652210Y434987D01*
G37*
G36*
X799530Y586117D02*
X799530Y586117D01*
X799596Y586119D01*
X799639Y586137D01*
X799686Y586145D01*
X799743Y586179D01*
X799803Y586204D01*
X799838Y586235D01*
X799879Y586260D01*
X799921Y586311D01*
X799969Y586355D01*
X799991Y586397D01*
X800020Y586434D01*
X800041Y586496D01*
X800072Y586555D01*
X800080Y586609D01*
X800092Y586646D01*
X800091Y586686D01*
X800099Y586740D01*
X800099Y589280D01*
X800088Y589345D01*
X800086Y589411D01*
X800068Y589454D01*
X800060Y589501D01*
X800026Y589558D01*
X800001Y589618D01*
X799970Y589653D01*
X799945Y589694D01*
X799894Y589736D01*
X799850Y589784D01*
X799808Y589806D01*
X799771Y589835D01*
X799709Y589856D01*
X799650Y589887D01*
X799596Y589895D01*
X799559Y589907D01*
X799519Y589906D01*
X799465Y589914D01*
X795655Y589914D01*
X795590Y589903D01*
X795524Y589901D01*
X795481Y589883D01*
X795434Y589875D01*
X795377Y589841D01*
X795317Y589816D01*
X795282Y589785D01*
X795241Y589760D01*
X795200Y589709D01*
X795151Y589665D01*
X795129Y589623D01*
X795100Y589586D01*
X795079Y589524D01*
X795048Y589465D01*
X795040Y589411D01*
X795028Y589374D01*
X795028Y589371D01*
X795029Y589334D01*
X795021Y589280D01*
X795021Y586740D01*
X795032Y586675D01*
X795034Y586609D01*
X795052Y586566D01*
X795060Y586519D01*
X795094Y586462D01*
X795119Y586402D01*
X795150Y586367D01*
X795175Y586326D01*
X795226Y586285D01*
X795270Y586236D01*
X795312Y586214D01*
X795349Y586185D01*
X795411Y586164D01*
X795470Y586133D01*
X795524Y586125D01*
X795561Y586113D01*
X795601Y586114D01*
X795655Y586106D01*
X799465Y586106D01*
X799530Y586117D01*
G37*
G36*
X22290Y586117D02*
X22290Y586117D01*
X22356Y586119D01*
X22399Y586137D01*
X22446Y586145D01*
X22503Y586179D01*
X22563Y586204D01*
X22598Y586235D01*
X22639Y586260D01*
X22681Y586311D01*
X22729Y586355D01*
X22751Y586397D01*
X22780Y586434D01*
X22801Y586496D01*
X22832Y586555D01*
X22840Y586609D01*
X22852Y586646D01*
X22851Y586686D01*
X22859Y586740D01*
X22859Y589280D01*
X22848Y589345D01*
X22846Y589411D01*
X22828Y589454D01*
X22820Y589501D01*
X22786Y589558D01*
X22761Y589618D01*
X22730Y589653D01*
X22705Y589694D01*
X22654Y589736D01*
X22610Y589784D01*
X22568Y589806D01*
X22531Y589835D01*
X22469Y589856D01*
X22410Y589887D01*
X22356Y589895D01*
X22319Y589907D01*
X22279Y589906D01*
X22225Y589914D01*
X18415Y589914D01*
X18350Y589903D01*
X18284Y589901D01*
X18241Y589883D01*
X18194Y589875D01*
X18137Y589841D01*
X18077Y589816D01*
X18042Y589785D01*
X18001Y589760D01*
X17960Y589709D01*
X17911Y589665D01*
X17889Y589623D01*
X17860Y589586D01*
X17839Y589524D01*
X17808Y589465D01*
X17800Y589411D01*
X17788Y589374D01*
X17788Y589371D01*
X17789Y589334D01*
X17781Y589280D01*
X17781Y586740D01*
X17792Y586675D01*
X17794Y586609D01*
X17812Y586566D01*
X17820Y586519D01*
X17854Y586462D01*
X17879Y586402D01*
X17910Y586367D01*
X17935Y586326D01*
X17986Y586285D01*
X18030Y586236D01*
X18072Y586214D01*
X18109Y586185D01*
X18171Y586164D01*
X18230Y586133D01*
X18284Y586125D01*
X18321Y586113D01*
X18361Y586114D01*
X18415Y586106D01*
X22225Y586106D01*
X22290Y586117D01*
G37*
G36*
X540450Y586117D02*
X540450Y586117D01*
X540516Y586119D01*
X540559Y586137D01*
X540606Y586145D01*
X540663Y586179D01*
X540723Y586204D01*
X540758Y586235D01*
X540799Y586260D01*
X540841Y586311D01*
X540889Y586355D01*
X540911Y586397D01*
X540940Y586434D01*
X540961Y586496D01*
X540992Y586555D01*
X541000Y586609D01*
X541012Y586646D01*
X541011Y586686D01*
X541019Y586740D01*
X541019Y589280D01*
X541008Y589345D01*
X541006Y589411D01*
X540988Y589454D01*
X540980Y589501D01*
X540946Y589558D01*
X540921Y589618D01*
X540890Y589653D01*
X540865Y589694D01*
X540814Y589736D01*
X540770Y589784D01*
X540728Y589806D01*
X540691Y589835D01*
X540629Y589856D01*
X540570Y589887D01*
X540516Y589895D01*
X540479Y589907D01*
X540439Y589906D01*
X540385Y589914D01*
X536575Y589914D01*
X536510Y589903D01*
X536444Y589901D01*
X536401Y589883D01*
X536354Y589875D01*
X536297Y589841D01*
X536237Y589816D01*
X536202Y589785D01*
X536161Y589760D01*
X536120Y589709D01*
X536071Y589665D01*
X536049Y589623D01*
X536020Y589586D01*
X535999Y589524D01*
X535968Y589465D01*
X535960Y589411D01*
X535948Y589374D01*
X535948Y589371D01*
X535949Y589334D01*
X535941Y589280D01*
X535941Y586740D01*
X535952Y586675D01*
X535954Y586609D01*
X535972Y586566D01*
X535980Y586519D01*
X536014Y586462D01*
X536039Y586402D01*
X536070Y586367D01*
X536095Y586326D01*
X536146Y586285D01*
X536190Y586236D01*
X536232Y586214D01*
X536269Y586185D01*
X536331Y586164D01*
X536390Y586133D01*
X536444Y586125D01*
X536481Y586113D01*
X536521Y586114D01*
X536575Y586106D01*
X540385Y586106D01*
X540450Y586117D01*
G37*
G36*
X1317690Y586117D02*
X1317690Y586117D01*
X1317756Y586119D01*
X1317799Y586137D01*
X1317846Y586145D01*
X1317903Y586179D01*
X1317963Y586204D01*
X1317998Y586235D01*
X1318039Y586260D01*
X1318081Y586311D01*
X1318129Y586355D01*
X1318151Y586397D01*
X1318180Y586434D01*
X1318201Y586496D01*
X1318232Y586555D01*
X1318240Y586609D01*
X1318252Y586646D01*
X1318251Y586686D01*
X1318259Y586740D01*
X1318259Y589280D01*
X1318248Y589345D01*
X1318246Y589411D01*
X1318228Y589454D01*
X1318220Y589501D01*
X1318186Y589558D01*
X1318161Y589618D01*
X1318130Y589653D01*
X1318105Y589694D01*
X1318054Y589736D01*
X1318010Y589784D01*
X1317968Y589806D01*
X1317931Y589835D01*
X1317869Y589856D01*
X1317810Y589887D01*
X1317756Y589895D01*
X1317719Y589907D01*
X1317679Y589906D01*
X1317625Y589914D01*
X1313815Y589914D01*
X1313750Y589903D01*
X1313684Y589901D01*
X1313641Y589883D01*
X1313594Y589875D01*
X1313537Y589841D01*
X1313477Y589816D01*
X1313442Y589785D01*
X1313401Y589760D01*
X1313360Y589709D01*
X1313311Y589665D01*
X1313289Y589623D01*
X1313260Y589586D01*
X1313239Y589524D01*
X1313208Y589465D01*
X1313200Y589411D01*
X1313188Y589374D01*
X1313188Y589371D01*
X1313189Y589334D01*
X1313181Y589280D01*
X1313181Y586740D01*
X1313192Y586675D01*
X1313194Y586609D01*
X1313212Y586566D01*
X1313220Y586519D01*
X1313254Y586462D01*
X1313279Y586402D01*
X1313310Y586367D01*
X1313335Y586326D01*
X1313386Y586285D01*
X1313430Y586236D01*
X1313472Y586214D01*
X1313509Y586185D01*
X1313571Y586164D01*
X1313630Y586133D01*
X1313684Y586125D01*
X1313721Y586113D01*
X1313761Y586114D01*
X1313815Y586106D01*
X1317625Y586106D01*
X1317690Y586117D01*
G37*
G36*
X1058610Y586117D02*
X1058610Y586117D01*
X1058676Y586119D01*
X1058719Y586137D01*
X1058766Y586145D01*
X1058823Y586179D01*
X1058883Y586204D01*
X1058918Y586235D01*
X1058959Y586260D01*
X1059001Y586311D01*
X1059049Y586355D01*
X1059071Y586397D01*
X1059100Y586434D01*
X1059121Y586496D01*
X1059152Y586555D01*
X1059160Y586609D01*
X1059172Y586646D01*
X1059171Y586686D01*
X1059179Y586740D01*
X1059179Y589280D01*
X1059168Y589345D01*
X1059166Y589411D01*
X1059148Y589454D01*
X1059140Y589501D01*
X1059106Y589558D01*
X1059081Y589618D01*
X1059050Y589653D01*
X1059025Y589694D01*
X1058974Y589736D01*
X1058930Y589784D01*
X1058888Y589806D01*
X1058851Y589835D01*
X1058789Y589856D01*
X1058730Y589887D01*
X1058676Y589895D01*
X1058639Y589907D01*
X1058599Y589906D01*
X1058545Y589914D01*
X1054735Y589914D01*
X1054670Y589903D01*
X1054604Y589901D01*
X1054561Y589883D01*
X1054514Y589875D01*
X1054457Y589841D01*
X1054397Y589816D01*
X1054362Y589785D01*
X1054321Y589760D01*
X1054280Y589709D01*
X1054231Y589665D01*
X1054209Y589623D01*
X1054180Y589586D01*
X1054159Y589524D01*
X1054128Y589465D01*
X1054120Y589411D01*
X1054108Y589374D01*
X1054108Y589371D01*
X1054109Y589334D01*
X1054101Y589280D01*
X1054101Y586740D01*
X1054112Y586675D01*
X1054114Y586609D01*
X1054132Y586566D01*
X1054140Y586519D01*
X1054174Y586462D01*
X1054199Y586402D01*
X1054230Y586367D01*
X1054255Y586326D01*
X1054306Y586285D01*
X1054350Y586236D01*
X1054392Y586214D01*
X1054429Y586185D01*
X1054491Y586164D01*
X1054550Y586133D01*
X1054604Y586125D01*
X1054641Y586113D01*
X1054681Y586114D01*
X1054735Y586106D01*
X1058545Y586106D01*
X1058610Y586117D01*
G37*
G36*
X281370Y327037D02*
X281370Y327037D01*
X281436Y327039D01*
X281479Y327057D01*
X281526Y327065D01*
X281583Y327099D01*
X281643Y327124D01*
X281678Y327155D01*
X281719Y327180D01*
X281761Y327231D01*
X281809Y327275D01*
X281831Y327317D01*
X281860Y327354D01*
X281881Y327416D01*
X281912Y327475D01*
X281920Y327529D01*
X281932Y327566D01*
X281931Y327606D01*
X281939Y327660D01*
X281939Y330200D01*
X281928Y330265D01*
X281926Y330331D01*
X281908Y330374D01*
X281900Y330421D01*
X281866Y330478D01*
X281841Y330538D01*
X281810Y330573D01*
X281785Y330614D01*
X281734Y330656D01*
X281690Y330704D01*
X281648Y330726D01*
X281611Y330755D01*
X281549Y330776D01*
X281490Y330807D01*
X281436Y330815D01*
X281399Y330827D01*
X281359Y330826D01*
X281305Y330834D01*
X277495Y330834D01*
X277430Y330823D01*
X277364Y330821D01*
X277321Y330803D01*
X277274Y330795D01*
X277217Y330761D01*
X277157Y330736D01*
X277122Y330705D01*
X277081Y330680D01*
X277040Y330629D01*
X276991Y330585D01*
X276969Y330543D01*
X276940Y330506D01*
X276919Y330444D01*
X276888Y330385D01*
X276880Y330331D01*
X276868Y330294D01*
X276868Y330291D01*
X276869Y330254D01*
X276861Y330200D01*
X276861Y327660D01*
X276872Y327595D01*
X276874Y327529D01*
X276892Y327486D01*
X276900Y327439D01*
X276934Y327382D01*
X276959Y327322D01*
X276990Y327287D01*
X277015Y327246D01*
X277066Y327205D01*
X277110Y327156D01*
X277152Y327134D01*
X277189Y327105D01*
X277251Y327084D01*
X277310Y327053D01*
X277364Y327045D01*
X277401Y327033D01*
X277441Y327034D01*
X277495Y327026D01*
X281305Y327026D01*
X281370Y327037D01*
G37*
G36*
X22290Y327037D02*
X22290Y327037D01*
X22356Y327039D01*
X22399Y327057D01*
X22446Y327065D01*
X22503Y327099D01*
X22563Y327124D01*
X22598Y327155D01*
X22639Y327180D01*
X22681Y327231D01*
X22729Y327275D01*
X22751Y327317D01*
X22780Y327354D01*
X22801Y327416D01*
X22832Y327475D01*
X22840Y327529D01*
X22852Y327566D01*
X22851Y327606D01*
X22859Y327660D01*
X22859Y330200D01*
X22848Y330265D01*
X22846Y330331D01*
X22828Y330374D01*
X22820Y330421D01*
X22786Y330478D01*
X22761Y330538D01*
X22730Y330573D01*
X22705Y330614D01*
X22654Y330656D01*
X22610Y330704D01*
X22568Y330726D01*
X22531Y330755D01*
X22469Y330776D01*
X22410Y330807D01*
X22356Y330815D01*
X22319Y330827D01*
X22279Y330826D01*
X22225Y330834D01*
X18415Y330834D01*
X18350Y330823D01*
X18284Y330821D01*
X18241Y330803D01*
X18194Y330795D01*
X18137Y330761D01*
X18077Y330736D01*
X18042Y330705D01*
X18001Y330680D01*
X17960Y330629D01*
X17911Y330585D01*
X17889Y330543D01*
X17860Y330506D01*
X17839Y330444D01*
X17808Y330385D01*
X17800Y330331D01*
X17788Y330294D01*
X17788Y330291D01*
X17789Y330254D01*
X17781Y330200D01*
X17781Y327660D01*
X17792Y327595D01*
X17794Y327529D01*
X17812Y327486D01*
X17820Y327439D01*
X17854Y327382D01*
X17879Y327322D01*
X17910Y327287D01*
X17935Y327246D01*
X17986Y327205D01*
X18030Y327156D01*
X18072Y327134D01*
X18109Y327105D01*
X18171Y327084D01*
X18230Y327053D01*
X18284Y327045D01*
X18321Y327033D01*
X18361Y327034D01*
X18415Y327026D01*
X22225Y327026D01*
X22290Y327037D01*
G37*
G36*
X540450Y327037D02*
X540450Y327037D01*
X540516Y327039D01*
X540559Y327057D01*
X540606Y327065D01*
X540663Y327099D01*
X540723Y327124D01*
X540758Y327155D01*
X540799Y327180D01*
X540841Y327231D01*
X540889Y327275D01*
X540911Y327317D01*
X540940Y327354D01*
X540961Y327416D01*
X540992Y327475D01*
X541000Y327529D01*
X541012Y327566D01*
X541011Y327606D01*
X541019Y327660D01*
X541019Y330200D01*
X541008Y330265D01*
X541006Y330331D01*
X540988Y330374D01*
X540980Y330421D01*
X540946Y330478D01*
X540921Y330538D01*
X540890Y330573D01*
X540865Y330614D01*
X540814Y330656D01*
X540770Y330704D01*
X540728Y330726D01*
X540691Y330755D01*
X540629Y330776D01*
X540570Y330807D01*
X540516Y330815D01*
X540479Y330827D01*
X540439Y330826D01*
X540385Y330834D01*
X536575Y330834D01*
X536510Y330823D01*
X536444Y330821D01*
X536401Y330803D01*
X536354Y330795D01*
X536297Y330761D01*
X536237Y330736D01*
X536202Y330705D01*
X536161Y330680D01*
X536120Y330629D01*
X536071Y330585D01*
X536049Y330543D01*
X536020Y330506D01*
X535999Y330444D01*
X535968Y330385D01*
X535960Y330331D01*
X535948Y330294D01*
X535948Y330291D01*
X535949Y330254D01*
X535941Y330200D01*
X535941Y327660D01*
X535952Y327595D01*
X535954Y327529D01*
X535972Y327486D01*
X535980Y327439D01*
X536014Y327382D01*
X536039Y327322D01*
X536070Y327287D01*
X536095Y327246D01*
X536146Y327205D01*
X536190Y327156D01*
X536232Y327134D01*
X536269Y327105D01*
X536331Y327084D01*
X536390Y327053D01*
X536444Y327045D01*
X536481Y327033D01*
X536521Y327034D01*
X536575Y327026D01*
X540385Y327026D01*
X540450Y327037D01*
G37*
G36*
X1058610Y327037D02*
X1058610Y327037D01*
X1058676Y327039D01*
X1058719Y327057D01*
X1058766Y327065D01*
X1058823Y327099D01*
X1058883Y327124D01*
X1058918Y327155D01*
X1058959Y327180D01*
X1059001Y327231D01*
X1059049Y327275D01*
X1059071Y327317D01*
X1059100Y327354D01*
X1059121Y327416D01*
X1059152Y327475D01*
X1059160Y327529D01*
X1059172Y327566D01*
X1059171Y327606D01*
X1059179Y327660D01*
X1059179Y330200D01*
X1059168Y330265D01*
X1059166Y330331D01*
X1059148Y330374D01*
X1059140Y330421D01*
X1059106Y330478D01*
X1059081Y330538D01*
X1059050Y330573D01*
X1059025Y330614D01*
X1058974Y330656D01*
X1058930Y330704D01*
X1058888Y330726D01*
X1058851Y330755D01*
X1058789Y330776D01*
X1058730Y330807D01*
X1058676Y330815D01*
X1058639Y330827D01*
X1058599Y330826D01*
X1058545Y330834D01*
X1054735Y330834D01*
X1054670Y330823D01*
X1054604Y330821D01*
X1054561Y330803D01*
X1054514Y330795D01*
X1054457Y330761D01*
X1054397Y330736D01*
X1054362Y330705D01*
X1054321Y330680D01*
X1054280Y330629D01*
X1054231Y330585D01*
X1054209Y330543D01*
X1054180Y330506D01*
X1054159Y330444D01*
X1054128Y330385D01*
X1054120Y330331D01*
X1054108Y330294D01*
X1054108Y330291D01*
X1054109Y330254D01*
X1054101Y330200D01*
X1054101Y327660D01*
X1054112Y327595D01*
X1054114Y327529D01*
X1054132Y327486D01*
X1054140Y327439D01*
X1054174Y327382D01*
X1054199Y327322D01*
X1054230Y327287D01*
X1054255Y327246D01*
X1054306Y327205D01*
X1054350Y327156D01*
X1054392Y327134D01*
X1054429Y327105D01*
X1054491Y327084D01*
X1054550Y327053D01*
X1054604Y327045D01*
X1054641Y327033D01*
X1054681Y327034D01*
X1054735Y327026D01*
X1058545Y327026D01*
X1058610Y327037D01*
G37*
G36*
X1317690Y327037D02*
X1317690Y327037D01*
X1317756Y327039D01*
X1317799Y327057D01*
X1317846Y327065D01*
X1317903Y327099D01*
X1317963Y327124D01*
X1317998Y327155D01*
X1318039Y327180D01*
X1318081Y327231D01*
X1318129Y327275D01*
X1318151Y327317D01*
X1318180Y327354D01*
X1318201Y327416D01*
X1318232Y327475D01*
X1318240Y327529D01*
X1318252Y327566D01*
X1318251Y327606D01*
X1318259Y327660D01*
X1318259Y330200D01*
X1318248Y330265D01*
X1318246Y330331D01*
X1318228Y330374D01*
X1318220Y330421D01*
X1318186Y330478D01*
X1318161Y330538D01*
X1318130Y330573D01*
X1318105Y330614D01*
X1318054Y330656D01*
X1318010Y330704D01*
X1317968Y330726D01*
X1317931Y330755D01*
X1317869Y330776D01*
X1317810Y330807D01*
X1317756Y330815D01*
X1317719Y330827D01*
X1317679Y330826D01*
X1317625Y330834D01*
X1313815Y330834D01*
X1313750Y330823D01*
X1313684Y330821D01*
X1313641Y330803D01*
X1313594Y330795D01*
X1313537Y330761D01*
X1313477Y330736D01*
X1313442Y330705D01*
X1313401Y330680D01*
X1313360Y330629D01*
X1313311Y330585D01*
X1313289Y330543D01*
X1313260Y330506D01*
X1313239Y330444D01*
X1313208Y330385D01*
X1313200Y330331D01*
X1313188Y330294D01*
X1313188Y330291D01*
X1313189Y330254D01*
X1313181Y330200D01*
X1313181Y327660D01*
X1313192Y327595D01*
X1313194Y327529D01*
X1313212Y327486D01*
X1313220Y327439D01*
X1313254Y327382D01*
X1313279Y327322D01*
X1313310Y327287D01*
X1313335Y327246D01*
X1313386Y327205D01*
X1313430Y327156D01*
X1313472Y327134D01*
X1313509Y327105D01*
X1313571Y327084D01*
X1313630Y327053D01*
X1313684Y327045D01*
X1313721Y327033D01*
X1313761Y327034D01*
X1313815Y327026D01*
X1317625Y327026D01*
X1317690Y327037D01*
G37*
G36*
X799530Y327037D02*
X799530Y327037D01*
X799596Y327039D01*
X799639Y327057D01*
X799686Y327065D01*
X799743Y327099D01*
X799803Y327124D01*
X799838Y327155D01*
X799879Y327180D01*
X799921Y327231D01*
X799969Y327275D01*
X799991Y327317D01*
X800020Y327354D01*
X800041Y327416D01*
X800072Y327475D01*
X800080Y327529D01*
X800092Y327566D01*
X800091Y327606D01*
X800099Y327660D01*
X800099Y330200D01*
X800088Y330265D01*
X800086Y330331D01*
X800068Y330374D01*
X800060Y330421D01*
X800026Y330478D01*
X800001Y330538D01*
X799970Y330573D01*
X799945Y330614D01*
X799894Y330656D01*
X799850Y330704D01*
X799808Y330726D01*
X799771Y330755D01*
X799709Y330776D01*
X799650Y330807D01*
X799596Y330815D01*
X799559Y330827D01*
X799519Y330826D01*
X799465Y330834D01*
X795655Y330834D01*
X795590Y330823D01*
X795524Y330821D01*
X795481Y330803D01*
X795434Y330795D01*
X795377Y330761D01*
X795317Y330736D01*
X795282Y330705D01*
X795241Y330680D01*
X795200Y330629D01*
X795151Y330585D01*
X795129Y330543D01*
X795100Y330506D01*
X795079Y330444D01*
X795048Y330385D01*
X795040Y330331D01*
X795028Y330294D01*
X795028Y330291D01*
X795029Y330254D01*
X795021Y330200D01*
X795021Y327660D01*
X795032Y327595D01*
X795034Y327529D01*
X795052Y327486D01*
X795060Y327439D01*
X795094Y327382D01*
X795119Y327322D01*
X795150Y327287D01*
X795175Y327246D01*
X795226Y327205D01*
X795270Y327156D01*
X795312Y327134D01*
X795349Y327105D01*
X795411Y327084D01*
X795470Y327053D01*
X795524Y327045D01*
X795561Y327033D01*
X795601Y327034D01*
X795655Y327026D01*
X799465Y327026D01*
X799530Y327037D01*
G37*
G36*
X642050Y175907D02*
X642050Y175907D01*
X642116Y175909D01*
X642159Y175927D01*
X642206Y175935D01*
X642263Y175969D01*
X642323Y175994D01*
X642358Y176025D01*
X642399Y176050D01*
X642441Y176101D01*
X642489Y176145D01*
X642511Y176187D01*
X642540Y176224D01*
X642561Y176286D01*
X642592Y176345D01*
X642600Y176399D01*
X642612Y176436D01*
X642611Y176476D01*
X642619Y176530D01*
X642619Y179070D01*
X642608Y179135D01*
X642606Y179201D01*
X642588Y179244D01*
X642580Y179291D01*
X642546Y179348D01*
X642521Y179408D01*
X642490Y179443D01*
X642465Y179484D01*
X642414Y179526D01*
X642370Y179574D01*
X642328Y179596D01*
X642291Y179625D01*
X642229Y179646D01*
X642170Y179677D01*
X642116Y179685D01*
X642079Y179697D01*
X642039Y179696D01*
X641985Y179704D01*
X638175Y179704D01*
X638110Y179693D01*
X638044Y179691D01*
X638001Y179673D01*
X637954Y179665D01*
X637897Y179631D01*
X637837Y179606D01*
X637802Y179575D01*
X637761Y179550D01*
X637720Y179499D01*
X637671Y179455D01*
X637649Y179413D01*
X637620Y179376D01*
X637599Y179314D01*
X637568Y179255D01*
X637560Y179201D01*
X637548Y179164D01*
X637548Y179161D01*
X637549Y179124D01*
X637541Y179070D01*
X637541Y176530D01*
X637552Y176465D01*
X637554Y176399D01*
X637572Y176356D01*
X637580Y176309D01*
X637614Y176252D01*
X637639Y176192D01*
X637670Y176157D01*
X637695Y176116D01*
X637746Y176075D01*
X637790Y176026D01*
X637832Y176004D01*
X637869Y175975D01*
X637931Y175954D01*
X637990Y175923D01*
X638044Y175915D01*
X638081Y175903D01*
X638121Y175904D01*
X638175Y175896D01*
X641985Y175896D01*
X642050Y175907D01*
G37*
G36*
X901130Y175907D02*
X901130Y175907D01*
X901196Y175909D01*
X901239Y175927D01*
X901286Y175935D01*
X901343Y175969D01*
X901403Y175994D01*
X901438Y176025D01*
X901479Y176050D01*
X901521Y176101D01*
X901569Y176145D01*
X901591Y176187D01*
X901620Y176224D01*
X901641Y176286D01*
X901672Y176345D01*
X901680Y176399D01*
X901692Y176436D01*
X901691Y176476D01*
X901699Y176530D01*
X901699Y179070D01*
X901688Y179135D01*
X901686Y179201D01*
X901668Y179244D01*
X901660Y179291D01*
X901626Y179348D01*
X901601Y179408D01*
X901570Y179443D01*
X901545Y179484D01*
X901494Y179526D01*
X901450Y179574D01*
X901408Y179596D01*
X901371Y179625D01*
X901309Y179646D01*
X901250Y179677D01*
X901196Y179685D01*
X901159Y179697D01*
X901119Y179696D01*
X901065Y179704D01*
X897255Y179704D01*
X897190Y179693D01*
X897124Y179691D01*
X897081Y179673D01*
X897034Y179665D01*
X896977Y179631D01*
X896917Y179606D01*
X896882Y179575D01*
X896841Y179550D01*
X896800Y179499D01*
X896751Y179455D01*
X896729Y179413D01*
X896700Y179376D01*
X896679Y179314D01*
X896648Y179255D01*
X896640Y179201D01*
X896628Y179164D01*
X896628Y179161D01*
X896629Y179124D01*
X896621Y179070D01*
X896621Y176530D01*
X896632Y176465D01*
X896634Y176399D01*
X896652Y176356D01*
X896660Y176309D01*
X896694Y176252D01*
X896719Y176192D01*
X896750Y176157D01*
X896775Y176116D01*
X896826Y176075D01*
X896870Y176026D01*
X896912Y176004D01*
X896949Y175975D01*
X897011Y175954D01*
X897070Y175923D01*
X897124Y175915D01*
X897161Y175903D01*
X897201Y175904D01*
X897255Y175896D01*
X901065Y175896D01*
X901130Y175907D01*
G37*
G36*
X393130Y175907D02*
X393130Y175907D01*
X393196Y175909D01*
X393239Y175927D01*
X393286Y175935D01*
X393343Y175969D01*
X393403Y175994D01*
X393438Y176025D01*
X393479Y176050D01*
X393521Y176101D01*
X393569Y176145D01*
X393591Y176187D01*
X393620Y176224D01*
X393641Y176286D01*
X393672Y176345D01*
X393680Y176399D01*
X393692Y176436D01*
X393691Y176476D01*
X393699Y176530D01*
X393699Y179070D01*
X393688Y179135D01*
X393686Y179201D01*
X393668Y179244D01*
X393660Y179291D01*
X393626Y179348D01*
X393601Y179408D01*
X393570Y179443D01*
X393545Y179484D01*
X393494Y179526D01*
X393450Y179574D01*
X393408Y179596D01*
X393371Y179625D01*
X393309Y179646D01*
X393250Y179677D01*
X393196Y179685D01*
X393159Y179697D01*
X393119Y179696D01*
X393065Y179704D01*
X389255Y179704D01*
X389190Y179693D01*
X389124Y179691D01*
X389081Y179673D01*
X389034Y179665D01*
X388977Y179631D01*
X388917Y179606D01*
X388882Y179575D01*
X388841Y179550D01*
X388800Y179499D01*
X388751Y179455D01*
X388729Y179413D01*
X388700Y179376D01*
X388679Y179314D01*
X388648Y179255D01*
X388640Y179201D01*
X388628Y179164D01*
X388628Y179161D01*
X388629Y179124D01*
X388621Y179070D01*
X388621Y176530D01*
X388632Y176465D01*
X388634Y176399D01*
X388652Y176356D01*
X388660Y176309D01*
X388694Y176252D01*
X388719Y176192D01*
X388750Y176157D01*
X388775Y176116D01*
X388826Y176075D01*
X388870Y176026D01*
X388912Y176004D01*
X388949Y175975D01*
X389011Y175954D01*
X389070Y175923D01*
X389124Y175915D01*
X389161Y175903D01*
X389201Y175904D01*
X389255Y175896D01*
X393065Y175896D01*
X393130Y175907D01*
G37*
G36*
X652210Y175907D02*
X652210Y175907D01*
X652276Y175909D01*
X652319Y175927D01*
X652366Y175935D01*
X652423Y175969D01*
X652483Y175994D01*
X652518Y176025D01*
X652559Y176050D01*
X652601Y176101D01*
X652649Y176145D01*
X652671Y176187D01*
X652700Y176224D01*
X652721Y176286D01*
X652752Y176345D01*
X652760Y176399D01*
X652772Y176436D01*
X652771Y176476D01*
X652779Y176530D01*
X652779Y179070D01*
X652768Y179135D01*
X652766Y179201D01*
X652748Y179244D01*
X652740Y179291D01*
X652706Y179348D01*
X652681Y179408D01*
X652650Y179443D01*
X652625Y179484D01*
X652574Y179526D01*
X652530Y179574D01*
X652488Y179596D01*
X652451Y179625D01*
X652389Y179646D01*
X652330Y179677D01*
X652276Y179685D01*
X652239Y179697D01*
X652199Y179696D01*
X652145Y179704D01*
X648335Y179704D01*
X648270Y179693D01*
X648204Y179691D01*
X648161Y179673D01*
X648114Y179665D01*
X648057Y179631D01*
X647997Y179606D01*
X647962Y179575D01*
X647921Y179550D01*
X647880Y179499D01*
X647831Y179455D01*
X647809Y179413D01*
X647780Y179376D01*
X647759Y179314D01*
X647728Y179255D01*
X647720Y179201D01*
X647708Y179164D01*
X647708Y179161D01*
X647709Y179124D01*
X647701Y179070D01*
X647701Y176530D01*
X647712Y176465D01*
X647714Y176399D01*
X647732Y176356D01*
X647740Y176309D01*
X647774Y176252D01*
X647799Y176192D01*
X647830Y176157D01*
X647855Y176116D01*
X647906Y176075D01*
X647950Y176026D01*
X647992Y176004D01*
X648029Y175975D01*
X648091Y175954D01*
X648150Y175923D01*
X648204Y175915D01*
X648241Y175903D01*
X648281Y175904D01*
X648335Y175896D01*
X652145Y175896D01*
X652210Y175907D01*
G37*
G36*
X1419290Y175907D02*
X1419290Y175907D01*
X1419356Y175909D01*
X1419399Y175927D01*
X1419446Y175935D01*
X1419503Y175969D01*
X1419563Y175994D01*
X1419598Y176025D01*
X1419639Y176050D01*
X1419681Y176101D01*
X1419729Y176145D01*
X1419751Y176187D01*
X1419780Y176224D01*
X1419801Y176286D01*
X1419832Y176345D01*
X1419840Y176399D01*
X1419852Y176436D01*
X1419851Y176476D01*
X1419859Y176530D01*
X1419859Y179070D01*
X1419848Y179135D01*
X1419846Y179201D01*
X1419828Y179244D01*
X1419820Y179291D01*
X1419786Y179348D01*
X1419761Y179408D01*
X1419730Y179443D01*
X1419705Y179484D01*
X1419654Y179526D01*
X1419610Y179574D01*
X1419568Y179596D01*
X1419531Y179625D01*
X1419469Y179646D01*
X1419410Y179677D01*
X1419356Y179685D01*
X1419319Y179697D01*
X1419279Y179696D01*
X1419225Y179704D01*
X1415415Y179704D01*
X1415350Y179693D01*
X1415284Y179691D01*
X1415241Y179673D01*
X1415194Y179665D01*
X1415137Y179631D01*
X1415077Y179606D01*
X1415042Y179575D01*
X1415001Y179550D01*
X1414960Y179499D01*
X1414911Y179455D01*
X1414889Y179413D01*
X1414860Y179376D01*
X1414839Y179314D01*
X1414808Y179255D01*
X1414800Y179201D01*
X1414788Y179164D01*
X1414788Y179161D01*
X1414789Y179124D01*
X1414781Y179070D01*
X1414781Y176530D01*
X1414792Y176465D01*
X1414794Y176399D01*
X1414812Y176356D01*
X1414820Y176309D01*
X1414854Y176252D01*
X1414879Y176192D01*
X1414910Y176157D01*
X1414935Y176116D01*
X1414986Y176075D01*
X1415030Y176026D01*
X1415072Y176004D01*
X1415109Y175975D01*
X1415171Y175954D01*
X1415230Y175923D01*
X1415284Y175915D01*
X1415321Y175903D01*
X1415361Y175904D01*
X1415415Y175896D01*
X1419225Y175896D01*
X1419290Y175907D01*
G37*
G36*
X134050Y175907D02*
X134050Y175907D01*
X134116Y175909D01*
X134159Y175927D01*
X134206Y175935D01*
X134263Y175969D01*
X134323Y175994D01*
X134358Y176025D01*
X134399Y176050D01*
X134441Y176101D01*
X134489Y176145D01*
X134511Y176187D01*
X134540Y176224D01*
X134561Y176286D01*
X134592Y176345D01*
X134600Y176399D01*
X134612Y176436D01*
X134611Y176476D01*
X134619Y176530D01*
X134619Y179070D01*
X134608Y179135D01*
X134606Y179201D01*
X134588Y179244D01*
X134580Y179291D01*
X134546Y179348D01*
X134521Y179408D01*
X134490Y179443D01*
X134465Y179484D01*
X134414Y179526D01*
X134370Y179574D01*
X134328Y179596D01*
X134291Y179625D01*
X134229Y179646D01*
X134170Y179677D01*
X134116Y179685D01*
X134079Y179697D01*
X134039Y179696D01*
X133985Y179704D01*
X130175Y179704D01*
X130110Y179693D01*
X130044Y179691D01*
X130001Y179673D01*
X129954Y179665D01*
X129897Y179631D01*
X129837Y179606D01*
X129802Y179575D01*
X129761Y179550D01*
X129720Y179499D01*
X129671Y179455D01*
X129649Y179413D01*
X129620Y179376D01*
X129599Y179314D01*
X129568Y179255D01*
X129560Y179201D01*
X129548Y179164D01*
X129548Y179161D01*
X129549Y179124D01*
X129541Y179070D01*
X129541Y176530D01*
X129552Y176465D01*
X129554Y176399D01*
X129572Y176356D01*
X129580Y176309D01*
X129614Y176252D01*
X129639Y176192D01*
X129670Y176157D01*
X129695Y176116D01*
X129746Y176075D01*
X129790Y176026D01*
X129832Y176004D01*
X129869Y175975D01*
X129931Y175954D01*
X129990Y175923D01*
X130044Y175915D01*
X130081Y175903D01*
X130121Y175904D01*
X130175Y175896D01*
X133985Y175896D01*
X134050Y175907D01*
G37*
G36*
X1170370Y175907D02*
X1170370Y175907D01*
X1170436Y175909D01*
X1170479Y175927D01*
X1170526Y175935D01*
X1170583Y175969D01*
X1170643Y175994D01*
X1170678Y176025D01*
X1170719Y176050D01*
X1170761Y176101D01*
X1170809Y176145D01*
X1170831Y176187D01*
X1170860Y176224D01*
X1170881Y176286D01*
X1170912Y176345D01*
X1170920Y176399D01*
X1170932Y176436D01*
X1170931Y176476D01*
X1170939Y176530D01*
X1170939Y179070D01*
X1170928Y179135D01*
X1170926Y179201D01*
X1170908Y179244D01*
X1170900Y179291D01*
X1170866Y179348D01*
X1170841Y179408D01*
X1170810Y179443D01*
X1170785Y179484D01*
X1170734Y179526D01*
X1170690Y179574D01*
X1170648Y179596D01*
X1170611Y179625D01*
X1170549Y179646D01*
X1170490Y179677D01*
X1170436Y179685D01*
X1170399Y179697D01*
X1170359Y179696D01*
X1170305Y179704D01*
X1166495Y179704D01*
X1166430Y179693D01*
X1166364Y179691D01*
X1166321Y179673D01*
X1166274Y179665D01*
X1166217Y179631D01*
X1166157Y179606D01*
X1166122Y179575D01*
X1166081Y179550D01*
X1166040Y179499D01*
X1165991Y179455D01*
X1165969Y179413D01*
X1165940Y179376D01*
X1165919Y179314D01*
X1165888Y179255D01*
X1165880Y179201D01*
X1165868Y179164D01*
X1165868Y179161D01*
X1165869Y179124D01*
X1165861Y179070D01*
X1165861Y176530D01*
X1165872Y176465D01*
X1165874Y176399D01*
X1165892Y176356D01*
X1165900Y176309D01*
X1165934Y176252D01*
X1165959Y176192D01*
X1165990Y176157D01*
X1166015Y176116D01*
X1166066Y176075D01*
X1166110Y176026D01*
X1166152Y176004D01*
X1166189Y175975D01*
X1166251Y175954D01*
X1166310Y175923D01*
X1166364Y175915D01*
X1166401Y175903D01*
X1166441Y175904D01*
X1166495Y175896D01*
X1170305Y175896D01*
X1170370Y175907D01*
G37*
G36*
X1160210Y175907D02*
X1160210Y175907D01*
X1160276Y175909D01*
X1160319Y175927D01*
X1160366Y175935D01*
X1160423Y175969D01*
X1160483Y175994D01*
X1160518Y176025D01*
X1160559Y176050D01*
X1160601Y176101D01*
X1160649Y176145D01*
X1160671Y176187D01*
X1160700Y176224D01*
X1160721Y176286D01*
X1160752Y176345D01*
X1160760Y176399D01*
X1160772Y176436D01*
X1160771Y176476D01*
X1160779Y176530D01*
X1160779Y179070D01*
X1160768Y179135D01*
X1160766Y179201D01*
X1160748Y179244D01*
X1160740Y179291D01*
X1160706Y179348D01*
X1160681Y179408D01*
X1160650Y179443D01*
X1160625Y179484D01*
X1160574Y179526D01*
X1160530Y179574D01*
X1160488Y179596D01*
X1160451Y179625D01*
X1160389Y179646D01*
X1160330Y179677D01*
X1160276Y179685D01*
X1160239Y179697D01*
X1160199Y179696D01*
X1160145Y179704D01*
X1156335Y179704D01*
X1156270Y179693D01*
X1156204Y179691D01*
X1156161Y179673D01*
X1156114Y179665D01*
X1156057Y179631D01*
X1155997Y179606D01*
X1155962Y179575D01*
X1155921Y179550D01*
X1155880Y179499D01*
X1155831Y179455D01*
X1155809Y179413D01*
X1155780Y179376D01*
X1155759Y179314D01*
X1155728Y179255D01*
X1155720Y179201D01*
X1155708Y179164D01*
X1155708Y179161D01*
X1155709Y179124D01*
X1155701Y179070D01*
X1155701Y176530D01*
X1155712Y176465D01*
X1155714Y176399D01*
X1155732Y176356D01*
X1155740Y176309D01*
X1155774Y176252D01*
X1155799Y176192D01*
X1155830Y176157D01*
X1155855Y176116D01*
X1155906Y176075D01*
X1155950Y176026D01*
X1155992Y176004D01*
X1156029Y175975D01*
X1156091Y175954D01*
X1156150Y175923D01*
X1156204Y175915D01*
X1156241Y175903D01*
X1156281Y175904D01*
X1156335Y175896D01*
X1160145Y175896D01*
X1160210Y175907D01*
G37*
G36*
X382970Y175907D02*
X382970Y175907D01*
X383036Y175909D01*
X383079Y175927D01*
X383126Y175935D01*
X383183Y175969D01*
X383243Y175994D01*
X383278Y176025D01*
X383319Y176050D01*
X383361Y176101D01*
X383409Y176145D01*
X383431Y176187D01*
X383460Y176224D01*
X383481Y176286D01*
X383512Y176345D01*
X383520Y176399D01*
X383532Y176436D01*
X383531Y176476D01*
X383539Y176530D01*
X383539Y179070D01*
X383528Y179135D01*
X383526Y179201D01*
X383508Y179244D01*
X383500Y179291D01*
X383466Y179348D01*
X383441Y179408D01*
X383410Y179443D01*
X383385Y179484D01*
X383334Y179526D01*
X383290Y179574D01*
X383248Y179596D01*
X383211Y179625D01*
X383149Y179646D01*
X383090Y179677D01*
X383036Y179685D01*
X382999Y179697D01*
X382959Y179696D01*
X382905Y179704D01*
X379095Y179704D01*
X379030Y179693D01*
X378964Y179691D01*
X378921Y179673D01*
X378874Y179665D01*
X378817Y179631D01*
X378757Y179606D01*
X378722Y179575D01*
X378681Y179550D01*
X378640Y179499D01*
X378591Y179455D01*
X378569Y179413D01*
X378540Y179376D01*
X378519Y179314D01*
X378488Y179255D01*
X378480Y179201D01*
X378468Y179164D01*
X378468Y179161D01*
X378469Y179124D01*
X378461Y179070D01*
X378461Y176530D01*
X378472Y176465D01*
X378474Y176399D01*
X378492Y176356D01*
X378500Y176309D01*
X378534Y176252D01*
X378559Y176192D01*
X378590Y176157D01*
X378615Y176116D01*
X378666Y176075D01*
X378710Y176026D01*
X378752Y176004D01*
X378789Y175975D01*
X378851Y175954D01*
X378910Y175923D01*
X378964Y175915D01*
X379001Y175903D01*
X379041Y175904D01*
X379095Y175896D01*
X382905Y175896D01*
X382970Y175907D01*
G37*
G36*
X911290Y175907D02*
X911290Y175907D01*
X911356Y175909D01*
X911399Y175927D01*
X911446Y175935D01*
X911503Y175969D01*
X911563Y175994D01*
X911598Y176025D01*
X911639Y176050D01*
X911681Y176101D01*
X911729Y176145D01*
X911751Y176187D01*
X911780Y176224D01*
X911801Y176286D01*
X911832Y176345D01*
X911840Y176399D01*
X911852Y176436D01*
X911851Y176476D01*
X911859Y176530D01*
X911859Y179070D01*
X911848Y179135D01*
X911846Y179201D01*
X911828Y179244D01*
X911820Y179291D01*
X911786Y179348D01*
X911761Y179408D01*
X911730Y179443D01*
X911705Y179484D01*
X911654Y179526D01*
X911610Y179574D01*
X911568Y179596D01*
X911531Y179625D01*
X911469Y179646D01*
X911410Y179677D01*
X911356Y179685D01*
X911319Y179697D01*
X911279Y179696D01*
X911225Y179704D01*
X907415Y179704D01*
X907350Y179693D01*
X907284Y179691D01*
X907241Y179673D01*
X907194Y179665D01*
X907137Y179631D01*
X907077Y179606D01*
X907042Y179575D01*
X907001Y179550D01*
X906960Y179499D01*
X906911Y179455D01*
X906889Y179413D01*
X906860Y179376D01*
X906839Y179314D01*
X906808Y179255D01*
X906800Y179201D01*
X906788Y179164D01*
X906788Y179161D01*
X906789Y179124D01*
X906781Y179070D01*
X906781Y176530D01*
X906792Y176465D01*
X906794Y176399D01*
X906812Y176356D01*
X906820Y176309D01*
X906854Y176252D01*
X906879Y176192D01*
X906910Y176157D01*
X906935Y176116D01*
X906986Y176075D01*
X907030Y176026D01*
X907072Y176004D01*
X907109Y175975D01*
X907171Y175954D01*
X907230Y175923D01*
X907284Y175915D01*
X907321Y175903D01*
X907361Y175904D01*
X907415Y175896D01*
X911225Y175896D01*
X911290Y175907D01*
G37*
G36*
X1429450Y175907D02*
X1429450Y175907D01*
X1429516Y175909D01*
X1429559Y175927D01*
X1429606Y175935D01*
X1429663Y175969D01*
X1429723Y175994D01*
X1429758Y176025D01*
X1429799Y176050D01*
X1429841Y176101D01*
X1429889Y176145D01*
X1429911Y176187D01*
X1429940Y176224D01*
X1429961Y176286D01*
X1429992Y176345D01*
X1430000Y176399D01*
X1430012Y176436D01*
X1430011Y176476D01*
X1430019Y176530D01*
X1430019Y179070D01*
X1430008Y179135D01*
X1430006Y179201D01*
X1429988Y179244D01*
X1429980Y179291D01*
X1429946Y179348D01*
X1429921Y179408D01*
X1429890Y179443D01*
X1429865Y179484D01*
X1429814Y179526D01*
X1429770Y179574D01*
X1429728Y179596D01*
X1429691Y179625D01*
X1429629Y179646D01*
X1429570Y179677D01*
X1429516Y179685D01*
X1429479Y179697D01*
X1429439Y179696D01*
X1429385Y179704D01*
X1425575Y179704D01*
X1425510Y179693D01*
X1425444Y179691D01*
X1425401Y179673D01*
X1425354Y179665D01*
X1425297Y179631D01*
X1425237Y179606D01*
X1425202Y179575D01*
X1425161Y179550D01*
X1425120Y179499D01*
X1425071Y179455D01*
X1425049Y179413D01*
X1425020Y179376D01*
X1424999Y179314D01*
X1424968Y179255D01*
X1424960Y179201D01*
X1424948Y179164D01*
X1424948Y179161D01*
X1424949Y179124D01*
X1424941Y179070D01*
X1424941Y176530D01*
X1424952Y176465D01*
X1424954Y176399D01*
X1424972Y176356D01*
X1424980Y176309D01*
X1425014Y176252D01*
X1425039Y176192D01*
X1425070Y176157D01*
X1425095Y176116D01*
X1425146Y176075D01*
X1425190Y176026D01*
X1425232Y176004D01*
X1425269Y175975D01*
X1425331Y175954D01*
X1425390Y175923D01*
X1425444Y175915D01*
X1425481Y175903D01*
X1425521Y175904D01*
X1425575Y175896D01*
X1429385Y175896D01*
X1429450Y175907D01*
G37*
G36*
X123890Y175907D02*
X123890Y175907D01*
X123956Y175909D01*
X123999Y175927D01*
X124046Y175935D01*
X124103Y175969D01*
X124163Y175994D01*
X124198Y176025D01*
X124239Y176050D01*
X124281Y176101D01*
X124329Y176145D01*
X124351Y176187D01*
X124380Y176224D01*
X124401Y176286D01*
X124432Y176345D01*
X124440Y176399D01*
X124452Y176436D01*
X124451Y176476D01*
X124459Y176530D01*
X124459Y179070D01*
X124448Y179135D01*
X124446Y179201D01*
X124428Y179244D01*
X124420Y179291D01*
X124386Y179348D01*
X124361Y179408D01*
X124330Y179443D01*
X124305Y179484D01*
X124254Y179526D01*
X124210Y179574D01*
X124168Y179596D01*
X124131Y179625D01*
X124069Y179646D01*
X124010Y179677D01*
X123956Y179685D01*
X123919Y179697D01*
X123879Y179696D01*
X123825Y179704D01*
X120015Y179704D01*
X119950Y179693D01*
X119884Y179691D01*
X119841Y179673D01*
X119794Y179665D01*
X119737Y179631D01*
X119677Y179606D01*
X119642Y179575D01*
X119601Y179550D01*
X119560Y179499D01*
X119511Y179455D01*
X119489Y179413D01*
X119460Y179376D01*
X119439Y179314D01*
X119408Y179255D01*
X119400Y179201D01*
X119388Y179164D01*
X119388Y179161D01*
X119389Y179124D01*
X119381Y179070D01*
X119381Y176530D01*
X119392Y176465D01*
X119394Y176399D01*
X119412Y176356D01*
X119420Y176309D01*
X119454Y176252D01*
X119479Y176192D01*
X119510Y176157D01*
X119535Y176116D01*
X119586Y176075D01*
X119630Y176026D01*
X119672Y176004D01*
X119709Y175975D01*
X119771Y175954D01*
X119830Y175923D01*
X119884Y175915D01*
X119921Y175903D01*
X119961Y175904D01*
X120015Y175896D01*
X123825Y175896D01*
X123890Y175907D01*
G37*
G36*
X281370Y586117D02*
X281370Y586117D01*
X281436Y586119D01*
X281479Y586137D01*
X281526Y586145D01*
X281583Y586179D01*
X281643Y586204D01*
X281678Y586235D01*
X281719Y586260D01*
X281761Y586311D01*
X281809Y586355D01*
X281831Y586397D01*
X281860Y586434D01*
X281881Y586496D01*
X281912Y586555D01*
X281920Y586609D01*
X281932Y586646D01*
X281931Y586686D01*
X281939Y586740D01*
X281939Y589280D01*
X281928Y589345D01*
X281926Y589411D01*
X281908Y589454D01*
X281900Y589501D01*
X281866Y589558D01*
X281841Y589618D01*
X281810Y589653D01*
X281785Y589694D01*
X281734Y589736D01*
X281690Y589784D01*
X281648Y589806D01*
X281611Y589835D01*
X281549Y589856D01*
X281490Y589887D01*
X281436Y589895D01*
X281399Y589907D01*
X281359Y589906D01*
X281305Y589914D01*
X277495Y589914D01*
X277430Y589903D01*
X277364Y589901D01*
X277321Y589883D01*
X277274Y589875D01*
X277217Y589841D01*
X277157Y589816D01*
X277122Y589785D01*
X277081Y589760D01*
X277040Y589709D01*
X276991Y589665D01*
X276969Y589623D01*
X276940Y589586D01*
X276919Y589524D01*
X276888Y589465D01*
X276880Y589411D01*
X276868Y589374D01*
X276868Y589371D01*
X276869Y589334D01*
X276861Y589280D01*
X276861Y586740D01*
X276872Y586675D01*
X276874Y586609D01*
X276892Y586566D01*
X276900Y586519D01*
X276934Y586462D01*
X276959Y586402D01*
X276990Y586367D01*
X277015Y586326D01*
X277066Y586285D01*
X277110Y586236D01*
X277152Y586214D01*
X277189Y586185D01*
X277251Y586164D01*
X277310Y586133D01*
X277364Y586125D01*
X277401Y586113D01*
X277441Y586114D01*
X277495Y586106D01*
X281305Y586106D01*
X281370Y586117D01*
G37*
G36*
X134050Y953147D02*
X134050Y953147D01*
X134116Y953149D01*
X134159Y953167D01*
X134206Y953175D01*
X134263Y953209D01*
X134323Y953234D01*
X134358Y953265D01*
X134399Y953290D01*
X134441Y953341D01*
X134489Y953385D01*
X134511Y953427D01*
X134540Y953464D01*
X134561Y953526D01*
X134592Y953585D01*
X134600Y953639D01*
X134612Y953676D01*
X134611Y953716D01*
X134619Y953770D01*
X134619Y956310D01*
X134608Y956375D01*
X134606Y956441D01*
X134588Y956484D01*
X134580Y956531D01*
X134546Y956588D01*
X134521Y956648D01*
X134490Y956683D01*
X134465Y956724D01*
X134414Y956766D01*
X134370Y956814D01*
X134328Y956836D01*
X134291Y956865D01*
X134229Y956886D01*
X134170Y956917D01*
X134116Y956925D01*
X134079Y956937D01*
X134039Y956936D01*
X133985Y956944D01*
X130175Y956944D01*
X130110Y956933D01*
X130044Y956931D01*
X130001Y956913D01*
X129954Y956905D01*
X129897Y956871D01*
X129837Y956846D01*
X129802Y956815D01*
X129761Y956790D01*
X129720Y956739D01*
X129671Y956695D01*
X129649Y956653D01*
X129620Y956616D01*
X129599Y956554D01*
X129568Y956495D01*
X129560Y956441D01*
X129548Y956404D01*
X129548Y956401D01*
X129549Y956364D01*
X129541Y956310D01*
X129541Y953770D01*
X129552Y953705D01*
X129554Y953639D01*
X129572Y953596D01*
X129580Y953549D01*
X129614Y953492D01*
X129639Y953432D01*
X129670Y953397D01*
X129695Y953356D01*
X129746Y953315D01*
X129790Y953266D01*
X129832Y953244D01*
X129869Y953215D01*
X129931Y953194D01*
X129990Y953163D01*
X130044Y953155D01*
X130081Y953143D01*
X130121Y953144D01*
X130175Y953136D01*
X133985Y953136D01*
X134050Y953147D01*
G37*
G36*
X22290Y845197D02*
X22290Y845197D01*
X22356Y845199D01*
X22399Y845217D01*
X22446Y845225D01*
X22503Y845259D01*
X22563Y845284D01*
X22598Y845315D01*
X22639Y845340D01*
X22681Y845391D01*
X22729Y845435D01*
X22751Y845477D01*
X22780Y845514D01*
X22801Y845576D01*
X22832Y845635D01*
X22840Y845689D01*
X22852Y845726D01*
X22851Y845766D01*
X22859Y845820D01*
X22859Y848360D01*
X22848Y848425D01*
X22846Y848491D01*
X22828Y848534D01*
X22820Y848581D01*
X22786Y848638D01*
X22761Y848698D01*
X22730Y848733D01*
X22705Y848774D01*
X22654Y848816D01*
X22610Y848864D01*
X22568Y848886D01*
X22531Y848915D01*
X22469Y848936D01*
X22410Y848967D01*
X22356Y848975D01*
X22319Y848987D01*
X22279Y848986D01*
X22225Y848994D01*
X18415Y848994D01*
X18350Y848983D01*
X18284Y848981D01*
X18241Y848963D01*
X18194Y848955D01*
X18137Y848921D01*
X18077Y848896D01*
X18042Y848865D01*
X18001Y848840D01*
X17960Y848789D01*
X17911Y848745D01*
X17889Y848703D01*
X17860Y848666D01*
X17839Y848604D01*
X17808Y848545D01*
X17800Y848491D01*
X17788Y848454D01*
X17788Y848451D01*
X17789Y848414D01*
X17781Y848360D01*
X17781Y845820D01*
X17792Y845755D01*
X17794Y845689D01*
X17812Y845646D01*
X17820Y845599D01*
X17854Y845542D01*
X17879Y845482D01*
X17910Y845447D01*
X17935Y845406D01*
X17986Y845365D01*
X18030Y845316D01*
X18072Y845294D01*
X18109Y845265D01*
X18171Y845244D01*
X18230Y845213D01*
X18284Y845205D01*
X18321Y845193D01*
X18361Y845194D01*
X18415Y845186D01*
X22225Y845186D01*
X22290Y845197D01*
G37*
G36*
X281370Y845197D02*
X281370Y845197D01*
X281436Y845199D01*
X281479Y845217D01*
X281526Y845225D01*
X281583Y845259D01*
X281643Y845284D01*
X281678Y845315D01*
X281719Y845340D01*
X281761Y845391D01*
X281809Y845435D01*
X281831Y845477D01*
X281860Y845514D01*
X281881Y845576D01*
X281912Y845635D01*
X281920Y845689D01*
X281932Y845726D01*
X281931Y845766D01*
X281939Y845820D01*
X281939Y848360D01*
X281928Y848425D01*
X281926Y848491D01*
X281908Y848534D01*
X281900Y848581D01*
X281866Y848638D01*
X281841Y848698D01*
X281810Y848733D01*
X281785Y848774D01*
X281734Y848816D01*
X281690Y848864D01*
X281648Y848886D01*
X281611Y848915D01*
X281549Y848936D01*
X281490Y848967D01*
X281436Y848975D01*
X281399Y848987D01*
X281359Y848986D01*
X281305Y848994D01*
X277495Y848994D01*
X277430Y848983D01*
X277364Y848981D01*
X277321Y848963D01*
X277274Y848955D01*
X277217Y848921D01*
X277157Y848896D01*
X277122Y848865D01*
X277081Y848840D01*
X277040Y848789D01*
X276991Y848745D01*
X276969Y848703D01*
X276940Y848666D01*
X276919Y848604D01*
X276888Y848545D01*
X276880Y848491D01*
X276868Y848454D01*
X276868Y848451D01*
X276869Y848414D01*
X276861Y848360D01*
X276861Y845820D01*
X276872Y845755D01*
X276874Y845689D01*
X276892Y845646D01*
X276900Y845599D01*
X276934Y845542D01*
X276959Y845482D01*
X276990Y845447D01*
X277015Y845406D01*
X277066Y845365D01*
X277110Y845316D01*
X277152Y845294D01*
X277189Y845265D01*
X277251Y845244D01*
X277310Y845213D01*
X277364Y845205D01*
X277401Y845193D01*
X277441Y845194D01*
X277495Y845186D01*
X281305Y845186D01*
X281370Y845197D01*
G37*
G36*
X1058610Y845197D02*
X1058610Y845197D01*
X1058676Y845199D01*
X1058719Y845217D01*
X1058766Y845225D01*
X1058823Y845259D01*
X1058883Y845284D01*
X1058918Y845315D01*
X1058959Y845340D01*
X1059001Y845391D01*
X1059049Y845435D01*
X1059071Y845477D01*
X1059100Y845514D01*
X1059121Y845576D01*
X1059152Y845635D01*
X1059160Y845689D01*
X1059172Y845726D01*
X1059171Y845766D01*
X1059179Y845820D01*
X1059179Y848360D01*
X1059168Y848425D01*
X1059166Y848491D01*
X1059148Y848534D01*
X1059140Y848581D01*
X1059106Y848638D01*
X1059081Y848698D01*
X1059050Y848733D01*
X1059025Y848774D01*
X1058974Y848816D01*
X1058930Y848864D01*
X1058888Y848886D01*
X1058851Y848915D01*
X1058789Y848936D01*
X1058730Y848967D01*
X1058676Y848975D01*
X1058639Y848987D01*
X1058599Y848986D01*
X1058545Y848994D01*
X1054735Y848994D01*
X1054670Y848983D01*
X1054604Y848981D01*
X1054561Y848963D01*
X1054514Y848955D01*
X1054457Y848921D01*
X1054397Y848896D01*
X1054362Y848865D01*
X1054321Y848840D01*
X1054280Y848789D01*
X1054231Y848745D01*
X1054209Y848703D01*
X1054180Y848666D01*
X1054159Y848604D01*
X1054128Y848545D01*
X1054120Y848491D01*
X1054108Y848454D01*
X1054108Y848451D01*
X1054109Y848414D01*
X1054101Y848360D01*
X1054101Y845820D01*
X1054112Y845755D01*
X1054114Y845689D01*
X1054132Y845646D01*
X1054140Y845599D01*
X1054174Y845542D01*
X1054199Y845482D01*
X1054230Y845447D01*
X1054255Y845406D01*
X1054306Y845365D01*
X1054350Y845316D01*
X1054392Y845294D01*
X1054429Y845265D01*
X1054491Y845244D01*
X1054550Y845213D01*
X1054604Y845205D01*
X1054641Y845193D01*
X1054681Y845194D01*
X1054735Y845186D01*
X1058545Y845186D01*
X1058610Y845197D01*
G37*
G36*
X540450Y845197D02*
X540450Y845197D01*
X540516Y845199D01*
X540559Y845217D01*
X540606Y845225D01*
X540663Y845259D01*
X540723Y845284D01*
X540758Y845315D01*
X540799Y845340D01*
X540841Y845391D01*
X540889Y845435D01*
X540911Y845477D01*
X540940Y845514D01*
X540961Y845576D01*
X540992Y845635D01*
X541000Y845689D01*
X541012Y845726D01*
X541011Y845766D01*
X541019Y845820D01*
X541019Y848360D01*
X541008Y848425D01*
X541006Y848491D01*
X540988Y848534D01*
X540980Y848581D01*
X540946Y848638D01*
X540921Y848698D01*
X540890Y848733D01*
X540865Y848774D01*
X540814Y848816D01*
X540770Y848864D01*
X540728Y848886D01*
X540691Y848915D01*
X540629Y848936D01*
X540570Y848967D01*
X540516Y848975D01*
X540479Y848987D01*
X540439Y848986D01*
X540385Y848994D01*
X536575Y848994D01*
X536510Y848983D01*
X536444Y848981D01*
X536401Y848963D01*
X536354Y848955D01*
X536297Y848921D01*
X536237Y848896D01*
X536202Y848865D01*
X536161Y848840D01*
X536120Y848789D01*
X536071Y848745D01*
X536049Y848703D01*
X536020Y848666D01*
X535999Y848604D01*
X535968Y848545D01*
X535960Y848491D01*
X535948Y848454D01*
X535948Y848451D01*
X535949Y848414D01*
X535941Y848360D01*
X535941Y845820D01*
X535952Y845755D01*
X535954Y845689D01*
X535972Y845646D01*
X535980Y845599D01*
X536014Y845542D01*
X536039Y845482D01*
X536070Y845447D01*
X536095Y845406D01*
X536146Y845365D01*
X536190Y845316D01*
X536232Y845294D01*
X536269Y845265D01*
X536331Y845244D01*
X536390Y845213D01*
X536444Y845205D01*
X536481Y845193D01*
X536521Y845194D01*
X536575Y845186D01*
X540385Y845186D01*
X540450Y845197D01*
G37*
G36*
X799530Y67957D02*
X799530Y67957D01*
X799596Y67959D01*
X799639Y67977D01*
X799686Y67985D01*
X799743Y68019D01*
X799803Y68044D01*
X799838Y68075D01*
X799879Y68100D01*
X799921Y68151D01*
X799969Y68195D01*
X799991Y68237D01*
X800020Y68274D01*
X800041Y68336D01*
X800072Y68395D01*
X800080Y68449D01*
X800092Y68486D01*
X800091Y68526D01*
X800099Y68580D01*
X800099Y71120D01*
X800088Y71185D01*
X800086Y71251D01*
X800068Y71294D01*
X800060Y71341D01*
X800026Y71398D01*
X800001Y71458D01*
X799970Y71493D01*
X799945Y71534D01*
X799894Y71576D01*
X799850Y71624D01*
X799808Y71646D01*
X799771Y71675D01*
X799709Y71696D01*
X799650Y71727D01*
X799596Y71735D01*
X799559Y71747D01*
X799519Y71746D01*
X799465Y71754D01*
X795655Y71754D01*
X795590Y71743D01*
X795524Y71741D01*
X795481Y71723D01*
X795434Y71715D01*
X795377Y71681D01*
X795317Y71656D01*
X795282Y71625D01*
X795241Y71600D01*
X795200Y71549D01*
X795151Y71505D01*
X795129Y71463D01*
X795100Y71426D01*
X795079Y71364D01*
X795048Y71305D01*
X795040Y71251D01*
X795028Y71214D01*
X795028Y71211D01*
X795029Y71174D01*
X795021Y71120D01*
X795021Y68580D01*
X795032Y68515D01*
X795034Y68449D01*
X795052Y68406D01*
X795060Y68359D01*
X795094Y68302D01*
X795119Y68242D01*
X795150Y68207D01*
X795175Y68166D01*
X795226Y68125D01*
X795270Y68076D01*
X795312Y68054D01*
X795349Y68025D01*
X795411Y68004D01*
X795470Y67973D01*
X795524Y67965D01*
X795561Y67953D01*
X795601Y67954D01*
X795655Y67946D01*
X799465Y67946D01*
X799530Y67957D01*
G37*
G36*
X1317690Y67957D02*
X1317690Y67957D01*
X1317756Y67959D01*
X1317799Y67977D01*
X1317846Y67985D01*
X1317903Y68019D01*
X1317963Y68044D01*
X1317998Y68075D01*
X1318039Y68100D01*
X1318081Y68151D01*
X1318129Y68195D01*
X1318151Y68237D01*
X1318180Y68274D01*
X1318201Y68336D01*
X1318232Y68395D01*
X1318240Y68449D01*
X1318252Y68486D01*
X1318251Y68526D01*
X1318259Y68580D01*
X1318259Y71120D01*
X1318248Y71185D01*
X1318246Y71251D01*
X1318228Y71294D01*
X1318220Y71341D01*
X1318186Y71398D01*
X1318161Y71458D01*
X1318130Y71493D01*
X1318105Y71534D01*
X1318054Y71576D01*
X1318010Y71624D01*
X1317968Y71646D01*
X1317931Y71675D01*
X1317869Y71696D01*
X1317810Y71727D01*
X1317756Y71735D01*
X1317719Y71747D01*
X1317679Y71746D01*
X1317625Y71754D01*
X1313815Y71754D01*
X1313750Y71743D01*
X1313684Y71741D01*
X1313641Y71723D01*
X1313594Y71715D01*
X1313537Y71681D01*
X1313477Y71656D01*
X1313442Y71625D01*
X1313401Y71600D01*
X1313360Y71549D01*
X1313311Y71505D01*
X1313289Y71463D01*
X1313260Y71426D01*
X1313239Y71364D01*
X1313208Y71305D01*
X1313200Y71251D01*
X1313188Y71214D01*
X1313188Y71211D01*
X1313189Y71174D01*
X1313181Y71120D01*
X1313181Y68580D01*
X1313192Y68515D01*
X1313194Y68449D01*
X1313212Y68406D01*
X1313220Y68359D01*
X1313254Y68302D01*
X1313279Y68242D01*
X1313310Y68207D01*
X1313335Y68166D01*
X1313386Y68125D01*
X1313430Y68076D01*
X1313472Y68054D01*
X1313509Y68025D01*
X1313571Y68004D01*
X1313630Y67973D01*
X1313684Y67965D01*
X1313721Y67953D01*
X1313761Y67954D01*
X1313815Y67946D01*
X1317625Y67946D01*
X1317690Y67957D01*
G37*
G36*
X1058610Y67957D02*
X1058610Y67957D01*
X1058676Y67959D01*
X1058719Y67977D01*
X1058766Y67985D01*
X1058823Y68019D01*
X1058883Y68044D01*
X1058918Y68075D01*
X1058959Y68100D01*
X1059001Y68151D01*
X1059049Y68195D01*
X1059071Y68237D01*
X1059100Y68274D01*
X1059121Y68336D01*
X1059152Y68395D01*
X1059160Y68449D01*
X1059172Y68486D01*
X1059171Y68526D01*
X1059179Y68580D01*
X1059179Y71120D01*
X1059168Y71185D01*
X1059166Y71251D01*
X1059148Y71294D01*
X1059140Y71341D01*
X1059106Y71398D01*
X1059081Y71458D01*
X1059050Y71493D01*
X1059025Y71534D01*
X1058974Y71576D01*
X1058930Y71624D01*
X1058888Y71646D01*
X1058851Y71675D01*
X1058789Y71696D01*
X1058730Y71727D01*
X1058676Y71735D01*
X1058639Y71747D01*
X1058599Y71746D01*
X1058545Y71754D01*
X1054735Y71754D01*
X1054670Y71743D01*
X1054604Y71741D01*
X1054561Y71723D01*
X1054514Y71715D01*
X1054457Y71681D01*
X1054397Y71656D01*
X1054362Y71625D01*
X1054321Y71600D01*
X1054280Y71549D01*
X1054231Y71505D01*
X1054209Y71463D01*
X1054180Y71426D01*
X1054159Y71364D01*
X1054128Y71305D01*
X1054120Y71251D01*
X1054108Y71214D01*
X1054108Y71211D01*
X1054109Y71174D01*
X1054101Y71120D01*
X1054101Y68580D01*
X1054112Y68515D01*
X1054114Y68449D01*
X1054132Y68406D01*
X1054140Y68359D01*
X1054174Y68302D01*
X1054199Y68242D01*
X1054230Y68207D01*
X1054255Y68166D01*
X1054306Y68125D01*
X1054350Y68076D01*
X1054392Y68054D01*
X1054429Y68025D01*
X1054491Y68004D01*
X1054550Y67973D01*
X1054604Y67965D01*
X1054641Y67953D01*
X1054681Y67954D01*
X1054735Y67946D01*
X1058545Y67946D01*
X1058610Y67957D01*
G37*
G36*
X540450Y67957D02*
X540450Y67957D01*
X540516Y67959D01*
X540559Y67977D01*
X540606Y67985D01*
X540663Y68019D01*
X540723Y68044D01*
X540758Y68075D01*
X540799Y68100D01*
X540841Y68151D01*
X540889Y68195D01*
X540911Y68237D01*
X540940Y68274D01*
X540961Y68336D01*
X540992Y68395D01*
X541000Y68449D01*
X541012Y68486D01*
X541011Y68526D01*
X541019Y68580D01*
X541019Y71120D01*
X541008Y71185D01*
X541006Y71251D01*
X540988Y71294D01*
X540980Y71341D01*
X540946Y71398D01*
X540921Y71458D01*
X540890Y71493D01*
X540865Y71534D01*
X540814Y71576D01*
X540770Y71624D01*
X540728Y71646D01*
X540691Y71675D01*
X540629Y71696D01*
X540570Y71727D01*
X540516Y71735D01*
X540479Y71747D01*
X540439Y71746D01*
X540385Y71754D01*
X536575Y71754D01*
X536510Y71743D01*
X536444Y71741D01*
X536401Y71723D01*
X536354Y71715D01*
X536297Y71681D01*
X536237Y71656D01*
X536202Y71625D01*
X536161Y71600D01*
X536120Y71549D01*
X536071Y71505D01*
X536049Y71463D01*
X536020Y71426D01*
X535999Y71364D01*
X535968Y71305D01*
X535960Y71251D01*
X535948Y71214D01*
X535948Y71211D01*
X535949Y71174D01*
X535941Y71120D01*
X535941Y68580D01*
X535952Y68515D01*
X535954Y68449D01*
X535972Y68406D01*
X535980Y68359D01*
X536014Y68302D01*
X536039Y68242D01*
X536070Y68207D01*
X536095Y68166D01*
X536146Y68125D01*
X536190Y68076D01*
X536232Y68054D01*
X536269Y68025D01*
X536331Y68004D01*
X536390Y67973D01*
X536444Y67965D01*
X536481Y67953D01*
X536521Y67954D01*
X536575Y67946D01*
X540385Y67946D01*
X540450Y67957D01*
G37*
G36*
X281370Y67957D02*
X281370Y67957D01*
X281436Y67959D01*
X281479Y67977D01*
X281526Y67985D01*
X281583Y68019D01*
X281643Y68044D01*
X281678Y68075D01*
X281719Y68100D01*
X281761Y68151D01*
X281809Y68195D01*
X281831Y68237D01*
X281860Y68274D01*
X281881Y68336D01*
X281912Y68395D01*
X281920Y68449D01*
X281932Y68486D01*
X281931Y68526D01*
X281939Y68580D01*
X281939Y71120D01*
X281928Y71185D01*
X281926Y71251D01*
X281908Y71294D01*
X281900Y71341D01*
X281866Y71398D01*
X281841Y71458D01*
X281810Y71493D01*
X281785Y71534D01*
X281734Y71576D01*
X281690Y71624D01*
X281648Y71646D01*
X281611Y71675D01*
X281549Y71696D01*
X281490Y71727D01*
X281436Y71735D01*
X281399Y71747D01*
X281359Y71746D01*
X281305Y71754D01*
X277495Y71754D01*
X277430Y71743D01*
X277364Y71741D01*
X277321Y71723D01*
X277274Y71715D01*
X277217Y71681D01*
X277157Y71656D01*
X277122Y71625D01*
X277081Y71600D01*
X277040Y71549D01*
X276991Y71505D01*
X276969Y71463D01*
X276940Y71426D01*
X276919Y71364D01*
X276888Y71305D01*
X276880Y71251D01*
X276868Y71214D01*
X276868Y71211D01*
X276869Y71174D01*
X276861Y71120D01*
X276861Y68580D01*
X276872Y68515D01*
X276874Y68449D01*
X276892Y68406D01*
X276900Y68359D01*
X276934Y68302D01*
X276959Y68242D01*
X276990Y68207D01*
X277015Y68166D01*
X277066Y68125D01*
X277110Y68076D01*
X277152Y68054D01*
X277189Y68025D01*
X277251Y68004D01*
X277310Y67973D01*
X277364Y67965D01*
X277401Y67953D01*
X277441Y67954D01*
X277495Y67946D01*
X281305Y67946D01*
X281370Y67957D01*
G37*
G36*
X22290Y67957D02*
X22290Y67957D01*
X22356Y67959D01*
X22399Y67977D01*
X22446Y67985D01*
X22503Y68019D01*
X22563Y68044D01*
X22598Y68075D01*
X22639Y68100D01*
X22681Y68151D01*
X22729Y68195D01*
X22751Y68237D01*
X22780Y68274D01*
X22801Y68336D01*
X22832Y68395D01*
X22840Y68449D01*
X22852Y68486D01*
X22851Y68526D01*
X22859Y68580D01*
X22859Y71120D01*
X22848Y71185D01*
X22846Y71251D01*
X22828Y71294D01*
X22820Y71341D01*
X22786Y71398D01*
X22761Y71458D01*
X22730Y71493D01*
X22705Y71534D01*
X22654Y71576D01*
X22610Y71624D01*
X22568Y71646D01*
X22531Y71675D01*
X22469Y71696D01*
X22410Y71727D01*
X22356Y71735D01*
X22319Y71747D01*
X22279Y71746D01*
X22225Y71754D01*
X18415Y71754D01*
X18350Y71743D01*
X18284Y71741D01*
X18241Y71723D01*
X18194Y71715D01*
X18137Y71681D01*
X18077Y71656D01*
X18042Y71625D01*
X18001Y71600D01*
X17960Y71549D01*
X17911Y71505D01*
X17889Y71463D01*
X17860Y71426D01*
X17839Y71364D01*
X17808Y71305D01*
X17800Y71251D01*
X17788Y71214D01*
X17788Y71211D01*
X17789Y71174D01*
X17781Y71120D01*
X17781Y68580D01*
X17792Y68515D01*
X17794Y68449D01*
X17812Y68406D01*
X17820Y68359D01*
X17854Y68302D01*
X17879Y68242D01*
X17910Y68207D01*
X17935Y68166D01*
X17986Y68125D01*
X18030Y68076D01*
X18072Y68054D01*
X18109Y68025D01*
X18171Y68004D01*
X18230Y67973D01*
X18284Y67965D01*
X18321Y67953D01*
X18361Y67954D01*
X18415Y67946D01*
X22225Y67946D01*
X22290Y67957D01*
G37*
D10*
X25400Y228600D03*
X228600Y228600D03*
D11*
X137414Y177800D03*
X127000Y177800D03*
X116586Y177800D03*
D12*
X7620Y246380D03*
X246380Y7620D03*
D13*
X80010Y132207D03*
X80010Y121793D03*
D14*
X63500Y12700D03*
X88900Y12700D03*
X114300Y12700D03*
X139700Y12700D03*
X165100Y12700D03*
X190500Y12700D03*
D10*
X25400Y25400D03*
X228600Y25400D03*
D11*
X25527Y69850D03*
X15113Y69850D03*
D10*
X284480Y228600D03*
X487680Y228600D03*
D11*
X396494Y177800D03*
X386080Y177800D03*
X375666Y177800D03*
D12*
X266700Y246380D03*
X505460Y7620D03*
D13*
X339090Y132207D03*
X339090Y121793D03*
D14*
X322580Y12700D03*
X347980Y12700D03*
X373380Y12700D03*
X398780Y12700D03*
X424180Y12700D03*
X449580Y12700D03*
D10*
X284480Y25400D03*
X487680Y25400D03*
D11*
X284607Y69850D03*
X274193Y69850D03*
D10*
X543560Y228600D03*
X746760Y228600D03*
D11*
X655574Y177800D03*
X645160Y177800D03*
X634746Y177800D03*
D12*
X525780Y246380D03*
X764540Y7620D03*
D13*
X598170Y132207D03*
X598170Y121793D03*
D14*
X581660Y12700D03*
X607060Y12700D03*
X632460Y12700D03*
X657860Y12700D03*
X683260Y12700D03*
X708660Y12700D03*
D10*
X543560Y25400D03*
X746760Y25400D03*
D11*
X543687Y69850D03*
X533273Y69850D03*
D10*
X802640Y228600D03*
X1005840Y228600D03*
D11*
X914654Y177800D03*
X904240Y177800D03*
X893826Y177800D03*
D12*
X784860Y246380D03*
X1023620Y7620D03*
D13*
X857250Y132207D03*
X857250Y121793D03*
D14*
X840740Y12700D03*
X866140Y12700D03*
X891540Y12700D03*
X916940Y12700D03*
X942340Y12700D03*
X967740Y12700D03*
D10*
X802640Y25400D03*
X1005840Y25400D03*
D11*
X802767Y69850D03*
X792353Y69850D03*
D10*
X1061720Y228600D03*
X1264920Y228600D03*
D11*
X1173734Y177800D03*
X1163320Y177800D03*
X1152906Y177800D03*
D12*
X1043940Y246380D03*
X1282700Y7620D03*
D13*
X1116330Y132207D03*
X1116330Y121793D03*
D14*
X1099820Y12700D03*
X1125220Y12700D03*
X1150620Y12700D03*
X1176020Y12700D03*
X1201420Y12700D03*
X1226820Y12700D03*
D10*
X1061720Y25400D03*
X1264920Y25400D03*
D11*
X1061847Y69850D03*
X1051433Y69850D03*
D10*
X1320800Y228600D03*
X1524000Y228600D03*
D11*
X1432814Y177800D03*
X1422400Y177800D03*
X1411986Y177800D03*
D12*
X1303020Y246380D03*
X1541780Y7620D03*
D13*
X1375410Y132207D03*
X1375410Y121793D03*
D14*
X1358900Y12700D03*
X1384300Y12700D03*
X1409700Y12700D03*
X1435100Y12700D03*
X1460500Y12700D03*
X1485900Y12700D03*
D10*
X1320800Y25400D03*
X1524000Y25400D03*
D11*
X1320927Y69850D03*
X1310513Y69850D03*
D10*
X25400Y487680D03*
X228600Y487680D03*
D11*
X137414Y436880D03*
X127000Y436880D03*
X116586Y436880D03*
D12*
X7620Y505460D03*
X246380Y266700D03*
D13*
X80010Y391287D03*
X80010Y380873D03*
D14*
X63500Y271780D03*
X88900Y271780D03*
X114300Y271780D03*
X139700Y271780D03*
X165100Y271780D03*
X190500Y271780D03*
D10*
X25400Y284480D03*
X228600Y284480D03*
D11*
X25527Y328930D03*
X15113Y328930D03*
D10*
X284480Y487680D03*
X487680Y487680D03*
D11*
X396494Y436880D03*
X386080Y436880D03*
X375666Y436880D03*
D12*
X266700Y505460D03*
X505460Y266700D03*
D13*
X339090Y391287D03*
X339090Y380873D03*
D14*
X322580Y271780D03*
X347980Y271780D03*
X373380Y271780D03*
X398780Y271780D03*
X424180Y271780D03*
X449580Y271780D03*
D10*
X284480Y284480D03*
X487680Y284480D03*
D11*
X284607Y328930D03*
X274193Y328930D03*
D10*
X543560Y487680D03*
X746760Y487680D03*
D11*
X655574Y436880D03*
X645160Y436880D03*
X634746Y436880D03*
D12*
X525780Y505460D03*
X764540Y266700D03*
D13*
X598170Y391287D03*
X598170Y380873D03*
D14*
X581660Y271780D03*
X607060Y271780D03*
X632460Y271780D03*
X657860Y271780D03*
X683260Y271780D03*
X708660Y271780D03*
D10*
X543560Y284480D03*
X746760Y284480D03*
D11*
X543687Y328930D03*
X533273Y328930D03*
D10*
X802640Y487680D03*
X1005840Y487680D03*
D11*
X914654Y436880D03*
X904240Y436880D03*
X893826Y436880D03*
D12*
X784860Y505460D03*
X1023620Y266700D03*
D13*
X857250Y391287D03*
X857250Y380873D03*
D14*
X840740Y271780D03*
X866140Y271780D03*
X891540Y271780D03*
X916940Y271780D03*
X942340Y271780D03*
X967740Y271780D03*
D10*
X802640Y284480D03*
X1005840Y284480D03*
D11*
X802767Y328930D03*
X792353Y328930D03*
D10*
X1061720Y487680D03*
X1264920Y487680D03*
D11*
X1173734Y436880D03*
X1163320Y436880D03*
X1152906Y436880D03*
D12*
X1043940Y505460D03*
X1282700Y266700D03*
D13*
X1116330Y391287D03*
X1116330Y380873D03*
D14*
X1099820Y271780D03*
X1125220Y271780D03*
X1150620Y271780D03*
X1176020Y271780D03*
X1201420Y271780D03*
X1226820Y271780D03*
D10*
X1061720Y284480D03*
X1264920Y284480D03*
D11*
X1061847Y328930D03*
X1051433Y328930D03*
D10*
X1320800Y487680D03*
X1524000Y487680D03*
D11*
X1432814Y436880D03*
X1422400Y436880D03*
X1411986Y436880D03*
D12*
X1303020Y505460D03*
X1541780Y266700D03*
D13*
X1375410Y391287D03*
X1375410Y380873D03*
D14*
X1358900Y271780D03*
X1384300Y271780D03*
X1409700Y271780D03*
X1435100Y271780D03*
X1460500Y271780D03*
X1485900Y271780D03*
D10*
X1320800Y284480D03*
X1524000Y284480D03*
D11*
X1320927Y328930D03*
X1310513Y328930D03*
D10*
X25400Y746760D03*
X228600Y746760D03*
D11*
X137414Y695960D03*
X127000Y695960D03*
X116586Y695960D03*
D12*
X7620Y764540D03*
X246380Y525780D03*
D13*
X80010Y650367D03*
X80010Y639953D03*
D14*
X63500Y530860D03*
X88900Y530860D03*
X114300Y530860D03*
X139700Y530860D03*
X165100Y530860D03*
X190500Y530860D03*
D10*
X25400Y543560D03*
X228600Y543560D03*
D11*
X25527Y588010D03*
X15113Y588010D03*
D10*
X284480Y746760D03*
X487680Y746760D03*
D11*
X396494Y695960D03*
X386080Y695960D03*
X375666Y695960D03*
D12*
X266700Y764540D03*
X505460Y525780D03*
D13*
X339090Y650367D03*
X339090Y639953D03*
D14*
X322580Y530860D03*
X347980Y530860D03*
X373380Y530860D03*
X398780Y530860D03*
X424180Y530860D03*
X449580Y530860D03*
D10*
X284480Y543560D03*
X487680Y543560D03*
D11*
X284607Y588010D03*
X274193Y588010D03*
D10*
X543560Y746760D03*
X746760Y746760D03*
D11*
X655574Y695960D03*
X645160Y695960D03*
X634746Y695960D03*
D12*
X525780Y764540D03*
X764540Y525780D03*
D13*
X598170Y650367D03*
X598170Y639953D03*
D14*
X581660Y530860D03*
X607060Y530860D03*
X632460Y530860D03*
X657860Y530860D03*
X683260Y530860D03*
X708660Y530860D03*
D10*
X543560Y543560D03*
X746760Y543560D03*
D11*
X543687Y588010D03*
X533273Y588010D03*
D10*
X802640Y746760D03*
X1005840Y746760D03*
D11*
X914654Y695960D03*
X904240Y695960D03*
X893826Y695960D03*
D12*
X784860Y764540D03*
X1023620Y525780D03*
D13*
X857250Y650367D03*
X857250Y639953D03*
D14*
X840740Y530860D03*
X866140Y530860D03*
X891540Y530860D03*
X916940Y530860D03*
X942340Y530860D03*
X967740Y530860D03*
D10*
X802640Y543560D03*
X1005840Y543560D03*
D11*
X802767Y588010D03*
X792353Y588010D03*
D10*
X1061720Y746760D03*
X1264920Y746760D03*
D11*
X1173734Y695960D03*
X1163320Y695960D03*
X1152906Y695960D03*
D12*
X1043940Y764540D03*
X1282700Y525780D03*
D13*
X1116330Y650367D03*
X1116330Y639953D03*
D14*
X1099820Y530860D03*
X1125220Y530860D03*
X1150620Y530860D03*
X1176020Y530860D03*
X1201420Y530860D03*
X1226820Y530860D03*
D10*
X1061720Y543560D03*
X1264920Y543560D03*
D11*
X1061847Y588010D03*
X1051433Y588010D03*
D10*
X1320800Y746760D03*
X1524000Y746760D03*
D11*
X1432814Y695960D03*
X1422400Y695960D03*
X1411986Y695960D03*
D12*
X1303020Y764540D03*
X1541780Y525780D03*
D13*
X1375410Y650367D03*
X1375410Y639953D03*
D14*
X1358900Y530860D03*
X1384300Y530860D03*
X1409700Y530860D03*
X1435100Y530860D03*
X1460500Y530860D03*
X1485900Y530860D03*
D10*
X1320800Y543560D03*
X1524000Y543560D03*
D11*
X1320927Y588010D03*
X1310513Y588010D03*
D10*
X25400Y1005840D03*
X228600Y1005840D03*
D11*
X137414Y955040D03*
X127000Y955040D03*
X116586Y955040D03*
D12*
X7620Y1023620D03*
X246380Y784860D03*
D13*
X80010Y909447D03*
X80010Y899033D03*
D14*
X63500Y789940D03*
X88900Y789940D03*
X114300Y789940D03*
X139700Y789940D03*
X165100Y789940D03*
X190500Y789940D03*
D10*
X25400Y802640D03*
X228600Y802640D03*
D11*
X25527Y847090D03*
X15113Y847090D03*
D10*
X284480Y1005840D03*
X487680Y1005840D03*
D11*
X396494Y955040D03*
X386080Y955040D03*
X375666Y955040D03*
D12*
X266700Y1023620D03*
X505460Y784860D03*
D13*
X339090Y909447D03*
X339090Y899033D03*
D14*
X322580Y789940D03*
X347980Y789940D03*
X373380Y789940D03*
X398780Y789940D03*
X424180Y789940D03*
X449580Y789940D03*
D10*
X284480Y802640D03*
X487680Y802640D03*
D11*
X284607Y847090D03*
X274193Y847090D03*
D10*
X543560Y1005840D03*
X746760Y1005840D03*
D11*
X655574Y955040D03*
X645160Y955040D03*
X634746Y955040D03*
D12*
X525780Y1023620D03*
X764540Y784860D03*
D13*
X598170Y909447D03*
X598170Y899033D03*
D14*
X581660Y789940D03*
X607060Y789940D03*
X632460Y789940D03*
X657860Y789940D03*
X683260Y789940D03*
X708660Y789940D03*
D10*
X543560Y802640D03*
X746760Y802640D03*
D11*
X543687Y847090D03*
X533273Y847090D03*
D10*
X802640Y1005840D03*
X1005840Y1005840D03*
D11*
X914654Y955040D03*
X904240Y955040D03*
X893826Y955040D03*
D12*
X784860Y1023620D03*
X1023620Y784860D03*
D13*
X857250Y909447D03*
X857250Y899033D03*
D14*
X840740Y789940D03*
X866140Y789940D03*
X891540Y789940D03*
X916940Y789940D03*
X942340Y789940D03*
X967740Y789940D03*
D10*
X802640Y802640D03*
X1005840Y802640D03*
D11*
X802767Y847090D03*
X792353Y847090D03*
D10*
X1061720Y1005840D03*
X1264920Y1005840D03*
D11*
X1173734Y955040D03*
X1163320Y955040D03*
X1152906Y955040D03*
D12*
X1043940Y1023620D03*
X1282700Y784860D03*
D13*
X1116330Y909447D03*
X1116330Y899033D03*
D14*
X1099820Y789940D03*
X1125220Y789940D03*
X1150620Y789940D03*
X1176020Y789940D03*
X1201420Y789940D03*
X1226820Y789940D03*
D10*
X1061720Y802640D03*
X1264920Y802640D03*
D11*
X1061847Y847090D03*
X1051433Y847090D03*
D10*
X1320800Y1005840D03*
X1524000Y1005840D03*
D11*
X1432814Y955040D03*
X1422400Y955040D03*
X1411986Y955040D03*
D12*
X1303020Y1023620D03*
X1541780Y784860D03*
D13*
X1375410Y909447D03*
X1375410Y899033D03*
D14*
X1358900Y789940D03*
X1384300Y789940D03*
X1409700Y789940D03*
X1435100Y789940D03*
X1460500Y789940D03*
X1485900Y789940D03*
D10*
X1320800Y802640D03*
X1524000Y802640D03*
D11*
X1320927Y847090D03*
X1310513Y847090D03*
D15*
X68580Y1052195D03*
X1480185Y1052195D03*
D16*
X59525Y-20955D02*
X59528Y-20733D01*
X59536Y-20511D01*
X59550Y-20289D01*
X59569Y-20067D01*
X59593Y-19847D01*
X59623Y-19626D01*
X59658Y-19407D01*
X59699Y-19188D01*
X59745Y-18971D01*
X59796Y-18755D01*
X59853Y-18540D01*
X59915Y-18326D01*
X59982Y-18115D01*
X60054Y-17904D01*
X60132Y-17696D01*
X60214Y-17490D01*
X60302Y-17286D01*
X60394Y-17083D01*
X60492Y-16884D01*
X60594Y-16687D01*
X60701Y-16492D01*
X60813Y-16300D01*
X60930Y-16111D01*
X61051Y-15924D01*
X61177Y-15741D01*
X61307Y-15561D01*
X61442Y-15384D01*
X61580Y-15211D01*
X61723Y-15041D01*
X61871Y-14874D01*
X62022Y-14711D01*
X62177Y-14552D01*
X62336Y-14397D01*
X62499Y-14246D01*
X62666Y-14098D01*
X62836Y-13955D01*
X63009Y-13817D01*
X63186Y-13682D01*
X63366Y-13552D01*
X63549Y-13426D01*
X63736Y-13305D01*
X63925Y-13188D01*
X64117Y-13076D01*
X64312Y-12969D01*
X64509Y-12867D01*
X64708Y-12769D01*
X64911Y-12677D01*
X65115Y-12589D01*
X65321Y-12507D01*
X65529Y-12429D01*
X65740Y-12357D01*
X65951Y-12290D01*
X66165Y-12228D01*
X66380Y-12171D01*
X66596Y-12120D01*
X66813Y-12074D01*
X67032Y-12033D01*
X67251Y-11998D01*
X67472Y-11968D01*
X67692Y-11944D01*
X67914Y-11925D01*
X68136Y-11911D01*
X68358Y-11903D01*
X68580Y-11900D01*
X68802Y-11903D01*
X69024Y-11911D01*
X69246Y-11925D01*
X69468Y-11944D01*
X69688Y-11968D01*
X69909Y-11998D01*
X70128Y-12033D01*
X70347Y-12074D01*
X70564Y-12120D01*
X70780Y-12171D01*
X70995Y-12228D01*
X71209Y-12290D01*
X71420Y-12357D01*
X71631Y-12429D01*
X71839Y-12507D01*
X72045Y-12589D01*
X72249Y-12677D01*
X72452Y-12769D01*
X72651Y-12867D01*
X72848Y-12969D01*
X73043Y-13076D01*
X73235Y-13188D01*
X73424Y-13305D01*
X73611Y-13426D01*
X73794Y-13552D01*
X73974Y-13682D01*
X74151Y-13817D01*
X74324Y-13955D01*
X74494Y-14098D01*
X74661Y-14246D01*
X74824Y-14397D01*
X74983Y-14552D01*
X75138Y-14711D01*
X75289Y-14874D01*
X75437Y-15041D01*
X75580Y-15211D01*
X75718Y-15384D01*
X75853Y-15561D01*
X75983Y-15741D01*
X76109Y-15924D01*
X76230Y-16111D01*
X76347Y-16300D01*
X76459Y-16492D01*
X76566Y-16687D01*
X76668Y-16884D01*
X76766Y-17083D01*
X76858Y-17286D01*
X76946Y-17490D01*
X77028Y-17696D01*
X77106Y-17904D01*
X77178Y-18115D01*
X77245Y-18326D01*
X77307Y-18540D01*
X77364Y-18755D01*
X77415Y-18971D01*
X77461Y-19188D01*
X77502Y-19407D01*
X77537Y-19626D01*
X77567Y-19847D01*
X77591Y-20067D01*
X77610Y-20289D01*
X77624Y-20511D01*
X77632Y-20733D01*
X77635Y-20955D01*
X77632Y-21177D01*
X77624Y-21399D01*
X77610Y-21621D01*
X77591Y-21843D01*
X77567Y-22063D01*
X77537Y-22284D01*
X77502Y-22503D01*
X77461Y-22722D01*
X77415Y-22939D01*
X77364Y-23155D01*
X77307Y-23370D01*
X77245Y-23584D01*
X77178Y-23795D01*
X77106Y-24006D01*
X77028Y-24214D01*
X76946Y-24420D01*
X76858Y-24624D01*
X76766Y-24827D01*
X76668Y-25026D01*
X76566Y-25223D01*
X76459Y-25418D01*
X76347Y-25610D01*
X76230Y-25799D01*
X76109Y-25986D01*
X75983Y-26169D01*
X75853Y-26349D01*
X75718Y-26526D01*
X75580Y-26699D01*
X75437Y-26869D01*
X75289Y-27036D01*
X75138Y-27199D01*
X74983Y-27358D01*
X74824Y-27513D01*
X74661Y-27664D01*
X74494Y-27812D01*
X74324Y-27955D01*
X74151Y-28093D01*
X73974Y-28228D01*
X73794Y-28358D01*
X73611Y-28484D01*
X73424Y-28605D01*
X73235Y-28722D01*
X73043Y-28834D01*
X72848Y-28941D01*
X72651Y-29043D01*
X72452Y-29141D01*
X72249Y-29233D01*
X72045Y-29321D01*
X71839Y-29403D01*
X71631Y-29481D01*
X71420Y-29553D01*
X71209Y-29620D01*
X70995Y-29682D01*
X70780Y-29739D01*
X70564Y-29790D01*
X70347Y-29836D01*
X70128Y-29877D01*
X69909Y-29912D01*
X69688Y-29942D01*
X69468Y-29966D01*
X69246Y-29985D01*
X69024Y-29999D01*
X68802Y-30007D01*
X68580Y-30010D01*
X68358Y-30007D01*
X68136Y-29999D01*
X67914Y-29985D01*
X67692Y-29966D01*
X67472Y-29942D01*
X67251Y-29912D01*
X67032Y-29877D01*
X66813Y-29836D01*
X66596Y-29790D01*
X66380Y-29739D01*
X66165Y-29682D01*
X65951Y-29620D01*
X65740Y-29553D01*
X65529Y-29481D01*
X65321Y-29403D01*
X65115Y-29321D01*
X64911Y-29233D01*
X64708Y-29141D01*
X64509Y-29043D01*
X64312Y-28941D01*
X64117Y-28834D01*
X63925Y-28722D01*
X63736Y-28605D01*
X63549Y-28484D01*
X63366Y-28358D01*
X63186Y-28228D01*
X63009Y-28093D01*
X62836Y-27955D01*
X62666Y-27812D01*
X62499Y-27664D01*
X62336Y-27513D01*
X62177Y-27358D01*
X62022Y-27199D01*
X61871Y-27036D01*
X61723Y-26869D01*
X61580Y-26699D01*
X61442Y-26526D01*
X61307Y-26349D01*
X61177Y-26169D01*
X61051Y-25986D01*
X60930Y-25799D01*
X60813Y-25610D01*
X60701Y-25418D01*
X60594Y-25223D01*
X60492Y-25026D01*
X60394Y-24827D01*
X60302Y-24624D01*
X60214Y-24420D01*
X60132Y-24214D01*
X60054Y-24006D01*
X59982Y-23795D01*
X59915Y-23584D01*
X59853Y-23370D01*
X59796Y-23155D01*
X59745Y-22939D01*
X59699Y-22722D01*
X59658Y-22503D01*
X59623Y-22284D01*
X59593Y-22063D01*
X59569Y-21843D01*
X59550Y-21621D01*
X59536Y-21399D01*
X59528Y-21177D01*
X59525Y-20955D01*
D17*
X68580Y-20955D03*
M02*
