G04 EAGLE Gerber RS-274X export*
G75*
%MOMM*%
%FSLAX34Y34*%
%LPD*%
%INSoldermask Top*%
%IPPOS*%
%AMOC8*
5,1,8,0,0,1.08239X$1,22.5*%
G01*
%ADD10C,3.505200*%
%ADD11C,0.838200*%
%ADD12R,1.203200X1.303200*%
%ADD13R,2.203200X1.403200*%
%ADD14R,1.553200X0.803200*%
%ADD15R,1.303200X1.203200*%
%ADD16C,0.505344*%
%ADD17R,0.703200X1.103200*%
%ADD18R,1.603200X0.703200*%
%ADD19C,2.082800*%
%ADD20C,1.203200*%
%ADD21C,1.270000*%
%ADD22C,1.703200*%


D10*
X25400Y228600D03*
X228600Y228600D03*
D11*
X246380Y7620D03*
X7620Y246380D03*
D12*
X114300Y170570D03*
X114300Y187570D03*
X139700Y170570D03*
X139700Y187570D03*
D13*
X14050Y155000D03*
X14050Y99000D03*
D14*
X50800Y142000D03*
X50800Y132000D03*
X50800Y122000D03*
X50800Y112000D03*
D12*
X177800Y135500D03*
X177800Y118500D03*
D13*
X239950Y99000D03*
X239950Y155000D03*
D14*
X203200Y112000D03*
X203200Y122000D03*
X203200Y132000D03*
X203200Y142000D03*
D12*
X80010Y118500D03*
X80010Y135500D03*
D15*
X98180Y88900D03*
X115180Y88900D03*
X140090Y88900D03*
X157090Y88900D03*
D12*
X30480Y62620D03*
X30480Y79620D03*
D16*
X16190Y75130D02*
X9210Y75130D01*
X9210Y82110D01*
X16190Y82110D01*
X16190Y75130D01*
X16190Y79930D02*
X9210Y79930D01*
X9210Y57590D02*
X16190Y57590D01*
X9210Y57590D02*
X9210Y64570D01*
X16190Y64570D01*
X16190Y57590D01*
X16190Y62390D02*
X9210Y62390D01*
D17*
X143000Y117000D03*
X135000Y117000D03*
X127000Y117000D03*
X119000Y117000D03*
X111000Y117000D03*
D18*
X106500Y127000D03*
D17*
X111000Y137000D03*
X119000Y137000D03*
X127000Y137000D03*
X135000Y137000D03*
X143000Y137000D03*
D18*
X147500Y127000D03*
D19*
X63500Y12700D03*
X88900Y12700D03*
X114300Y12700D03*
X139700Y12700D03*
X165100Y12700D03*
X190500Y12700D03*
D10*
X25400Y25400D03*
X228600Y25400D03*
X284480Y228600D03*
X487680Y228600D03*
D11*
X505460Y7620D03*
X266700Y246380D03*
D12*
X373380Y170570D03*
X373380Y187570D03*
X398780Y170570D03*
X398780Y187570D03*
D13*
X273130Y155000D03*
X273130Y99000D03*
D14*
X309880Y142000D03*
X309880Y132000D03*
X309880Y122000D03*
X309880Y112000D03*
D12*
X436880Y135500D03*
X436880Y118500D03*
D13*
X499030Y99000D03*
X499030Y155000D03*
D14*
X462280Y112000D03*
X462280Y122000D03*
X462280Y132000D03*
X462280Y142000D03*
D12*
X339090Y118500D03*
X339090Y135500D03*
D15*
X357260Y88900D03*
X374260Y88900D03*
X399170Y88900D03*
X416170Y88900D03*
D12*
X289560Y62620D03*
X289560Y79620D03*
D16*
X275270Y75130D02*
X268290Y75130D01*
X268290Y82110D01*
X275270Y82110D01*
X275270Y75130D01*
X275270Y79930D02*
X268290Y79930D01*
X268290Y57590D02*
X275270Y57590D01*
X268290Y57590D02*
X268290Y64570D01*
X275270Y64570D01*
X275270Y57590D01*
X275270Y62390D02*
X268290Y62390D01*
D17*
X402080Y117000D03*
X394080Y117000D03*
X386080Y117000D03*
X378080Y117000D03*
X370080Y117000D03*
D18*
X365580Y127000D03*
D17*
X370080Y137000D03*
X378080Y137000D03*
X386080Y137000D03*
X394080Y137000D03*
X402080Y137000D03*
D18*
X406580Y127000D03*
D19*
X322580Y12700D03*
X347980Y12700D03*
X373380Y12700D03*
X398780Y12700D03*
X424180Y12700D03*
X449580Y12700D03*
D10*
X284480Y25400D03*
X487680Y25400D03*
X543560Y228600D03*
X746760Y228600D03*
D11*
X764540Y7620D03*
X525780Y246380D03*
D12*
X632460Y170570D03*
X632460Y187570D03*
X657860Y170570D03*
X657860Y187570D03*
D13*
X532210Y155000D03*
X532210Y99000D03*
D14*
X568960Y142000D03*
X568960Y132000D03*
X568960Y122000D03*
X568960Y112000D03*
D12*
X695960Y135500D03*
X695960Y118500D03*
D13*
X758110Y99000D03*
X758110Y155000D03*
D14*
X721360Y112000D03*
X721360Y122000D03*
X721360Y132000D03*
X721360Y142000D03*
D12*
X598170Y118500D03*
X598170Y135500D03*
D15*
X616340Y88900D03*
X633340Y88900D03*
X658250Y88900D03*
X675250Y88900D03*
D12*
X548640Y62620D03*
X548640Y79620D03*
D16*
X534350Y75130D02*
X527370Y75130D01*
X527370Y82110D01*
X534350Y82110D01*
X534350Y75130D01*
X534350Y79930D02*
X527370Y79930D01*
X527370Y57590D02*
X534350Y57590D01*
X527370Y57590D02*
X527370Y64570D01*
X534350Y64570D01*
X534350Y57590D01*
X534350Y62390D02*
X527370Y62390D01*
D17*
X661160Y117000D03*
X653160Y117000D03*
X645160Y117000D03*
X637160Y117000D03*
X629160Y117000D03*
D18*
X624660Y127000D03*
D17*
X629160Y137000D03*
X637160Y137000D03*
X645160Y137000D03*
X653160Y137000D03*
X661160Y137000D03*
D18*
X665660Y127000D03*
D19*
X581660Y12700D03*
X607060Y12700D03*
X632460Y12700D03*
X657860Y12700D03*
X683260Y12700D03*
X708660Y12700D03*
D10*
X543560Y25400D03*
X746760Y25400D03*
X802640Y228600D03*
X1005840Y228600D03*
D11*
X1023620Y7620D03*
X784860Y246380D03*
D12*
X891540Y170570D03*
X891540Y187570D03*
X916940Y170570D03*
X916940Y187570D03*
D13*
X791290Y155000D03*
X791290Y99000D03*
D14*
X828040Y142000D03*
X828040Y132000D03*
X828040Y122000D03*
X828040Y112000D03*
D12*
X955040Y135500D03*
X955040Y118500D03*
D13*
X1017190Y99000D03*
X1017190Y155000D03*
D14*
X980440Y112000D03*
X980440Y122000D03*
X980440Y132000D03*
X980440Y142000D03*
D12*
X857250Y118500D03*
X857250Y135500D03*
D15*
X875420Y88900D03*
X892420Y88900D03*
X917330Y88900D03*
X934330Y88900D03*
D12*
X807720Y62620D03*
X807720Y79620D03*
D16*
X793430Y75130D02*
X786450Y75130D01*
X786450Y82110D01*
X793430Y82110D01*
X793430Y75130D01*
X793430Y79930D02*
X786450Y79930D01*
X786450Y57590D02*
X793430Y57590D01*
X786450Y57590D02*
X786450Y64570D01*
X793430Y64570D01*
X793430Y57590D01*
X793430Y62390D02*
X786450Y62390D01*
D17*
X920240Y117000D03*
X912240Y117000D03*
X904240Y117000D03*
X896240Y117000D03*
X888240Y117000D03*
D18*
X883740Y127000D03*
D17*
X888240Y137000D03*
X896240Y137000D03*
X904240Y137000D03*
X912240Y137000D03*
X920240Y137000D03*
D18*
X924740Y127000D03*
D19*
X840740Y12700D03*
X866140Y12700D03*
X891540Y12700D03*
X916940Y12700D03*
X942340Y12700D03*
X967740Y12700D03*
D10*
X802640Y25400D03*
X1005840Y25400D03*
X1061720Y228600D03*
X1264920Y228600D03*
D11*
X1282700Y7620D03*
X1043940Y246380D03*
D12*
X1150620Y170570D03*
X1150620Y187570D03*
X1176020Y170570D03*
X1176020Y187570D03*
D13*
X1050370Y155000D03*
X1050370Y99000D03*
D14*
X1087120Y142000D03*
X1087120Y132000D03*
X1087120Y122000D03*
X1087120Y112000D03*
D12*
X1214120Y135500D03*
X1214120Y118500D03*
D13*
X1276270Y99000D03*
X1276270Y155000D03*
D14*
X1239520Y112000D03*
X1239520Y122000D03*
X1239520Y132000D03*
X1239520Y142000D03*
D12*
X1116330Y118500D03*
X1116330Y135500D03*
D15*
X1134500Y88900D03*
X1151500Y88900D03*
X1176410Y88900D03*
X1193410Y88900D03*
D12*
X1066800Y62620D03*
X1066800Y79620D03*
D16*
X1052510Y75130D02*
X1045530Y75130D01*
X1045530Y82110D01*
X1052510Y82110D01*
X1052510Y75130D01*
X1052510Y79930D02*
X1045530Y79930D01*
X1045530Y57590D02*
X1052510Y57590D01*
X1045530Y57590D02*
X1045530Y64570D01*
X1052510Y64570D01*
X1052510Y57590D01*
X1052510Y62390D02*
X1045530Y62390D01*
D17*
X1179320Y117000D03*
X1171320Y117000D03*
X1163320Y117000D03*
X1155320Y117000D03*
X1147320Y117000D03*
D18*
X1142820Y127000D03*
D17*
X1147320Y137000D03*
X1155320Y137000D03*
X1163320Y137000D03*
X1171320Y137000D03*
X1179320Y137000D03*
D18*
X1183820Y127000D03*
D19*
X1099820Y12700D03*
X1125220Y12700D03*
X1150620Y12700D03*
X1176020Y12700D03*
X1201420Y12700D03*
X1226820Y12700D03*
D10*
X1061720Y25400D03*
X1264920Y25400D03*
X1320800Y228600D03*
X1524000Y228600D03*
D11*
X1541780Y7620D03*
X1303020Y246380D03*
D12*
X1409700Y170570D03*
X1409700Y187570D03*
X1435100Y170570D03*
X1435100Y187570D03*
D13*
X1309450Y155000D03*
X1309450Y99000D03*
D14*
X1346200Y142000D03*
X1346200Y132000D03*
X1346200Y122000D03*
X1346200Y112000D03*
D12*
X1473200Y135500D03*
X1473200Y118500D03*
D13*
X1535350Y99000D03*
X1535350Y155000D03*
D14*
X1498600Y112000D03*
X1498600Y122000D03*
X1498600Y132000D03*
X1498600Y142000D03*
D12*
X1375410Y118500D03*
X1375410Y135500D03*
D15*
X1393580Y88900D03*
X1410580Y88900D03*
X1435490Y88900D03*
X1452490Y88900D03*
D12*
X1325880Y62620D03*
X1325880Y79620D03*
D16*
X1311590Y75130D02*
X1304610Y75130D01*
X1304610Y82110D01*
X1311590Y82110D01*
X1311590Y75130D01*
X1311590Y79930D02*
X1304610Y79930D01*
X1304610Y57590D02*
X1311590Y57590D01*
X1304610Y57590D02*
X1304610Y64570D01*
X1311590Y64570D01*
X1311590Y57590D01*
X1311590Y62390D02*
X1304610Y62390D01*
D17*
X1438400Y117000D03*
X1430400Y117000D03*
X1422400Y117000D03*
X1414400Y117000D03*
X1406400Y117000D03*
D18*
X1401900Y127000D03*
D17*
X1406400Y137000D03*
X1414400Y137000D03*
X1422400Y137000D03*
X1430400Y137000D03*
X1438400Y137000D03*
D18*
X1442900Y127000D03*
D19*
X1358900Y12700D03*
X1384300Y12700D03*
X1409700Y12700D03*
X1435100Y12700D03*
X1460500Y12700D03*
X1485900Y12700D03*
D10*
X1320800Y25400D03*
X1524000Y25400D03*
X25400Y487680D03*
X228600Y487680D03*
D11*
X246380Y266700D03*
X7620Y505460D03*
D12*
X114300Y429650D03*
X114300Y446650D03*
X139700Y429650D03*
X139700Y446650D03*
D13*
X14050Y414080D03*
X14050Y358080D03*
D14*
X50800Y401080D03*
X50800Y391080D03*
X50800Y381080D03*
X50800Y371080D03*
D12*
X177800Y394580D03*
X177800Y377580D03*
D13*
X239950Y358080D03*
X239950Y414080D03*
D14*
X203200Y371080D03*
X203200Y381080D03*
X203200Y391080D03*
X203200Y401080D03*
D12*
X80010Y377580D03*
X80010Y394580D03*
D15*
X98180Y347980D03*
X115180Y347980D03*
X140090Y347980D03*
X157090Y347980D03*
D12*
X30480Y321700D03*
X30480Y338700D03*
D16*
X16190Y334210D02*
X9210Y334210D01*
X9210Y341190D01*
X16190Y341190D01*
X16190Y334210D01*
X16190Y339010D02*
X9210Y339010D01*
X9210Y316670D02*
X16190Y316670D01*
X9210Y316670D02*
X9210Y323650D01*
X16190Y323650D01*
X16190Y316670D01*
X16190Y321470D02*
X9210Y321470D01*
D17*
X143000Y376080D03*
X135000Y376080D03*
X127000Y376080D03*
X119000Y376080D03*
X111000Y376080D03*
D18*
X106500Y386080D03*
D17*
X111000Y396080D03*
X119000Y396080D03*
X127000Y396080D03*
X135000Y396080D03*
X143000Y396080D03*
D18*
X147500Y386080D03*
D19*
X63500Y271780D03*
X88900Y271780D03*
X114300Y271780D03*
X139700Y271780D03*
X165100Y271780D03*
X190500Y271780D03*
D10*
X25400Y284480D03*
X228600Y284480D03*
X284480Y487680D03*
X487680Y487680D03*
D11*
X505460Y266700D03*
X266700Y505460D03*
D12*
X373380Y429650D03*
X373380Y446650D03*
X398780Y429650D03*
X398780Y446650D03*
D13*
X273130Y414080D03*
X273130Y358080D03*
D14*
X309880Y401080D03*
X309880Y391080D03*
X309880Y381080D03*
X309880Y371080D03*
D12*
X436880Y394580D03*
X436880Y377580D03*
D13*
X499030Y358080D03*
X499030Y414080D03*
D14*
X462280Y371080D03*
X462280Y381080D03*
X462280Y391080D03*
X462280Y401080D03*
D12*
X339090Y377580D03*
X339090Y394580D03*
D15*
X357260Y347980D03*
X374260Y347980D03*
X399170Y347980D03*
X416170Y347980D03*
D12*
X289560Y321700D03*
X289560Y338700D03*
D16*
X275270Y334210D02*
X268290Y334210D01*
X268290Y341190D01*
X275270Y341190D01*
X275270Y334210D01*
X275270Y339010D02*
X268290Y339010D01*
X268290Y316670D02*
X275270Y316670D01*
X268290Y316670D02*
X268290Y323650D01*
X275270Y323650D01*
X275270Y316670D01*
X275270Y321470D02*
X268290Y321470D01*
D17*
X402080Y376080D03*
X394080Y376080D03*
X386080Y376080D03*
X378080Y376080D03*
X370080Y376080D03*
D18*
X365580Y386080D03*
D17*
X370080Y396080D03*
X378080Y396080D03*
X386080Y396080D03*
X394080Y396080D03*
X402080Y396080D03*
D18*
X406580Y386080D03*
D19*
X322580Y271780D03*
X347980Y271780D03*
X373380Y271780D03*
X398780Y271780D03*
X424180Y271780D03*
X449580Y271780D03*
D10*
X284480Y284480D03*
X487680Y284480D03*
X543560Y487680D03*
X746760Y487680D03*
D11*
X764540Y266700D03*
X525780Y505460D03*
D12*
X632460Y429650D03*
X632460Y446650D03*
X657860Y429650D03*
X657860Y446650D03*
D13*
X532210Y414080D03*
X532210Y358080D03*
D14*
X568960Y401080D03*
X568960Y391080D03*
X568960Y381080D03*
X568960Y371080D03*
D12*
X695960Y394580D03*
X695960Y377580D03*
D13*
X758110Y358080D03*
X758110Y414080D03*
D14*
X721360Y371080D03*
X721360Y381080D03*
X721360Y391080D03*
X721360Y401080D03*
D12*
X598170Y377580D03*
X598170Y394580D03*
D15*
X616340Y347980D03*
X633340Y347980D03*
X658250Y347980D03*
X675250Y347980D03*
D12*
X548640Y321700D03*
X548640Y338700D03*
D16*
X534350Y334210D02*
X527370Y334210D01*
X527370Y341190D01*
X534350Y341190D01*
X534350Y334210D01*
X534350Y339010D02*
X527370Y339010D01*
X527370Y316670D02*
X534350Y316670D01*
X527370Y316670D02*
X527370Y323650D01*
X534350Y323650D01*
X534350Y316670D01*
X534350Y321470D02*
X527370Y321470D01*
D17*
X661160Y376080D03*
X653160Y376080D03*
X645160Y376080D03*
X637160Y376080D03*
X629160Y376080D03*
D18*
X624660Y386080D03*
D17*
X629160Y396080D03*
X637160Y396080D03*
X645160Y396080D03*
X653160Y396080D03*
X661160Y396080D03*
D18*
X665660Y386080D03*
D19*
X581660Y271780D03*
X607060Y271780D03*
X632460Y271780D03*
X657860Y271780D03*
X683260Y271780D03*
X708660Y271780D03*
D10*
X543560Y284480D03*
X746760Y284480D03*
X802640Y487680D03*
X1005840Y487680D03*
D11*
X1023620Y266700D03*
X784860Y505460D03*
D12*
X891540Y429650D03*
X891540Y446650D03*
X916940Y429650D03*
X916940Y446650D03*
D13*
X791290Y414080D03*
X791290Y358080D03*
D14*
X828040Y401080D03*
X828040Y391080D03*
X828040Y381080D03*
X828040Y371080D03*
D12*
X955040Y394580D03*
X955040Y377580D03*
D13*
X1017190Y358080D03*
X1017190Y414080D03*
D14*
X980440Y371080D03*
X980440Y381080D03*
X980440Y391080D03*
X980440Y401080D03*
D12*
X857250Y377580D03*
X857250Y394580D03*
D15*
X875420Y347980D03*
X892420Y347980D03*
X917330Y347980D03*
X934330Y347980D03*
D12*
X807720Y321700D03*
X807720Y338700D03*
D16*
X793430Y334210D02*
X786450Y334210D01*
X786450Y341190D01*
X793430Y341190D01*
X793430Y334210D01*
X793430Y339010D02*
X786450Y339010D01*
X786450Y316670D02*
X793430Y316670D01*
X786450Y316670D02*
X786450Y323650D01*
X793430Y323650D01*
X793430Y316670D01*
X793430Y321470D02*
X786450Y321470D01*
D17*
X920240Y376080D03*
X912240Y376080D03*
X904240Y376080D03*
X896240Y376080D03*
X888240Y376080D03*
D18*
X883740Y386080D03*
D17*
X888240Y396080D03*
X896240Y396080D03*
X904240Y396080D03*
X912240Y396080D03*
X920240Y396080D03*
D18*
X924740Y386080D03*
D19*
X840740Y271780D03*
X866140Y271780D03*
X891540Y271780D03*
X916940Y271780D03*
X942340Y271780D03*
X967740Y271780D03*
D10*
X802640Y284480D03*
X1005840Y284480D03*
X1061720Y487680D03*
X1264920Y487680D03*
D11*
X1282700Y266700D03*
X1043940Y505460D03*
D12*
X1150620Y429650D03*
X1150620Y446650D03*
X1176020Y429650D03*
X1176020Y446650D03*
D13*
X1050370Y414080D03*
X1050370Y358080D03*
D14*
X1087120Y401080D03*
X1087120Y391080D03*
X1087120Y381080D03*
X1087120Y371080D03*
D12*
X1214120Y394580D03*
X1214120Y377580D03*
D13*
X1276270Y358080D03*
X1276270Y414080D03*
D14*
X1239520Y371080D03*
X1239520Y381080D03*
X1239520Y391080D03*
X1239520Y401080D03*
D12*
X1116330Y377580D03*
X1116330Y394580D03*
D15*
X1134500Y347980D03*
X1151500Y347980D03*
X1176410Y347980D03*
X1193410Y347980D03*
D12*
X1066800Y321700D03*
X1066800Y338700D03*
D16*
X1052510Y334210D02*
X1045530Y334210D01*
X1045530Y341190D01*
X1052510Y341190D01*
X1052510Y334210D01*
X1052510Y339010D02*
X1045530Y339010D01*
X1045530Y316670D02*
X1052510Y316670D01*
X1045530Y316670D02*
X1045530Y323650D01*
X1052510Y323650D01*
X1052510Y316670D01*
X1052510Y321470D02*
X1045530Y321470D01*
D17*
X1179320Y376080D03*
X1171320Y376080D03*
X1163320Y376080D03*
X1155320Y376080D03*
X1147320Y376080D03*
D18*
X1142820Y386080D03*
D17*
X1147320Y396080D03*
X1155320Y396080D03*
X1163320Y396080D03*
X1171320Y396080D03*
X1179320Y396080D03*
D18*
X1183820Y386080D03*
D19*
X1099820Y271780D03*
X1125220Y271780D03*
X1150620Y271780D03*
X1176020Y271780D03*
X1201420Y271780D03*
X1226820Y271780D03*
D10*
X1061720Y284480D03*
X1264920Y284480D03*
X1320800Y487680D03*
X1524000Y487680D03*
D11*
X1541780Y266700D03*
X1303020Y505460D03*
D12*
X1409700Y429650D03*
X1409700Y446650D03*
X1435100Y429650D03*
X1435100Y446650D03*
D13*
X1309450Y414080D03*
X1309450Y358080D03*
D14*
X1346200Y401080D03*
X1346200Y391080D03*
X1346200Y381080D03*
X1346200Y371080D03*
D12*
X1473200Y394580D03*
X1473200Y377580D03*
D13*
X1535350Y358080D03*
X1535350Y414080D03*
D14*
X1498600Y371080D03*
X1498600Y381080D03*
X1498600Y391080D03*
X1498600Y401080D03*
D12*
X1375410Y377580D03*
X1375410Y394580D03*
D15*
X1393580Y347980D03*
X1410580Y347980D03*
X1435490Y347980D03*
X1452490Y347980D03*
D12*
X1325880Y321700D03*
X1325880Y338700D03*
D16*
X1311590Y334210D02*
X1304610Y334210D01*
X1304610Y341190D01*
X1311590Y341190D01*
X1311590Y334210D01*
X1311590Y339010D02*
X1304610Y339010D01*
X1304610Y316670D02*
X1311590Y316670D01*
X1304610Y316670D02*
X1304610Y323650D01*
X1311590Y323650D01*
X1311590Y316670D01*
X1311590Y321470D02*
X1304610Y321470D01*
D17*
X1438400Y376080D03*
X1430400Y376080D03*
X1422400Y376080D03*
X1414400Y376080D03*
X1406400Y376080D03*
D18*
X1401900Y386080D03*
D17*
X1406400Y396080D03*
X1414400Y396080D03*
X1422400Y396080D03*
X1430400Y396080D03*
X1438400Y396080D03*
D18*
X1442900Y386080D03*
D19*
X1358900Y271780D03*
X1384300Y271780D03*
X1409700Y271780D03*
X1435100Y271780D03*
X1460500Y271780D03*
X1485900Y271780D03*
D10*
X1320800Y284480D03*
X1524000Y284480D03*
X25400Y746760D03*
X228600Y746760D03*
D11*
X246380Y525780D03*
X7620Y764540D03*
D12*
X114300Y688730D03*
X114300Y705730D03*
X139700Y688730D03*
X139700Y705730D03*
D13*
X14050Y673160D03*
X14050Y617160D03*
D14*
X50800Y660160D03*
X50800Y650160D03*
X50800Y640160D03*
X50800Y630160D03*
D12*
X177800Y653660D03*
X177800Y636660D03*
D13*
X239950Y617160D03*
X239950Y673160D03*
D14*
X203200Y630160D03*
X203200Y640160D03*
X203200Y650160D03*
X203200Y660160D03*
D12*
X80010Y636660D03*
X80010Y653660D03*
D15*
X98180Y607060D03*
X115180Y607060D03*
X140090Y607060D03*
X157090Y607060D03*
D12*
X30480Y580780D03*
X30480Y597780D03*
D16*
X16190Y593290D02*
X9210Y593290D01*
X9210Y600270D01*
X16190Y600270D01*
X16190Y593290D01*
X16190Y598090D02*
X9210Y598090D01*
X9210Y575750D02*
X16190Y575750D01*
X9210Y575750D02*
X9210Y582730D01*
X16190Y582730D01*
X16190Y575750D01*
X16190Y580550D02*
X9210Y580550D01*
D17*
X143000Y635160D03*
X135000Y635160D03*
X127000Y635160D03*
X119000Y635160D03*
X111000Y635160D03*
D18*
X106500Y645160D03*
D17*
X111000Y655160D03*
X119000Y655160D03*
X127000Y655160D03*
X135000Y655160D03*
X143000Y655160D03*
D18*
X147500Y645160D03*
D19*
X63500Y530860D03*
X88900Y530860D03*
X114300Y530860D03*
X139700Y530860D03*
X165100Y530860D03*
X190500Y530860D03*
D10*
X25400Y543560D03*
X228600Y543560D03*
X284480Y746760D03*
X487680Y746760D03*
D11*
X505460Y525780D03*
X266700Y764540D03*
D12*
X373380Y688730D03*
X373380Y705730D03*
X398780Y688730D03*
X398780Y705730D03*
D13*
X273130Y673160D03*
X273130Y617160D03*
D14*
X309880Y660160D03*
X309880Y650160D03*
X309880Y640160D03*
X309880Y630160D03*
D12*
X436880Y653660D03*
X436880Y636660D03*
D13*
X499030Y617160D03*
X499030Y673160D03*
D14*
X462280Y630160D03*
X462280Y640160D03*
X462280Y650160D03*
X462280Y660160D03*
D12*
X339090Y636660D03*
X339090Y653660D03*
D15*
X357260Y607060D03*
X374260Y607060D03*
X399170Y607060D03*
X416170Y607060D03*
D12*
X289560Y580780D03*
X289560Y597780D03*
D16*
X275270Y593290D02*
X268290Y593290D01*
X268290Y600270D01*
X275270Y600270D01*
X275270Y593290D01*
X275270Y598090D02*
X268290Y598090D01*
X268290Y575750D02*
X275270Y575750D01*
X268290Y575750D02*
X268290Y582730D01*
X275270Y582730D01*
X275270Y575750D01*
X275270Y580550D02*
X268290Y580550D01*
D17*
X402080Y635160D03*
X394080Y635160D03*
X386080Y635160D03*
X378080Y635160D03*
X370080Y635160D03*
D18*
X365580Y645160D03*
D17*
X370080Y655160D03*
X378080Y655160D03*
X386080Y655160D03*
X394080Y655160D03*
X402080Y655160D03*
D18*
X406580Y645160D03*
D19*
X322580Y530860D03*
X347980Y530860D03*
X373380Y530860D03*
X398780Y530860D03*
X424180Y530860D03*
X449580Y530860D03*
D10*
X284480Y543560D03*
X487680Y543560D03*
X543560Y746760D03*
X746760Y746760D03*
D11*
X764540Y525780D03*
X525780Y764540D03*
D12*
X632460Y688730D03*
X632460Y705730D03*
X657860Y688730D03*
X657860Y705730D03*
D13*
X532210Y673160D03*
X532210Y617160D03*
D14*
X568960Y660160D03*
X568960Y650160D03*
X568960Y640160D03*
X568960Y630160D03*
D12*
X695960Y653660D03*
X695960Y636660D03*
D13*
X758110Y617160D03*
X758110Y673160D03*
D14*
X721360Y630160D03*
X721360Y640160D03*
X721360Y650160D03*
X721360Y660160D03*
D12*
X598170Y636660D03*
X598170Y653660D03*
D15*
X616340Y607060D03*
X633340Y607060D03*
X658250Y607060D03*
X675250Y607060D03*
D12*
X548640Y580780D03*
X548640Y597780D03*
D16*
X534350Y593290D02*
X527370Y593290D01*
X527370Y600270D01*
X534350Y600270D01*
X534350Y593290D01*
X534350Y598090D02*
X527370Y598090D01*
X527370Y575750D02*
X534350Y575750D01*
X527370Y575750D02*
X527370Y582730D01*
X534350Y582730D01*
X534350Y575750D01*
X534350Y580550D02*
X527370Y580550D01*
D17*
X661160Y635160D03*
X653160Y635160D03*
X645160Y635160D03*
X637160Y635160D03*
X629160Y635160D03*
D18*
X624660Y645160D03*
D17*
X629160Y655160D03*
X637160Y655160D03*
X645160Y655160D03*
X653160Y655160D03*
X661160Y655160D03*
D18*
X665660Y645160D03*
D19*
X581660Y530860D03*
X607060Y530860D03*
X632460Y530860D03*
X657860Y530860D03*
X683260Y530860D03*
X708660Y530860D03*
D10*
X543560Y543560D03*
X746760Y543560D03*
X802640Y746760D03*
X1005840Y746760D03*
D11*
X1023620Y525780D03*
X784860Y764540D03*
D12*
X891540Y688730D03*
X891540Y705730D03*
X916940Y688730D03*
X916940Y705730D03*
D13*
X791290Y673160D03*
X791290Y617160D03*
D14*
X828040Y660160D03*
X828040Y650160D03*
X828040Y640160D03*
X828040Y630160D03*
D12*
X955040Y653660D03*
X955040Y636660D03*
D13*
X1017190Y617160D03*
X1017190Y673160D03*
D14*
X980440Y630160D03*
X980440Y640160D03*
X980440Y650160D03*
X980440Y660160D03*
D12*
X857250Y636660D03*
X857250Y653660D03*
D15*
X875420Y607060D03*
X892420Y607060D03*
X917330Y607060D03*
X934330Y607060D03*
D12*
X807720Y580780D03*
X807720Y597780D03*
D16*
X793430Y593290D02*
X786450Y593290D01*
X786450Y600270D01*
X793430Y600270D01*
X793430Y593290D01*
X793430Y598090D02*
X786450Y598090D01*
X786450Y575750D02*
X793430Y575750D01*
X786450Y575750D02*
X786450Y582730D01*
X793430Y582730D01*
X793430Y575750D01*
X793430Y580550D02*
X786450Y580550D01*
D17*
X920240Y635160D03*
X912240Y635160D03*
X904240Y635160D03*
X896240Y635160D03*
X888240Y635160D03*
D18*
X883740Y645160D03*
D17*
X888240Y655160D03*
X896240Y655160D03*
X904240Y655160D03*
X912240Y655160D03*
X920240Y655160D03*
D18*
X924740Y645160D03*
D19*
X840740Y530860D03*
X866140Y530860D03*
X891540Y530860D03*
X916940Y530860D03*
X942340Y530860D03*
X967740Y530860D03*
D10*
X802640Y543560D03*
X1005840Y543560D03*
X1061720Y746760D03*
X1264920Y746760D03*
D11*
X1282700Y525780D03*
X1043940Y764540D03*
D12*
X1150620Y688730D03*
X1150620Y705730D03*
X1176020Y688730D03*
X1176020Y705730D03*
D13*
X1050370Y673160D03*
X1050370Y617160D03*
D14*
X1087120Y660160D03*
X1087120Y650160D03*
X1087120Y640160D03*
X1087120Y630160D03*
D12*
X1214120Y653660D03*
X1214120Y636660D03*
D13*
X1276270Y617160D03*
X1276270Y673160D03*
D14*
X1239520Y630160D03*
X1239520Y640160D03*
X1239520Y650160D03*
X1239520Y660160D03*
D12*
X1116330Y636660D03*
X1116330Y653660D03*
D15*
X1134500Y607060D03*
X1151500Y607060D03*
X1176410Y607060D03*
X1193410Y607060D03*
D12*
X1066800Y580780D03*
X1066800Y597780D03*
D16*
X1052510Y593290D02*
X1045530Y593290D01*
X1045530Y600270D01*
X1052510Y600270D01*
X1052510Y593290D01*
X1052510Y598090D02*
X1045530Y598090D01*
X1045530Y575750D02*
X1052510Y575750D01*
X1045530Y575750D02*
X1045530Y582730D01*
X1052510Y582730D01*
X1052510Y575750D01*
X1052510Y580550D02*
X1045530Y580550D01*
D17*
X1179320Y635160D03*
X1171320Y635160D03*
X1163320Y635160D03*
X1155320Y635160D03*
X1147320Y635160D03*
D18*
X1142820Y645160D03*
D17*
X1147320Y655160D03*
X1155320Y655160D03*
X1163320Y655160D03*
X1171320Y655160D03*
X1179320Y655160D03*
D18*
X1183820Y645160D03*
D19*
X1099820Y530860D03*
X1125220Y530860D03*
X1150620Y530860D03*
X1176020Y530860D03*
X1201420Y530860D03*
X1226820Y530860D03*
D10*
X1061720Y543560D03*
X1264920Y543560D03*
X1320800Y746760D03*
X1524000Y746760D03*
D11*
X1541780Y525780D03*
X1303020Y764540D03*
D12*
X1409700Y688730D03*
X1409700Y705730D03*
X1435100Y688730D03*
X1435100Y705730D03*
D13*
X1309450Y673160D03*
X1309450Y617160D03*
D14*
X1346200Y660160D03*
X1346200Y650160D03*
X1346200Y640160D03*
X1346200Y630160D03*
D12*
X1473200Y653660D03*
X1473200Y636660D03*
D13*
X1535350Y617160D03*
X1535350Y673160D03*
D14*
X1498600Y630160D03*
X1498600Y640160D03*
X1498600Y650160D03*
X1498600Y660160D03*
D12*
X1375410Y636660D03*
X1375410Y653660D03*
D15*
X1393580Y607060D03*
X1410580Y607060D03*
X1435490Y607060D03*
X1452490Y607060D03*
D12*
X1325880Y580780D03*
X1325880Y597780D03*
D16*
X1311590Y593290D02*
X1304610Y593290D01*
X1304610Y600270D01*
X1311590Y600270D01*
X1311590Y593290D01*
X1311590Y598090D02*
X1304610Y598090D01*
X1304610Y575750D02*
X1311590Y575750D01*
X1304610Y575750D02*
X1304610Y582730D01*
X1311590Y582730D01*
X1311590Y575750D01*
X1311590Y580550D02*
X1304610Y580550D01*
D17*
X1438400Y635160D03*
X1430400Y635160D03*
X1422400Y635160D03*
X1414400Y635160D03*
X1406400Y635160D03*
D18*
X1401900Y645160D03*
D17*
X1406400Y655160D03*
X1414400Y655160D03*
X1422400Y655160D03*
X1430400Y655160D03*
X1438400Y655160D03*
D18*
X1442900Y645160D03*
D19*
X1358900Y530860D03*
X1384300Y530860D03*
X1409700Y530860D03*
X1435100Y530860D03*
X1460500Y530860D03*
X1485900Y530860D03*
D10*
X1320800Y543560D03*
X1524000Y543560D03*
X25400Y1005840D03*
X228600Y1005840D03*
D11*
X246380Y784860D03*
X7620Y1023620D03*
D12*
X114300Y947810D03*
X114300Y964810D03*
X139700Y947810D03*
X139700Y964810D03*
D13*
X14050Y932240D03*
X14050Y876240D03*
D14*
X50800Y919240D03*
X50800Y909240D03*
X50800Y899240D03*
X50800Y889240D03*
D12*
X177800Y912740D03*
X177800Y895740D03*
D13*
X239950Y876240D03*
X239950Y932240D03*
D14*
X203200Y889240D03*
X203200Y899240D03*
X203200Y909240D03*
X203200Y919240D03*
D12*
X80010Y895740D03*
X80010Y912740D03*
D15*
X98180Y866140D03*
X115180Y866140D03*
X140090Y866140D03*
X157090Y866140D03*
D12*
X30480Y839860D03*
X30480Y856860D03*
D16*
X16190Y852370D02*
X9210Y852370D01*
X9210Y859350D01*
X16190Y859350D01*
X16190Y852370D01*
X16190Y857170D02*
X9210Y857170D01*
X9210Y834830D02*
X16190Y834830D01*
X9210Y834830D02*
X9210Y841810D01*
X16190Y841810D01*
X16190Y834830D01*
X16190Y839630D02*
X9210Y839630D01*
D17*
X143000Y894240D03*
X135000Y894240D03*
X127000Y894240D03*
X119000Y894240D03*
X111000Y894240D03*
D18*
X106500Y904240D03*
D17*
X111000Y914240D03*
X119000Y914240D03*
X127000Y914240D03*
X135000Y914240D03*
X143000Y914240D03*
D18*
X147500Y904240D03*
D19*
X63500Y789940D03*
X88900Y789940D03*
X114300Y789940D03*
X139700Y789940D03*
X165100Y789940D03*
X190500Y789940D03*
D10*
X25400Y802640D03*
X228600Y802640D03*
X284480Y1005840D03*
X487680Y1005840D03*
D11*
X505460Y784860D03*
X266700Y1023620D03*
D12*
X373380Y947810D03*
X373380Y964810D03*
X398780Y947810D03*
X398780Y964810D03*
D13*
X273130Y932240D03*
X273130Y876240D03*
D14*
X309880Y919240D03*
X309880Y909240D03*
X309880Y899240D03*
X309880Y889240D03*
D12*
X436880Y912740D03*
X436880Y895740D03*
D13*
X499030Y876240D03*
X499030Y932240D03*
D14*
X462280Y889240D03*
X462280Y899240D03*
X462280Y909240D03*
X462280Y919240D03*
D12*
X339090Y895740D03*
X339090Y912740D03*
D15*
X357260Y866140D03*
X374260Y866140D03*
X399170Y866140D03*
X416170Y866140D03*
D12*
X289560Y839860D03*
X289560Y856860D03*
D16*
X275270Y852370D02*
X268290Y852370D01*
X268290Y859350D01*
X275270Y859350D01*
X275270Y852370D01*
X275270Y857170D02*
X268290Y857170D01*
X268290Y834830D02*
X275270Y834830D01*
X268290Y834830D02*
X268290Y841810D01*
X275270Y841810D01*
X275270Y834830D01*
X275270Y839630D02*
X268290Y839630D01*
D17*
X402080Y894240D03*
X394080Y894240D03*
X386080Y894240D03*
X378080Y894240D03*
X370080Y894240D03*
D18*
X365580Y904240D03*
D17*
X370080Y914240D03*
X378080Y914240D03*
X386080Y914240D03*
X394080Y914240D03*
X402080Y914240D03*
D18*
X406580Y904240D03*
D19*
X322580Y789940D03*
X347980Y789940D03*
X373380Y789940D03*
X398780Y789940D03*
X424180Y789940D03*
X449580Y789940D03*
D10*
X284480Y802640D03*
X487680Y802640D03*
X543560Y1005840D03*
X746760Y1005840D03*
D11*
X764540Y784860D03*
X525780Y1023620D03*
D12*
X632460Y947810D03*
X632460Y964810D03*
X657860Y947810D03*
X657860Y964810D03*
D13*
X532210Y932240D03*
X532210Y876240D03*
D14*
X568960Y919240D03*
X568960Y909240D03*
X568960Y899240D03*
X568960Y889240D03*
D12*
X695960Y912740D03*
X695960Y895740D03*
D13*
X758110Y876240D03*
X758110Y932240D03*
D14*
X721360Y889240D03*
X721360Y899240D03*
X721360Y909240D03*
X721360Y919240D03*
D12*
X598170Y895740D03*
X598170Y912740D03*
D15*
X616340Y866140D03*
X633340Y866140D03*
X658250Y866140D03*
X675250Y866140D03*
D12*
X548640Y839860D03*
X548640Y856860D03*
D16*
X534350Y852370D02*
X527370Y852370D01*
X527370Y859350D01*
X534350Y859350D01*
X534350Y852370D01*
X534350Y857170D02*
X527370Y857170D01*
X527370Y834830D02*
X534350Y834830D01*
X527370Y834830D02*
X527370Y841810D01*
X534350Y841810D01*
X534350Y834830D01*
X534350Y839630D02*
X527370Y839630D01*
D17*
X661160Y894240D03*
X653160Y894240D03*
X645160Y894240D03*
X637160Y894240D03*
X629160Y894240D03*
D18*
X624660Y904240D03*
D17*
X629160Y914240D03*
X637160Y914240D03*
X645160Y914240D03*
X653160Y914240D03*
X661160Y914240D03*
D18*
X665660Y904240D03*
D19*
X581660Y789940D03*
X607060Y789940D03*
X632460Y789940D03*
X657860Y789940D03*
X683260Y789940D03*
X708660Y789940D03*
D10*
X543560Y802640D03*
X746760Y802640D03*
X802640Y1005840D03*
X1005840Y1005840D03*
D11*
X1023620Y784860D03*
X784860Y1023620D03*
D12*
X891540Y947810D03*
X891540Y964810D03*
X916940Y947810D03*
X916940Y964810D03*
D13*
X791290Y932240D03*
X791290Y876240D03*
D14*
X828040Y919240D03*
X828040Y909240D03*
X828040Y899240D03*
X828040Y889240D03*
D12*
X955040Y912740D03*
X955040Y895740D03*
D13*
X1017190Y876240D03*
X1017190Y932240D03*
D14*
X980440Y889240D03*
X980440Y899240D03*
X980440Y909240D03*
X980440Y919240D03*
D12*
X857250Y895740D03*
X857250Y912740D03*
D15*
X875420Y866140D03*
X892420Y866140D03*
X917330Y866140D03*
X934330Y866140D03*
D12*
X807720Y839860D03*
X807720Y856860D03*
D16*
X793430Y852370D02*
X786450Y852370D01*
X786450Y859350D01*
X793430Y859350D01*
X793430Y852370D01*
X793430Y857170D02*
X786450Y857170D01*
X786450Y834830D02*
X793430Y834830D01*
X786450Y834830D02*
X786450Y841810D01*
X793430Y841810D01*
X793430Y834830D01*
X793430Y839630D02*
X786450Y839630D01*
D17*
X920240Y894240D03*
X912240Y894240D03*
X904240Y894240D03*
X896240Y894240D03*
X888240Y894240D03*
D18*
X883740Y904240D03*
D17*
X888240Y914240D03*
X896240Y914240D03*
X904240Y914240D03*
X912240Y914240D03*
X920240Y914240D03*
D18*
X924740Y904240D03*
D19*
X840740Y789940D03*
X866140Y789940D03*
X891540Y789940D03*
X916940Y789940D03*
X942340Y789940D03*
X967740Y789940D03*
D10*
X802640Y802640D03*
X1005840Y802640D03*
X1061720Y1005840D03*
X1264920Y1005840D03*
D11*
X1282700Y784860D03*
X1043940Y1023620D03*
D12*
X1150620Y947810D03*
X1150620Y964810D03*
X1176020Y947810D03*
X1176020Y964810D03*
D13*
X1050370Y932240D03*
X1050370Y876240D03*
D14*
X1087120Y919240D03*
X1087120Y909240D03*
X1087120Y899240D03*
X1087120Y889240D03*
D12*
X1214120Y912740D03*
X1214120Y895740D03*
D13*
X1276270Y876240D03*
X1276270Y932240D03*
D14*
X1239520Y889240D03*
X1239520Y899240D03*
X1239520Y909240D03*
X1239520Y919240D03*
D12*
X1116330Y895740D03*
X1116330Y912740D03*
D15*
X1134500Y866140D03*
X1151500Y866140D03*
X1176410Y866140D03*
X1193410Y866140D03*
D12*
X1066800Y839860D03*
X1066800Y856860D03*
D16*
X1052510Y852370D02*
X1045530Y852370D01*
X1045530Y859350D01*
X1052510Y859350D01*
X1052510Y852370D01*
X1052510Y857170D02*
X1045530Y857170D01*
X1045530Y834830D02*
X1052510Y834830D01*
X1045530Y834830D02*
X1045530Y841810D01*
X1052510Y841810D01*
X1052510Y834830D01*
X1052510Y839630D02*
X1045530Y839630D01*
D17*
X1179320Y894240D03*
X1171320Y894240D03*
X1163320Y894240D03*
X1155320Y894240D03*
X1147320Y894240D03*
D18*
X1142820Y904240D03*
D17*
X1147320Y914240D03*
X1155320Y914240D03*
X1163320Y914240D03*
X1171320Y914240D03*
X1179320Y914240D03*
D18*
X1183820Y904240D03*
D19*
X1099820Y789940D03*
X1125220Y789940D03*
X1150620Y789940D03*
X1176020Y789940D03*
X1201420Y789940D03*
X1226820Y789940D03*
D10*
X1061720Y802640D03*
X1264920Y802640D03*
X1320800Y1005840D03*
X1524000Y1005840D03*
D11*
X1541780Y784860D03*
X1303020Y1023620D03*
D12*
X1409700Y947810D03*
X1409700Y964810D03*
X1435100Y947810D03*
X1435100Y964810D03*
D13*
X1309450Y932240D03*
X1309450Y876240D03*
D14*
X1346200Y919240D03*
X1346200Y909240D03*
X1346200Y899240D03*
X1346200Y889240D03*
D12*
X1473200Y912740D03*
X1473200Y895740D03*
D13*
X1535350Y876240D03*
X1535350Y932240D03*
D14*
X1498600Y889240D03*
X1498600Y899240D03*
X1498600Y909240D03*
X1498600Y919240D03*
D12*
X1375410Y895740D03*
X1375410Y912740D03*
D15*
X1393580Y866140D03*
X1410580Y866140D03*
X1435490Y866140D03*
X1452490Y866140D03*
D12*
X1325880Y839860D03*
X1325880Y856860D03*
D16*
X1311590Y852370D02*
X1304610Y852370D01*
X1304610Y859350D01*
X1311590Y859350D01*
X1311590Y852370D01*
X1311590Y857170D02*
X1304610Y857170D01*
X1304610Y834830D02*
X1311590Y834830D01*
X1304610Y834830D02*
X1304610Y841810D01*
X1311590Y841810D01*
X1311590Y834830D01*
X1311590Y839630D02*
X1304610Y839630D01*
D17*
X1438400Y894240D03*
X1430400Y894240D03*
X1422400Y894240D03*
X1414400Y894240D03*
X1406400Y894240D03*
D18*
X1401900Y904240D03*
D17*
X1406400Y914240D03*
X1414400Y914240D03*
X1422400Y914240D03*
X1430400Y914240D03*
X1438400Y914240D03*
D18*
X1442900Y904240D03*
D19*
X1358900Y789940D03*
X1384300Y789940D03*
X1409700Y789940D03*
X1435100Y789940D03*
X1460500Y789940D03*
X1485900Y789940D03*
D10*
X1320800Y802640D03*
X1524000Y802640D03*
D20*
X68580Y1052195D03*
X1480185Y1052195D03*
D21*
X59525Y-20955D02*
X59528Y-20733D01*
X59536Y-20511D01*
X59550Y-20289D01*
X59569Y-20067D01*
X59593Y-19847D01*
X59623Y-19626D01*
X59658Y-19407D01*
X59699Y-19188D01*
X59745Y-18971D01*
X59796Y-18755D01*
X59853Y-18540D01*
X59915Y-18326D01*
X59982Y-18115D01*
X60054Y-17904D01*
X60132Y-17696D01*
X60214Y-17490D01*
X60302Y-17286D01*
X60394Y-17083D01*
X60492Y-16884D01*
X60594Y-16687D01*
X60701Y-16492D01*
X60813Y-16300D01*
X60930Y-16111D01*
X61051Y-15924D01*
X61177Y-15741D01*
X61307Y-15561D01*
X61442Y-15384D01*
X61580Y-15211D01*
X61723Y-15041D01*
X61871Y-14874D01*
X62022Y-14711D01*
X62177Y-14552D01*
X62336Y-14397D01*
X62499Y-14246D01*
X62666Y-14098D01*
X62836Y-13955D01*
X63009Y-13817D01*
X63186Y-13682D01*
X63366Y-13552D01*
X63549Y-13426D01*
X63736Y-13305D01*
X63925Y-13188D01*
X64117Y-13076D01*
X64312Y-12969D01*
X64509Y-12867D01*
X64708Y-12769D01*
X64911Y-12677D01*
X65115Y-12589D01*
X65321Y-12507D01*
X65529Y-12429D01*
X65740Y-12357D01*
X65951Y-12290D01*
X66165Y-12228D01*
X66380Y-12171D01*
X66596Y-12120D01*
X66813Y-12074D01*
X67032Y-12033D01*
X67251Y-11998D01*
X67472Y-11968D01*
X67692Y-11944D01*
X67914Y-11925D01*
X68136Y-11911D01*
X68358Y-11903D01*
X68580Y-11900D01*
X68802Y-11903D01*
X69024Y-11911D01*
X69246Y-11925D01*
X69468Y-11944D01*
X69688Y-11968D01*
X69909Y-11998D01*
X70128Y-12033D01*
X70347Y-12074D01*
X70564Y-12120D01*
X70780Y-12171D01*
X70995Y-12228D01*
X71209Y-12290D01*
X71420Y-12357D01*
X71631Y-12429D01*
X71839Y-12507D01*
X72045Y-12589D01*
X72249Y-12677D01*
X72452Y-12769D01*
X72651Y-12867D01*
X72848Y-12969D01*
X73043Y-13076D01*
X73235Y-13188D01*
X73424Y-13305D01*
X73611Y-13426D01*
X73794Y-13552D01*
X73974Y-13682D01*
X74151Y-13817D01*
X74324Y-13955D01*
X74494Y-14098D01*
X74661Y-14246D01*
X74824Y-14397D01*
X74983Y-14552D01*
X75138Y-14711D01*
X75289Y-14874D01*
X75437Y-15041D01*
X75580Y-15211D01*
X75718Y-15384D01*
X75853Y-15561D01*
X75983Y-15741D01*
X76109Y-15924D01*
X76230Y-16111D01*
X76347Y-16300D01*
X76459Y-16492D01*
X76566Y-16687D01*
X76668Y-16884D01*
X76766Y-17083D01*
X76858Y-17286D01*
X76946Y-17490D01*
X77028Y-17696D01*
X77106Y-17904D01*
X77178Y-18115D01*
X77245Y-18326D01*
X77307Y-18540D01*
X77364Y-18755D01*
X77415Y-18971D01*
X77461Y-19188D01*
X77502Y-19407D01*
X77537Y-19626D01*
X77567Y-19847D01*
X77591Y-20067D01*
X77610Y-20289D01*
X77624Y-20511D01*
X77632Y-20733D01*
X77635Y-20955D01*
X77632Y-21177D01*
X77624Y-21399D01*
X77610Y-21621D01*
X77591Y-21843D01*
X77567Y-22063D01*
X77537Y-22284D01*
X77502Y-22503D01*
X77461Y-22722D01*
X77415Y-22939D01*
X77364Y-23155D01*
X77307Y-23370D01*
X77245Y-23584D01*
X77178Y-23795D01*
X77106Y-24006D01*
X77028Y-24214D01*
X76946Y-24420D01*
X76858Y-24624D01*
X76766Y-24827D01*
X76668Y-25026D01*
X76566Y-25223D01*
X76459Y-25418D01*
X76347Y-25610D01*
X76230Y-25799D01*
X76109Y-25986D01*
X75983Y-26169D01*
X75853Y-26349D01*
X75718Y-26526D01*
X75580Y-26699D01*
X75437Y-26869D01*
X75289Y-27036D01*
X75138Y-27199D01*
X74983Y-27358D01*
X74824Y-27513D01*
X74661Y-27664D01*
X74494Y-27812D01*
X74324Y-27955D01*
X74151Y-28093D01*
X73974Y-28228D01*
X73794Y-28358D01*
X73611Y-28484D01*
X73424Y-28605D01*
X73235Y-28722D01*
X73043Y-28834D01*
X72848Y-28941D01*
X72651Y-29043D01*
X72452Y-29141D01*
X72249Y-29233D01*
X72045Y-29321D01*
X71839Y-29403D01*
X71631Y-29481D01*
X71420Y-29553D01*
X71209Y-29620D01*
X70995Y-29682D01*
X70780Y-29739D01*
X70564Y-29790D01*
X70347Y-29836D01*
X70128Y-29877D01*
X69909Y-29912D01*
X69688Y-29942D01*
X69468Y-29966D01*
X69246Y-29985D01*
X69024Y-29999D01*
X68802Y-30007D01*
X68580Y-30010D01*
X68358Y-30007D01*
X68136Y-29999D01*
X67914Y-29985D01*
X67692Y-29966D01*
X67472Y-29942D01*
X67251Y-29912D01*
X67032Y-29877D01*
X66813Y-29836D01*
X66596Y-29790D01*
X66380Y-29739D01*
X66165Y-29682D01*
X65951Y-29620D01*
X65740Y-29553D01*
X65529Y-29481D01*
X65321Y-29403D01*
X65115Y-29321D01*
X64911Y-29233D01*
X64708Y-29141D01*
X64509Y-29043D01*
X64312Y-28941D01*
X64117Y-28834D01*
X63925Y-28722D01*
X63736Y-28605D01*
X63549Y-28484D01*
X63366Y-28358D01*
X63186Y-28228D01*
X63009Y-28093D01*
X62836Y-27955D01*
X62666Y-27812D01*
X62499Y-27664D01*
X62336Y-27513D01*
X62177Y-27358D01*
X62022Y-27199D01*
X61871Y-27036D01*
X61723Y-26869D01*
X61580Y-26699D01*
X61442Y-26526D01*
X61307Y-26349D01*
X61177Y-26169D01*
X61051Y-25986D01*
X60930Y-25799D01*
X60813Y-25610D01*
X60701Y-25418D01*
X60594Y-25223D01*
X60492Y-25026D01*
X60394Y-24827D01*
X60302Y-24624D01*
X60214Y-24420D01*
X60132Y-24214D01*
X60054Y-24006D01*
X59982Y-23795D01*
X59915Y-23584D01*
X59853Y-23370D01*
X59796Y-23155D01*
X59745Y-22939D01*
X59699Y-22722D01*
X59658Y-22503D01*
X59623Y-22284D01*
X59593Y-22063D01*
X59569Y-21843D01*
X59550Y-21621D01*
X59536Y-21399D01*
X59528Y-21177D01*
X59525Y-20955D01*
D22*
X68580Y-20955D03*
M02*
